<?xml version="1.0" encoding="utf-8"?>
<!-- Generator: Adobe Illustrator 17.0.2, SVG Export Plug-In . SVG Version: 6.00 Build 0)  -->
<!DOCTYPE svg PUBLIC "-//W3C//DTD SVG 1.1//EN" "http://www.w3.org/Graphics/SVG/1.1/DTD/svg11.dtd">
<svg version="1.1" id="Layer_1" xmlns="http://www.w3.org/2000/svg" xmlns:xlink="http://www.w3.org/1999/xlink" x="0px" y="0px"
	 width="449.348px" height="449.549px" viewBox="0 0 449.348 449.549" enable-background="new 0 0 449.348 449.549"
	 xml:space="preserve">
<g id="DBkCoP.tif">
	<g>
		<path fill="#1F82C3" d="M234.61,0c1.542,0.591,3.179,0.366,4.762,0.468c13.074,0.838,25.968,2.811,38.69,5.926
			c33.094,8.103,62.859,22.943,89.111,44.624c34.389,28.401,58.389,63.918,71.902,106.456c3.978,12.522,6.724,25.323,8.396,38.361
			c1.564,12.192,2.18,24.428,1.737,36.704c-1.079,29.955-7.747,58.608-20.248,85.875c-10.331,22.534-24.033,42.807-41.064,60.809
			c-17.739,18.75-38.099,34.031-61.082,45.799c-15.146,7.756-30.977,13.697-47.485,17.82c-9.967,2.489-20.058,4.276-30.277,5.377
			c-10.503,1.131-21.027,1.559-31.581,1.213c-26.741-0.878-52.54-6.259-77.331-16.347c-25.851-10.52-48.974-25.339-69.271-44.483
			c-26.995-25.463-46.603-55.747-58.732-90.842c-4.798-13.883-8.12-28.123-10.099-42.671c-1.754-12.899-2.377-25.868-1.864-38.872
			c1.215-30.844,8.342-60.257,21.643-88.135c10.654-22.33,24.612-42.367,41.893-60.084c24.725-25.348,53.79-43.887,87.206-55.601
			c13.603-4.768,27.557-8.109,41.817-10.156c7.031-1.009,14.1-1.704,21.204-1.978c0.292-0.011,0.652,0.126,0.834-0.264
			C221.383,0,227.997,0,234.61,0z M4.579,224.772C4.401,345.639,102.166,444.125,222.921,445.02
			c122.508,0.908,221.019-97.891,221.893-218.492c0.888-122.613-97.936-221.275-218.645-222.02
			C103.203,3.748,4.332,103.533,4.579,224.772z"/>
		<path fill="#6FB96F" d="M437.672,224.801c0.152,116.856-94.071,211.451-209.828,213.119
			c-118.81,1.712-216.737-94.191-216.219-214.129C12.137,105.108,109.336,9.898,227.909,11.624
			C343.72,13.31,437.859,107.99,437.672,224.801z M433.132,224.682c0.059-114.462-92.316-207.223-206.01-208.507
			C111.353,14.867,16.28,108.083,16.19,224.52c-0.09,115.922,93.159,207.416,205.672,208.839
			C339.027,434.841,433.379,339.993,433.132,224.682z"/>
		<path fill="#1A80C3" d="M228.373,205.71c-0.005,1.426-0.617,3.204,0.245,4.165c0.697,0.777,2.479,0.168,3.779,0.21
			c0.675,0.022,1.352-0.024,2.028-0.039c10.141,0.015,20.282,0.023,30.423,0.062c0.82,0.003,0.948-0.36,0.999-1.053
			c0.425-5.701,1.551-11.264,3.241-16.727c1.543-4.988,3.712-9.694,6.167-14.282c1.742-2.475,1.742-2.475-0.945-3.792
			c-2.19-1.074-4.369-2.17-6.575-3.21c-0.732-0.345-0.998-0.563-0.305-1.298c7.792-8.255,17.095-13.69,28.455-15.256
			c2.639-0.364,5.3-0.514,7.981-0.209c1.087,0.124,1.271,0.333,0.829,1.35c-1.843,4.237-3.179,8.639-4.025,13.182
			c-1.32,7.09-1.464,14.176,0.1,21.303c-0.846-1.387-1.68-2.781-2.541-4.159c-0.841-1.347-1.799-2.605-2.963-3.694
			c-1.68-1.571-3.208-1.741-5.309-0.597c-1.847,0.695-2.943,2.201-3.97,3.749c-1.946,2.931-3.108,6.215-4.081,9.56
			c-2.907,9.987-4.05,20.26-4.788,30.586c-0.088,1.227-0.46,1.441-1.583,1.438c-13.123-0.039-26.246-0.026-39.369-0.022
			c-0.541,0-1.082,0.044-1.623,0.067c-1.811-0.02-3.621-0.027-5.432-0.068c-0.588-0.013-0.829,0.217-0.79,0.795
			c0.021,0.316,0.002,0.634,0.002,0.951c0,12.003-0.017,24.007,0.026,36.01c0.004,1.148-0.328,1.437-1.439,1.413
			c-3.576-0.079-7.155-0.099-10.731-0.034c-1.117,0.021-1.332-0.348-1.329-1.378c0.033-12.049,0-24.098,0.051-36.146
			c0.006-1.318-0.348-1.741-1.657-1.629c-1.484,0.126-2.985,0.059-4.479,0.076c-0.588-0.02-1.175-0.057-1.763-0.057
			c-13.725-0.003-27.45-0.004-41.174,0c-0.728,0-1.331,0.134-1.403-1.026c-0.49-7.903-1.362-15.767-2.964-23.529
			c-1.125-5.452-2.454-10.855-5.17-15.787c-0.94-1.708-2.011-3.337-3.724-4.407c-2.287-1.692-3.985-1.675-6.099,0.132
			c-2.169,1.854-3.629,4.255-5.034,6.691c-0.237,0.41-0.47,0.822-0.767,1.213c2.815-12.415,0.598-24.228-4.3-35.966
			c15.652-1.059,28.014,5.043,38.468,16.226c-2.709,1.338-5.267,2.631-7.851,3.872c-2.453,1.178-2.464,1.155-0.833,3.424
			c0.806,1.561,1.654,3.102,2.41,4.687c4.027,8.441,6.438,17.319,7.107,26.656c0.047,0.655,0.218,0.948,0.951,0.946
			c10.718-0.036,21.437-0.044,32.156-0.059c1.747,0.014,3.494,0.011,5.24,0.053c0.63,0.015,0.89-0.193,0.863-0.843
			c-0.048-1.163-0.04-2.328-0.056-3.492c0.225-0.378,0.134-0.795,0.134-1.196c0.004-21.467,0.004-42.935-0.001-64.402
			c0-0.445,0.098-0.908-0.14-1.332c0.176-2.705,0.176-2.706-2.48-2.706c-4.02,0-8.04,0-12.282,0
			c7.195-14.744,14.315-29.333,21.568-44.197c1.102,2.221,2.095,4.2,3.07,6.188c5.923,12.085,11.842,24.172,17.76,36.259
			c0.688,1.406,0.681,1.41-0.958,1.411c-3.847,0.001-7.694,0.054-11.539-0.03c-1.271-0.028-1.87,0.252-1.643,1.611
			c0.081,0.486,0.042,0.992,0.057,1.489c-0.018,0.361-0.053,0.722-0.053,1.083c-0.003,21.561-0.003,43.122-0.001,64.683
			C228.316,204.988,228.353,205.349,228.373,205.71z M206.407,132.632c3.262,0,6.248,0.052,9.231-0.027
			c1.119-0.03,1.437,0.262,1.436,1.411c-0.034,25.81-0.034,51.619,0.002,77.429c0.002,1.175-0.367,1.393-1.455,1.389
			c-12.271-0.038-24.542-0.024-36.813-0.024c-2.627,0-2.543-0.005-2.402,2.54c0.071,1.278,0.559,1.526,1.734,1.523
			c13.403-0.026,26.805-0.015,40.208,0.039c1.202,0.005,1.58-0.251,1.578-1.535c-0.038-36.903-0.031-73.807-0.034-110.71
			c0-0.354-0.041-0.709-0.088-1.462C215.251,113.206,210.876,122.816,206.407,132.632z M296.179,158.779
			c-8.981,0.487-16.43,4.292-22.873,10.325c-0.599,0.561-0.239,0.777,0.25,1.075c2.203,1.341,4.374,2.734,6.594,4.045
			c0.641,0.378,0.654,0.672,0.304,1.258c-0.742,1.241-1.452,2.505-2.102,3.797c-5.076,10.086-7.996,20.802-9.228,31.994
			c-0.142,1.288-0.547,1.688-1.901,1.679c-12.093-0.085-24.186-0.081-36.279-0.102c-2.629-0.004-2.542,0.003-2.658,2.621
			c-0.058,1.298,0.427,1.441,1.536,1.439c12.411-0.024,24.822,0.002,37.232,0.012c1.311,0.001,2.623-0.035,3.934-0.025
			c0.748,0.006,1.096-0.206,1.152-1.07c0.262-4.065,0.828-8.096,1.63-12.088c2.645-13.154,7.594-25.336,15.405-36.304
			C291.324,164.418,293.71,161.601,296.179,158.779z M145.263,180.228c0.738-0.454,1.34-0.842,1.958-1.203
			c2.405-1.405,4.66-1.375,6.874,0.509c2.211,1.881,3.936,4.113,5.284,6.652c4.049,7.625,5.732,15.938,7.012,24.36
			c0.591,3.891,1.026,7.801,1.18,11.736c0.037,0.94,0.41,1.294,1.325,1.17c0.356-0.048,0.726-0.036,1.085-0.002
			c0.718,0.067,0.859-0.18,0.834-0.926c-0.165-4.935-0.679-9.832-1.421-14.71c-1.596-10.485-4.49-20.563-9.599-29.909
			c-3.951-7.228-8.919-13.618-15.819-18.317c-0.442-0.301-0.924-0.545-1.721-1.009C145.379,165.75,146.621,172.757,145.263,180.228z
			 M219.83,245.587c0-5.789-0.045-11.578,0.034-17.365c0.018-1.318-0.593-1.275-1.542-1.309c-1.039-0.037-1.371,0.234-1.366,1.335
			c0.043,11.532,0.045,23.064-0.002,34.596c-0.005,1.141,0.391,1.329,1.395,1.327c1.015-0.001,1.528-0.1,1.512-1.355
			C219.789,257.074,219.83,251.33,219.83,245.587z"/>
		<path fill="#1A80C3" d="M295.727,288.686c0,2.802,0,5.235,0,7.669c0,2.672-0.139,5.353,0.05,8.011
			c0.123,1.734-0.571,2.553-1.999,3.31c-14.527,7.707-29.375,7.766-44.364,1.687c-2.609-1.058-4.502-1.093-7.139,0.064
			c-14.996,6.579-29.966,5.932-44.725-0.983c-0.807-0.378-1.398-0.389-2.225,0.004c-16.001,7.604-32.034,8.473-48.101,0.149
			c-0.936-0.485-1.258-1.028-1.244-2.084c0.063-4.935,0.028-9.871,0.028-14.807c0-0.442,0-0.884,0-1.562
			c2.574,1.599,5.038,2.981,7.631,4.113c6.424,2.803,13.11,4.382,20.148,4.153c8.055-0.263,15.309-2.916,21.813-7.624
			c0.755-0.546,1.241-0.547,2.025-0.09c7.718,4.499,16.005,7.161,24.99,7.106c5.659-0.035,10.881-2.041,15.975-4.332
			c1.897-0.853,3.745-1.82,5.469-2.985c0.713-0.481,1.188-0.468,1.898,0.025c4.74,3.287,9.923,5.558,15.626,6.56
			c7.777,1.367,15.303,0.343,22.65-2.394C288.189,293.204,291.898,291.255,295.727,288.686z"/>
		<path fill="#1A80C3" d="M295.726,263.265c0,5.852-0.007,11.422,0.011,16.991c0.002,0.579-0.224,0.898-0.704,1.18
			c-5.768,3.383-11.945,5.598-18.594,6.369c-10.521,1.22-20.536-0.604-30.058-5.205c-0.421-0.204-0.739-0.314-1.237-0.028
			c-5.456,3.131-11.401,4.736-17.597,5.525c-10.637,1.355-20.689-0.677-30.289-5.268c-0.592-0.283-1.024-0.275-1.617,0.026
			c-9.075,4.604-18.702,6.673-28.859,5.999c-7.092-0.47-13.741-2.557-19.972-5.98c-0.51-0.28-0.823-0.583-0.819-1.248
			c0.031-5.525,0.024-11.05,0.034-16.576c0-0.069,0.074-0.138,0.17-0.307c3.107,2.02,6.385,3.718,9.852,5.018
			c11.487,4.31,22.863,4.56,34.053-1.025c1.905-0.951,3.739-2.04,5.426-3.337c0.788-0.606,1.351-0.641,2.241-0.126
			c7.897,4.573,16.348,7.251,25.554,7.035c4.443-0.104,8.598-1.559,12.688-3.168c2.909-1.144,5.7-2.536,8.308-4.263
			c0.614-0.407,0.985-0.313,1.534,0.069c7.949,5.542,16.763,7.981,26.419,7.084c7.936-0.737,15.196-3.501,21.901-7.769
			C294.617,263.979,295.062,263.692,295.726,263.265z"/>
		<path fill="#6DB86E" d="M234.542,227.042c0.541-0.023,1.082-0.067,1.623-0.067c13.123-0.004,26.246-0.017,39.369,0.022
			c1.123,0.003,1.495-0.211,1.583-1.438c0.738-10.326,1.881-20.599,4.788-30.586c0.974-3.345,2.135-6.629,4.081-9.56
			c1.027-1.547,2.124-3.054,3.97-3.749c5.285,4.27,8.94,9.695,11.023,16.116c2.419,7.457,0.987,14.108-4.749,19.627
			c-0.864,0.831-0.92,1.245-0.005,2.125c5.806,5.583,7.261,12.321,4.8,19.875c-1.867,5.73-5.028,10.729-9.542,14.755
			c-6.168,5.502-13.247,6.399-20.882,3.696c-5.031-1.781-9.233-4.814-13.035-8.56c-7.153-7.048-14.463-13.936-21.704-20.894
			C235.407,227.967,234.982,227.497,234.542,227.042z"/>
		<path fill="#6DB86E" d="M152.569,182.226c1.714,1.069,2.784,2.699,3.724,4.407c2.716,4.932,4.045,10.335,5.17,15.787
			c1.602,7.762,2.474,15.626,2.964,23.529c0.072,1.16,0.675,1.026,1.403,1.026c13.725-0.003,27.45-0.003,41.174,0
			c0.588,0,1.175,0.037,1.763,0.057c-8.575,8.243-17.055,16.589-25.765,24.688c-4.56,4.24-10.095,6.849-16.372,7.503
			c-4.565,0.475-8.878-0.538-12.585-3.274c-6.788-5.01-11.093-11.724-12.671-20.016c-1.241-6.524,0.992-12.021,5.746-16.532
			c0.689-0.654,0.89-0.973,0.085-1.742c-6.264-5.986-7.548-13.125-4.565-21.094C144.735,190.972,147.983,186.121,152.569,182.226z"
			/>
		<path fill="#6DB86E" d="M228.373,205.71c-0.02-0.361-0.057-0.722-0.057-1.083c-0.002-21.561-0.002-43.122,0.001-64.683
			c0-0.361,0.035-0.722,0.053-1.083c5.566-2.503,11.09-2.035,16.552,0.309c4.191,1.798,7.977,4.229,11.237,7.452
			c6.33,6.258,7.759,13.637,4.945,21.923c-1.731,5.099-4.782,9.355-8.544,13.198c-7.531,7.693-14.948,15.499-22.384,23.285
			C229.634,205.596,229.072,205.743,228.373,205.71z"/>
		<path fill="#6DB86E" d="M214.817,138.835c0.238,0.423,0.14,0.886,0.14,1.332c0.005,21.467,0.005,42.935,0.001,64.402
			c0,0.401,0.091,0.818-0.134,1.196c-0.556,0.012-1.024-0.097-1.452-0.545c-8.193-8.562-16.489-17.028-24.572-25.692
			c-4.181-4.482-6.87-9.874-7.659-16.025c-0.777-6.056,1.04-11.401,5.21-15.82c4.692-4.973,10.348-8.427,17.071-9.974
			C207.338,136.808,211.14,137.23,214.817,138.835z"/>
		<path fill="#70B970" d="M89.66,108.312c-2.995-5.781-5.969-11.573-9.006-17.332c-0.517-0.98-0.6-1.648,0.346-2.408
			c1.349-1.084,2.334-2.515,3.347-3.91c0.242-0.333,0.491-0.872,1.065-0.439c0.493,0.372,0.107,0.72-0.074,1.059
			c-0.213,0.399-0.444,0.788-0.664,1.183c-0.57,1.022-0.402,1.93,0.491,2.662c1.364,1.119,2.749,2.215,4.138,3.303
			c3.208,2.512,6.419,5.021,9.64,7.516c1.606,1.243,2.24,1.23,3.852,0.017c3.229-2.43,3.334-3.174,0.818-6.265
			c-3.201-3.932-6.418-7.851-9.626-11.778c-1.405-1.72-2.116-1.864-4.06-0.794c-0.277,0.152-0.548,0.317-0.82,0.478
			c-0.363,0.215-0.593,0.026-0.792-0.257c-0.22-0.311,0.005-0.496,0.202-0.683c0.098-0.093,0.204-0.18,0.315-0.259
			c2.583-1.841,5.037-3.841,7.351-6.012c0.279-0.262,0.591-0.712,1.024-0.32c0.475,0.43,0.074,0.795-0.208,1.157
			c-1.709,2.196-1.703,2.323,0.076,4.495c1.291,1.576,2.604,3.135,3.857,4.741c0.487,0.624,0.838,0.761,1.506,0.203
			c3.022-2.525,6.073-5.017,9.143-7.484c0.653-0.525,0.499-0.872,0.043-1.411c-1.493-1.761-2.931-3.569-4.405-5.346
			c-1.142-1.377-1.797-1.495-3.405-0.658c-0.321,0.167-0.624,0.369-0.947,0.531c-0.284,0.143-0.51,0.047-0.696-0.212
			c-0.2-0.279-0.144-0.499,0.099-0.702c0.174-0.145,0.342-0.3,0.527-0.428c2.541-1.751,4.876-3.752,7.138-5.844
			c0.29-0.268,0.606-0.829,1.118-0.337c0.485,0.466,0.029,0.786-0.251,1.135c-1.902,2.367-1.884,2.596,0.058,4.956
			c3.338,4.055,6.655,8.128,9.993,12.183c0.783,0.951,1.541,1.916,3.064,1.32c1.835-0.72,2.583-1.518,2.621-3.359
			c0.058-2.777-0.623-5.476-1.018-8.203c-0.726-5.012-1.543-10.01-2.292-15.019c-0.08-0.537-0.393-1.258,0.31-1.59
			c0.617-0.291,0.955,0.364,1.348,0.686c5.289,4.332,10.626,8.609,15.82,13.053c2.164,1.851,4.357,1.953,6.794,0.998
			c1.459-0.571,1.854-1.96,1.072-3.655c-1.799-3.899-3.622-7.788-5.436-11.68c-0.573-1.229-1.133-2.465-1.722-3.687
			c-0.851-1.765-1.422-2.027-3.337-1.574c-0.351,0.083-0.697,0.192-1.048,0.274c-0.33,0.077-0.652,0.071-0.777-0.323
			c-0.113-0.356,0.021-0.612,0.381-0.747c0.169-0.063,0.322-0.167,0.491-0.23c2.971-1.108,5.834-2.445,8.6-3.995
			c0.341-0.191,0.777-0.658,1.176-0.071c0.469,0.69-0.232,0.842-0.584,1.103c-2.288,1.702-2.365,1.993-1.154,4.601
			c2.208,4.755,4.413,9.512,6.619,14.269c1.097,2.366,1.592,2.553,4.115,1.983c1.652-0.373,2.668-1.656,3.972-2.52
			c0.603-0.4,0.675-1.152,0.435-1.859c-1.972-5.82-3.937-11.643-5.933-17.454c-0.46-1.339-1.56-1.392-2.786-1.332
			c-0.619,0.03-1.658,0.811-1.862-0.212c-0.212-1.071,1.079-0.884,1.696-1.03c3.406-0.806,6.541-2.367,9.862-3.401
			c1.136-0.353,2.293-0.5,3.478-0.476c4.919,0.098,7.567,4.786,5.09,9.031c-0.25,0.428-0.549,0.834-0.87,1.212
			c-1.41,1.657-1.409,1.643,0.247,2.991c2.107,1.715,4.19,3.458,6.303,5.166c1.715,1.385,4.586,1.589,6.531,0.579
			c1.442-0.749,1.417-1.948,1.151-3.263c-0.845-4.164-1.69-8.329-2.539-12.492c-0.28-1.373-0.546-2.75-0.87-4.112
			c-0.397-1.663-0.927-2.062-2.652-2.101c-0.362-0.008-0.725,0.006-1.086,0.033c-0.45,0.034-0.851-0.031-0.886-0.573
			c-0.033-0.514,0.411-0.528,0.758-0.577c3.362-0.472,6.686-1.119,9.952-2.056c0.346-0.099,0.759-0.134,0.868,0.367
			c0.1,0.458-0.205,0.626-0.582,0.758c-3.128,1.093-2.974,1.806-2.352,4.855c1.065,5.227,2.137,10.452,3.211,15.677
			c0.363,1.768,0.992,2.201,2.76,1.909c0.446-0.074,0.883-0.22,1.331-0.26c4.043-0.362,6.427-2.558,7.26-6.503
			c0.098-0.463,0.115-1.126,0.844-0.952c0.705,0.169,0.391,0.776,0.383,1.25c-0.023,1.358,0.001,2.718-0.029,4.076
			c-0.014,0.611,0.121,0.796,0.771,0.574c1.186-0.405,1.812-1.115,1.688-2.417c-0.423-4.459-0.83-8.919-1.248-13.379
			c-0.135-1.442-0.281-2.882-0.427-4.323c-0.184-1.805-0.644-2.283-2.401-2.523c-0.467-0.064-1.136,0.058-1.099-0.677
			c0.038-0.758,0.727-0.522,1.171-0.54c4.345-0.175,8.665-0.629,12.96-1.276c0.876-0.132,1.077,0.133,1.25,0.861
			c0.314,1.317,0.719,2.613,1.076,3.92c0.092,0.336,0.293,0.763-0.184,0.93c-0.511,0.179-0.547-0.346-0.697-0.638
			c-1.686-3.295-4.907-4.426-8.2-2.882c-0.67,0.314-0.931,0.865-0.873,1.542c0.228,2.659,0.495,5.314,0.733,7.972
			c0.041,0.463,0.238,0.641,0.697,0.569c0.447-0.07,0.897-0.121,1.347-0.17c3.346-0.361,3.348-0.36,3.851-3.698
			c0.046-0.303-0.031-0.689,0.418-0.722c0.546-0.039,0.535,0.407,0.536,0.753c0.011,2.634,0.339,5.234,0.775,7.825
			c0.056,0.336,0.162,0.786-0.367,0.861c-0.43,0.061-0.477-0.338-0.565-0.63c-0.078-0.259-0.101-0.534-0.175-0.794
			c-0.642-2.26-1.238-2.651-3.609-2.383c-2.839,0.321-2.823,0.319-2.483,3.177c0.24,2.021,0.426,4.049,0.639,6.073
			c0.132,1.253,0.771,1.741,2.083,1.742c3.944,0.002,6.838-1.451,8.135-5.393c0.087-0.263,0.182-0.69,0.64-0.469
			c0.35,0.169,0.31,0.466,0.228,0.814c-0.392,1.672-0.787,3.345-1.098,5.033c-0.122,0.662-0.476,0.752-1.022,0.777
			c-11.11,0.505-21.997,2.442-32.794,5.023c-2.027,0.485-4.068,0.846-5.926,1.815c-0.69,0.36-1.082,0.021-1.548-0.365
			c-2.719-2.254-5.448-4.496-8.173-6.742c-1.074-0.886-2.232-1.319-3.644-0.839c-0.564,0.192-0.843,0.316-0.592,1.012
			c0.826,2.294,1.58,4.615,2.357,6.927c0.405,1.204,1.238,1.736,2.494,1.594c0.538-0.061,1.072-0.152,1.608-0.234
			c0.354-0.055,0.64,0.018,0.729,0.41c0.086,0.378-0.087,0.584-0.459,0.687c-0.522,0.144-1.029,0.342-1.552,0.485
			c-1.918,0.527-3.817,1.096-5.662,1.854c-4.291,1.763-8.355,4.032-12.624,5.808c-3.408,1.418-6.525,3.224-9.551,5.266
			c-0.315,0.212-0.69,0.569-1.054,0.078c-0.419-0.566,0.091-0.765,0.441-1.046c1.846-1.477,1.866-2.037,0.104-3.574
			c-1.365-1.19-2.777-2.327-4.118-3.542c-0.502-0.455-0.866-0.437-1.407-0.1c-1.611,1.006-3.245,1.977-4.893,2.922
			c-0.507,0.291-0.709,0.626-0.594,1.202c0.381,1.906,0.694,3.828,1.125,5.723c0.364,1.604,1.137,1.985,2.681,1.481
			c0.171-0.056,0.337-0.128,0.506-0.19c0.372-0.137,0.789-0.413,1.045,0.128c0.245,0.52-0.18,0.718-0.541,0.918
			c-1.739,0.962-3.522,1.829-5.179,2.955c-2.854,1.939-5.575,4.025-8.089,6.388c-0.308,0.289-0.628,0.983-1.198,0.431
			c-0.538-0.521,0.053-0.88,0.345-1.241c1.501-1.859,1.511-2.28,0.034-4.094c-1.43-1.755-2.894-3.483-4.291-5.264
			c-0.469-0.597-0.792-0.678-1.398-0.172c-3.024,2.523-6.068,5.023-9.137,7.492c-0.593,0.477-0.652,0.792-0.153,1.378
			c1.584,1.862,3.095,3.786,4.674,5.652c1.145,1.353,1.693,1.426,3.29,0.605c0.361-0.186,0.701-0.417,1.075-0.57
			c0.289-0.118,0.515,0.058,0.668,0.316c0.143,0.24,0.059,0.441-0.129,0.594c-0.455,0.372-0.915,0.74-1.388,1.09
			c-4.889,3.627-9.435,7.607-13.02,12.584c-0.211,0.293-0.456,0.563-0.68,0.847c-0.227,0.288-0.488,0.404-0.813,0.159
			c-0.316-0.239-0.287-0.529-0.112-0.84c0.287-0.512,0.586-1.018,0.85-1.541c0.524-1.039,0.303-1.953-0.589-2.66
			c-4.327-3.431-8.667-6.846-13.005-10.262c-0.062-0.049-0.169-0.042-0.318-0.075c-0.121,0.656,0.318,1.112,0.572,1.601
			c3.064,5.899,6.149,11.786,9.215,17.684c0.212,0.407,0.684,0.813,0.259,1.346c-0.45,0.564-0.939,0.108-1.353-0.036
			c-5.932-2.066-11.852-4.163-17.778-6.247c-0.583-0.205-1.146-0.506-1.805-0.499c0.005,0.552,0.413,0.751,0.684,1.025
			c3.245,3.288,6.498,6.567,9.754,9.845c1.809,1.821,2.463,1.836,4.473,0.231c0.353-0.282,0.666-1.114,1.289-0.428
			c0.496,0.546-0.125,0.912-0.438,1.231c-1.874,1.91-3.641,3.906-5.21,6.077c-0.247,0.342-0.512,0.863-1.071,0.444
			c-0.483-0.362-0.094-0.726,0.081-1.067c0.248-0.482,0.535-0.944,0.772-1.431c0.503-1.038,0.43-2.031-0.371-2.892
			c-4.071-4.374-8.136-8.754-12.242-13.094c-1.016-1.074-1.872-0.936-3.366,0.115c-0.512,0.36-0.976,1.545-1.684,0.794
			c-0.784-0.832,0.456-1.255,0.901-1.725c1.001-1.055,1.987-2.117,2.764-3.343c0.498-0.786,1.002-0.903,1.881-0.582
			c5.856,2.143,11.733,4.225,17.605,6.324c0.297,0.106,0.605,0.181,0.908,0.27c0.109,0.024,0.217,0.049,0.326,0.074
			C89.679,108.527,89.67,108.42,89.66,108.312z M167.247,45.303c-0.034-5.536-3.635-8.079-7.996-5.791
			c-1.408,0.739-1.669,1.299-1.181,2.859c0.526,1.68,1.113,3.342,1.689,5.006c1.192,3.443,1.474,3.547,4.824,1.823
			C166.228,48.354,167.32,47.141,167.247,45.303z M125.553,59.815c-0.1,0.046-0.2,0.093-0.3,0.139c0.5,2.781,1,5.562,1.501,8.343
			c0.084,0.464,0.318,0.623,0.754,0.361c1.629-0.979,3.259-1.957,4.981-2.991C130.075,63.63,127.814,61.723,125.553,59.815z"/>
		<path fill="#6DB86E" d="M208.776,210.047c-10.719,0.015-21.437,0.023-32.156,0.059c-0.733,0.002-0.904-0.291-0.951-0.946
			c-0.669-9.337-3.08-18.215-7.107-26.656c-0.756-1.585-1.604-3.126-2.41-4.687c6.524,0.506,12.202,3.175,16.905,7.516
			c8.538,7.881,16.805,16.055,25.183,24.11C208.434,209.629,208.598,209.845,208.776,210.047z"/>
		<path fill="#6DB86E" d="M275.256,178.046c-2.455,4.588-4.624,9.294-6.167,14.282c-1.69,5.463-2.816,11.026-3.241,16.727
			c-0.052,0.693-0.179,1.056-0.999,1.053c-10.141-0.039-20.282-0.046-30.423-0.062c3.86-3.737,7.714-7.48,11.582-11.21
			c4.455-4.296,8.867-8.638,13.399-12.851C263.897,181.811,269.124,178.996,275.256,178.046z"/>
		<path fill="#70B970" d="M385.05,117.231c-4.682,2.746-9.365,5.488-14.043,8.241c-1.126,0.663-1.529,1.614-1.054,2.879
			c0.191,0.507,0.346,1.028,0.553,1.527c0.176,0.423,0.237,0.809-0.253,1.027c-0.483,0.215-0.631-0.214-0.797-0.515
			c-1.159-2.097-2.047-4.41-3.702-6.145c-2.912-3.052-5.146-6.645-8.039-9.7c-0.324-0.342-1.031-0.764-0.405-1.336
			c0.529-0.483,0.886,0.17,1.237,0.458c2.08,1.713,2.495,1.717,4.668-0.001c4.119-3.257,8.24-6.512,12.364-9.764
			c2.036-1.605,2.146-2.129,0.896-4.445c-0.064-0.119-0.138-0.234-0.213-0.347c-0.223-0.338-0.307-0.671,0.1-0.929
			c0.423-0.268,0.689,0.02,0.897,0.325c1.915,2.81,4.012,5.474,6.307,7.984c0.254,0.277,0.449,0.607,0.091,0.949
			c-0.352,0.335-0.656,0.15-0.938-0.127c-0.162-0.158-0.321-0.32-0.492-0.468c-1.736-1.505-2.282-1.53-4.109-0.096
			c-4.345,3.41-8.686,6.825-13.014,10.257c-1.988,1.577-1.796,3.666,0.352,4.966c0.559,0.338,0.957,0.945,1.422,1.435
			c0.894,0.943,1.924,1.158,3.068,0.521c5.137-2.86,10.271-5.726,15.397-8.606c1.091-0.613,1.454-1.575,1.093-2.773
			c-0.182-0.604-0.43-1.189-0.654-1.78c-0.153-0.405-0.06-0.735,0.344-0.893c0.393-0.153,0.575,0.159,0.717,0.448
			c0.799,1.626,1.661,3.211,2.804,4.63c0.404,0.502,0.123,1.031-0.033,1.547c-2.188,7.221-4.374,14.442-6.556,21.665
			c-0.167,0.553-0.292,1.118-0.464,1.784c0.659,0.079,1.021-0.303,1.407-0.536c3.638-2.202,7.267-4.42,10.896-6.638
			c2.132-1.302,2.371-2.01,1.485-4.358c-0.128-0.338-0.276-0.669-0.394-1.01c-0.11-0.317,0.077-0.527,0.326-0.664
			c0.288-0.158,0.52-0.042,0.684,0.225c0.118,0.192,0.245,0.381,0.346,0.582c1.191,2.395,2.558,4.682,4.146,6.838
			c0.241,0.327,0.743,0.723,0.213,1.155c-0.493,0.401-0.792-0.058-1.111-0.392c-2.187-2.288-2.474-2.324-5.187-0.74
			c-5.547,3.24-11.092,6.481-16.643,9.714c-0.403,0.235-0.837,0.783-1.31,0.338c-0.394-0.371-0.116-0.928,0.032-1.408
			c2.514-8.165,5.022-16.331,7.529-24.498c0.106-0.345,0.177-0.7,0.264-1.05c0.025-0.103,0.051-0.206,0.076-0.308
			C385.254,117.21,385.152,117.22,385.05,117.231z"/>
		<path fill="#1F82C3" d="M207.797,419.209c1.462-2.346,2.788-4.497,4.143-6.631c0.273-0.43,0.287-0.803,0.098-1.259
			c-1.154-2.796-2.292-5.599-3.431-8.402c-0.478-1.177-1.136-2.165-2.487-2.46c-0.381-0.083-0.702-0.247-0.606-0.723
			c0.109-0.542,0.556-0.405,0.874-0.344c2.326,0.447,4.674,0.477,7.028,0.448c0.433-0.005,0.999-0.109,1.045,0.549
			c0.044,0.625-0.505,0.483-0.878,0.562c-1.638,0.347-1.931,0.804-1.343,2.344c0.656,1.72,1.399,3.406,2.235,5.424
			c1.126-1.895,2.174-3.501,3.056-5.194c0.597-1.145,0.125-1.945-1.17-2.355c-0.41-0.13-1.019-0.057-0.864-0.746
			c0.127-0.566,0.658-0.399,1.026-0.346c2.065,0.299,4.138,0.427,6.223,0.371c0.35-0.009,0.78-0.063,0.803,0.474
			c0.017,0.392-0.247,0.558-0.604,0.58c-2.089,0.124-3.126,1.624-4.117,3.165c-1.076,1.674-2.121,3.367-3.181,5.051
			c-0.244,0.388-0.475,0.757-0.264,1.257c1.172,2.785,2.329,5.577,3.578,8.574c1.17-2.269,2.252-4.342,3.311-6.428
			c1.35-2.66,2.688-5.326,4.017-7.996c0.979-1.967,0.758-2.56-1.292-3.445c-0.292-0.126-0.453-0.258-0.446-0.572
			c0.009-0.441,0.309-0.519,0.649-0.485c0.718,0.073,1.435,0.168,2.151,0.265c1.392,0.189,2.786,0.171,4.185,0.112
			c0.337-0.014,0.794-0.053,0.862,0.438c0.066,0.48-0.336,0.629-0.698,0.656c-1.922,0.14-2.77,1.545-3.539,3.007
			c-3.113,5.919-6.195,11.855-9.314,17.771c-0.299,0.568-0.39,1.542-1.15,1.517c-0.859-0.029-0.858-1.048-1.119-1.682
			c-1.186-2.882-2.333-5.78-3.532-8.768c-0.833,0.817-1.297,1.79-1.874,2.674c-1.334,2.046-2.625,4.119-3.945,6.174
			c-0.234,0.364-0.35,0.917-0.907,0.901c-0.652-0.019-0.687-0.63-0.848-1.078c-2.176-6.033-4.343-12.069-6.519-18.101
			c-0.276-0.765-0.563-1.527-0.887-2.272c-0.534-1.228-1.427-2.073-2.748-2.417c-0.42-0.109-1.047-0.059-0.972-0.693
			c0.094-0.793,0.795-0.444,1.199-0.394c2.696,0.332,5.395,0.558,8.115,0.516c0.329-0.005,0.769-0.092,0.793,0.474
			c0.021,0.501-0.317,0.535-0.697,0.623c-2.056,0.478-2.374,1.077-1.657,3.067C203.966,408.593,205.836,413.773,207.797,419.209z"/>
		<path fill="#70B970" d="M337.846,90.955c0.049,1.047,0.828,1.666,1.42,2.392c0.273,0.335,0.815,0.624,0.386,1.122
			c-0.432,0.501-0.814,0.05-1.148-0.233c-2.422-2.046-4.94-3.96-7.63-5.645c-0.335-0.21-0.794-0.424-0.504-0.937
			c0.332-0.587,0.765-0.225,1.163-0.042c2.43,1.118,2.649,1.065,4.25-1.082c1.298-1.741,2.574-3.499,3.893-5.223
			c0.418-0.547,0.579-0.888-0.119-1.393c-3.227-2.332-6.423-4.707-9.6-7.108c-0.583-0.441-0.872-0.353-1.267,0.194
			c-1.43,1.981-2.909,3.926-4.345,5.902c-1.031,1.418-0.984,2.006,0.179,3.344c0.236,0.272,0.514,0.509,0.741,0.788
			c0.225,0.277,0.244,0.588-0.035,0.849c-0.241,0.225-0.498,0.142-0.738-0.023c-0.149-0.103-0.301-0.204-0.436-0.323
			c-2.311-2.043-4.811-3.828-7.396-5.504c-0.328-0.213-0.969-0.374-0.672-0.984c0.336-0.69,0.835-0.263,1.263-0.063
			c2.603,1.213,2.97,1.106,4.698-1.241c3.14-4.262,6.298-8.511,9.443-12.769c1.347-1.824,1.303-2.478-0.245-4.112
			c-0.062-0.066-0.14-0.121-0.189-0.195c-0.243-0.368-0.997-0.595-0.479-1.193c0.58-0.67,0.932,0.105,1.342,0.34
			c0.31,0.178,0.578,0.435,0.847,0.676c1.998,1.785,4.219,3.263,6.453,4.727c0.379,0.248,1.022,0.487,0.571,1.128
			c-0.387,0.55-0.804,0.073-1.179-0.106c-2.226-1.067-2.552-1-4.062,1.003c-1.307,1.734-2.563,3.508-3.894,5.223
			c-0.482,0.621-0.396,0.949,0.218,1.396c3.18,2.32,6.346,4.66,9.481,7.041c0.639,0.486,0.947,0.372,1.373-0.223
			c1.343-1.876,2.745-3.71,4.099-5.578c1.143-1.578,1.105-2.089-0.171-3.558c-0.178-0.205-0.366-0.402-0.564-0.587
			c-0.303-0.284-0.446-0.583-0.107-0.926c0.293-0.296,0.578-0.158,0.837,0.064c2.548,2.18,5.234,4.172,8.064,5.971
			c0.341,0.217,0.566,0.479,0.309,0.887c-0.26,0.412-0.558,0.252-0.926,0.096c-3.18-1.346-3.181-1.336-5.202,1.398
			c-3.066,4.148-6.138,8.291-9.2,12.441C338.316,89.507,337.806,90.11,337.846,90.955z"/>
		<path fill="#1F82C3" d="M77.273,322.816c-0.064-1.036-0.35-1.655-0.609-2.279c-0.131-0.315-0.235-0.608,0.121-0.824
			c0.428-0.261,0.684-0.003,0.864,0.348c1.43,2.782,3.122,5.402,4.911,7.962c0.194,0.277,0.32,0.564-0.016,0.831
			c-0.399,0.318-0.646,0.067-0.902-0.23c-0.325-0.376-0.657-0.75-1.017-1.092c-0.786-0.746-1.665-0.868-2.6-0.29
			c-4.734,2.924-9.465,5.853-14.197,8.781c-1.023,0.633-1.369,1.518-0.973,2.667c0.132,0.384,0.286,0.76,0.428,1.14
			c0.141,0.378,0.384,0.781-0.172,1.035c-0.49,0.223-0.615-0.206-0.814-0.487c-0.078-0.111-0.153-0.226-0.215-0.346
			c-1.281-2.502-2.756-4.882-4.399-7.163c-0.231-0.321-0.771-0.701-0.254-1.152c0.498-0.435,0.792,0.073,1.107,0.381
			c1.814,1.775,1.893,1.79,4.028,0.49c1.739-1.059,3.449-2.166,5.206-3.194c0.672-0.394,0.703-0.703,0.293-1.35
			c-1.96-3.096-3.887-6.213-5.769-9.357c-0.434-0.725-0.757-0.625-1.352-0.242c-1.787,1.151-3.618,2.234-5.423,3.358
			c-1.76,1.095-1.87,1.489-1.188,3.439c0.143,0.408,0.715,0.949,0.053,1.308c-0.77,0.418-0.881-0.413-1.097-0.824
			c-1.305-2.491-2.832-4.84-4.429-7.149c-0.228-0.329-0.749-0.704-0.201-1.153c0.557-0.456,0.788,0.147,1.074,0.435
			c1.925,1.935,2.206,1.968,4.509,0.54c4.19-2.599,8.386-5.189,12.578-7.786c1.916-1.187,2.074-1.673,1.255-3.777
			c-0.098-0.252-0.219-0.497-0.3-0.755c-0.093-0.295,0.009-0.52,0.29-0.675c0.319-0.176,0.51-0.008,0.675,0.227
			c0.129,0.185,0.249,0.379,0.352,0.579c1.286,2.499,2.759,4.881,4.401,7.163c0.247,0.343,0.856,0.792,0.202,1.25
			c-0.529,0.371-0.777-0.197-1.071-0.516c-1.49-1.621-1.902-1.68-3.816-0.512c-1.738,1.06-3.463,2.14-5.203,3.197
			c-0.507,0.308-0.817,0.533-0.377,1.222c1.97,3.089,3.895,6.208,5.785,9.347c0.433,0.72,0.775,0.811,1.476,0.352
			c1.816-1.189,3.688-2.292,5.52-3.458C76.653,323.847,77.348,323.424,77.273,322.816z"/>
		<path fill="#70B970" d="M400.679,145.126c-0.637-0.159-1.142,0.219-1.664,0.418c-4.306,1.645-8.6,3.32-12.899,4.983
			c-2.259,0.874-2.551,1.439-2.136,3.785c0.095,0.537,0.703,1.384-0.188,1.633c-0.898,0.251-0.835-0.798-0.998-1.301
			c-0.779-2.416-1.74-4.75-2.85-7.029c-0.191-0.393-0.523-0.865,0.043-1.182c0.61-0.342,0.746,0.272,0.98,0.62
			c1.715,2.562,1.992,2.655,4.888,1.615c4.762-1.708,9.523-3.418,14.287-5.122c2.577-0.922,2.927-1.541,2.391-4.251
			c-0.096-0.485-0.566-1.146,0.272-1.342c0.829-0.194,0.713,0.664,0.855,1.095c0.453,1.376,0.858,2.768,1.649,3.998
			c0.467,0.726,0.229,1.342-0.11,2.026c-3.454,6.965-6.89,13.939-10.327,20.913c-0.17,0.344-0.304,0.705-0.577,1.344
			c2.023-0.803,3.768-1.491,5.508-2.189c2.684-1.077,5.365-2.162,8.047-3.244c2.18-0.88,2.534-1.524,2.104-3.84
			c-0.058-0.311-0.111-0.624-0.2-0.927c-0.115-0.394-0.122-0.731,0.358-0.853c0.465-0.118,0.645,0.193,0.774,0.56
			c0.075,0.213,0.158,0.424,0.226,0.64c0.759,2.419,1.672,4.773,2.824,7.036c0.194,0.381,0.719,0.906,0.056,1.29
			c-0.655,0.379-0.826-0.275-1.077-0.676c-1.493-2.385-2.031-2.576-4.653-1.582c-6.082,2.305-12.159,4.622-18.244,6.918
			c-0.429,0.162-0.92,0.643-1.355,0.215c-0.5-0.492-0.014-1.016,0.216-1.477c3.771-7.567,7.555-15.128,11.326-22.695
			C400.416,146.081,400.783,145.696,400.679,145.126z"/>
		<path fill="#70B970" d="M79.3,129.199c0.048,7.38-6.298,14.143-13.317,14.191c-7.152,0.05-13.732-6.254-13.672-13.282
			c0.055-6.478,5.326-13.834,13.117-13.831C72.989,116.28,79.254,122.075,79.3,129.199z M67.334,140.078
			c7.77,0.027,11.932-6.473,9.029-12.476c-2.319-4.795-9.03-8.563-14.351-8.059c-5.872,0.557-9.468,6.538-6.921,11.844
			C57.728,136.88,62.494,139.396,67.334,140.078z"/>
		<path fill="#1F82C3" d="M31.489,266.521c0.011,0.142,0.031,0.412,0.051,0.683c0.023,0.314-0.123,0.534-0.419,0.603
			c-0.379,0.088-0.593-0.099-0.658-0.481c-0.189-1.113-0.335-2.236-0.59-3.334c-0.449-1.934-0.976-3.849-1.448-5.778
			c-0.1-0.407-0.386-0.951,0.226-1.169c0.658-0.234,0.669,0.395,0.84,0.785c0.987,2.254,1.436,2.51,3.829,1.987
			c4.983-1.088,9.962-2.197,14.938-3.318c1.858-0.419,2.199-0.894,2.178-2.829c-0.004-0.362-0.046-0.723-0.039-1.084
			c0.007-0.318,0.239-0.486,0.517-0.539c0.342-0.066,0.478,0.179,0.535,0.465c0.123,0.62,0.276,1.238,0.345,1.865
			c0.376,3.428,1.804,6.623,2.204,10.044c0.441,3.772-1.274,6.537-4.573,7.21c-2.595,0.529-4.454-0.814-5.954-2.695
			c-0.611-0.766-0.974-0.821-1.642-0.147c-2.135,2.151-4.311,4.262-6.464,6.396c-1.062,1.053-1.131,2.402-1.107,3.785
			c0.008,0.451,0.238,1.117-0.519,1.175c-0.7,0.054-0.544-0.623-0.603-1.006c-0.256-1.654-0.511-3.311-1.13-4.872
			c-0.275-0.695,0.15-1,0.53-1.374c2.324-2.283,4.644-4.57,6.981-6.84c0.925-0.899,1.508-1.894,1.285-3.25
			c-0.111-0.677-0.397-0.94-1.094-0.778c-2.154,0.501-4.326,0.933-6.469,1.475C31.754,263.875,31.443,264.478,31.489,266.521z
			 M52.6,263.583c-0.04-0.25-0.087-0.793-0.217-1.317c-0.614-2.479-1.113-2.775-3.625-2.225c-1.41,0.309-2.824,0.604-4.235,0.909
			c-3.108,0.67-3.144,0.736-2.135,3.884c0.701,2.186,1.871,3.282,3.93,3.328c1.627,0.036,3.236-0.288,4.651-1.21
			C52.084,266.227,52.628,265.201,52.6,263.583z"/>
		<path fill="#1F82C3" d="M170.116,415.366c2.119,0.085,2.682-0.312,3.124-2.204c1.191-5.101,2.366-10.206,3.528-15.314
			c0.434-1.909,0.136-2.442-1.675-3.245c-0.083-0.037-0.166-0.072-0.245-0.115c-0.398-0.214-1.161-0.199-0.861-0.922
			c0.265-0.639,0.862-0.258,1.301-0.136c2.306,0.639,4.598,1.333,6.974,1.687c1.296,0.193,2.582,0.433,3.826,0.862
			c0.99,0.341,1.924,0.78,2.763,1.414c3.302,2.494,3.091,7.071-0.441,9.2c-0.499,0.301-1.043,0.547-1.594,0.737
			c-2.006,0.692-2.017,0.681-1.349,2.655c0.709,2.096,1.519,4.163,2.122,6.289c0.552,1.945,1.656,3.264,3.533,3.98
			c0.39,0.149,0.99,0.266,0.75,0.9c-0.25,0.66-0.761,0.272-1.151,0.148c-1.595-0.51-3.202-0.974-4.878-1.105
			c-0.698-0.055-0.856-0.492-1.038-1.042c-0.993-2.999-2.012-5.99-3.032-8.98c-0.451-1.322-1.056-2.477-2.59-2.88
			c-0.642-0.169-0.918-0.072-1.056,0.558c-0.505,2.294-1.009,4.588-1.544,6.875c-0.194,0.828,0.117,1.435,0.744,1.882
			c0.472,0.337,1.017,0.577,1.541,0.836c0.351,0.173,0.88,0.213,0.755,0.771c-0.159,0.706-0.737,0.406-1.11,0.297
			c-2.734-0.795-5.477-1.529-8.302-1.95c-0.475-0.071-1.416,0.125-1.34-0.749C168.955,414.825,169.848,415.635,170.116,415.366z
			 M187.413,401.053c0.052-2.904-1.527-4.341-4.716-4.591c-1.226-0.096-1.982,0.302-2.263,1.557
			c-0.542,2.414-1.126,4.819-1.703,7.225c-0.091,0.38-0.117,0.611,0.335,0.851c4.041,2.146,7.763,0.224,8.279-4.311
			C187.381,401.472,187.404,401.157,187.413,401.053z"/>
		<path fill="#1F82C3" d="M308.578,388.238c0.038,1.994-0.834,3.461-1.965,4.792c-0.427,0.502-0.439,0.719,0.154,1.093
			c2.563,1.618,5.101,3.275,7.624,4.954c1.372,0.913,2.803,0.841,4.299,0.459c0.392-0.1,0.92-0.506,1.173,0.138
			c0.295,0.747-0.431,0.782-0.841,0.932c-1.49,0.545-2.969,1.122-4.278,2.023c-0.659,0.454-1.12,0.271-1.695-0.112
			c-2.75-1.829-5.52-3.627-8.283-5.436c-1.086-0.711-2.202-0.976-3.453-0.381c-0.493,0.234-0.732,0.394-0.443,0.985
			c1.032,2.111,2.01,4.248,3.02,6.371c0.483,1.016,1.31,1.311,2.368,1.057c0.483-0.116,0.962-0.247,1.443-0.371
			c0.344-0.088,0.652-0.039,0.78,0.33c0.132,0.38-0.114,0.584-0.43,0.724c-0.165,0.073-0.326,0.159-0.495,0.222
			c-2.718,1.008-5.329,2.242-7.855,3.665c-0.344,0.193-0.788,0.691-1.179,0.144c-0.449-0.628,0.191-0.843,0.569-1.126
			c1.986-1.483,2.099-1.842,1.072-4.062c-2.087-4.512-4.2-9.012-6.298-13.518c-1.059-2.275-1.418-2.454-3.883-1.859
			c-0.42,0.102-0.905,0.466-1.163-0.158c-0.282-0.68,0.397-0.733,0.754-0.865c3.19-1.177,6.149-2.841,9.201-4.309
			c1.399-0.673,2.877-1.028,4.456-0.994C306.336,383.003,308.607,385.293,308.578,388.238z M305.561,390.619
			c0.011-1.764-1.529-4.679-3.159-5.482c-1.839-0.907-3.415-0.085-4.96,0.843c-1.059,0.636-1.379,1.464-0.809,2.628
			c0.755,1.542,1.453,3.112,2.171,4.671c1.378,2.994,1.561,3.057,4.422,1.281C304.544,393.741,305.575,392.702,305.561,390.619z"/>
		<path fill="#1F82C3" d="M149.983,390.875c-0.048,6.334-5.054,11.619-11.301,11.784c-2.674,0.071-5.167-0.802-7.486-2.11
			c-3.268-1.844-6.545-3.669-9.922-5.309c-0.326-0.158-0.928-0.211-0.709-0.782c0.221-0.576,0.705-0.352,1.158-0.222
			c2.578,0.739,2.85,0.602,4.129-1.824c2.256-4.278,4.528-8.548,6.788-12.824c1.198-2.267,1.13-2.589-0.842-4.212
			c-0.14-0.115-0.283-0.226-0.43-0.331c-0.318-0.228-0.363-0.494-0.125-0.807c0.213-0.28,0.447-0.229,0.706-0.066
			c4.135,2.607,8.812,4.245,12.824,7.047C148.076,383.524,149.85,386.79,149.983,390.875z M146.584,388.909
			c-0.007-2.667-0.93-5.018-2.602-6.618c-1.536-1.47-3.494-2.225-5.375-3.084c-0.867-0.396-1.679-0.067-2.162,0.845
			c-2.722,5.146-5.456,10.285-8.166,15.437c-0.524,0.996-0.284,1.84,0.72,2.413c1.096,0.627,2.175,1.289,3.301,1.857
			c1.706,0.861,3.522,1.111,5.396,0.685C142.82,399.278,146.598,394.362,146.584,388.909z"/>
		<path fill="#1F82C3" d="M400.795,305.883c-4.522-2.331-8.8-4.572-13.115-6.738c-1.39-0.698-2.259,0.268-3.103,1.232
			c-0.364,0.416-0.55,1.487-1.318,0.994c-0.866-0.555,0.078-1.214,0.364-1.682c1.206-1.974,2.218-4.037,3.149-6.148
			c0.163-0.369,0.248-1.016,0.891-0.744c0.602,0.254,0.27,0.78,0.157,1.186c-0.756,2.699-0.632,3.02,1.874,4.381
			c5.203,2.826,10.416,5.634,15.61,8.478c0.474,0.26,1.33,0.326,1.257,1.028c-0.073,0.705-0.914,0.639-1.448,0.774
			c-7.661,1.949-15.329,3.871-22.994,5.801c-0.393,0.099-0.784,0.21-1.181,0.316c0.032,0.498,0.471,0.529,0.748,0.679
			c4.093,2.218,8.194,4.421,12.3,6.616c1.762,0.942,2.458,0.783,3.708-0.792c0.197-0.248,0.386-0.502,0.577-0.755
			c0.208-0.276,0.464-0.471,0.805-0.262c0.344,0.21,0.285,0.531,0.123,0.833c-0.192,0.359-0.386,0.718-0.605,1.061
			c-1.195,1.874-2.161,3.863-3.037,5.902c-0.167,0.39-0.26,0.998-0.883,0.79c-0.651-0.218-0.297-0.749-0.19-1.151
			c0.734-2.755,0.627-2.995-1.873-4.41c-4.171-2.359-8.334-4.732-12.501-7.099c-1.999-1.135-2.704-1-4.147,0.803
			c-0.17,0.212-0.33,0.431-0.491,0.65c-0.213,0.289-0.45,0.439-0.797,0.191c-0.338-0.242-0.294-0.52-0.097-0.819
			c0.948-1.437,1.792-2.926,2.387-4.55c0.228-0.621,0.842-0.601,1.353-0.732c7.087-1.817,14.175-3.632,21.262-5.451
			C399.886,306.187,400.184,306.077,400.795,305.883z"/>
		<path fill="#1F82C3" d="M115.399,384.685c1.622-2.132,3.059-4.017,4.492-5.906c1.34-1.766,2.693-3.522,4.006-5.308
			c1.111-1.512,1.051-2.31-0.184-3.725c-0.238-0.273-0.483-0.54-0.738-0.797c-0.284-0.286-0.459-0.569-0.101-0.923
			c0.322-0.318,0.582-0.103,0.823,0.105c2.089,1.805,4.241,3.528,6.583,5.002c0.265,0.167,0.547,0.358,0.294,0.756
			c-0.261,0.411-0.566,0.363-0.919,0.138c-0.19-0.121-0.398-0.214-0.6-0.315c-1.995-0.989-2.622-0.85-4.032,0.936
			c-3.84,4.865-7.67,9.737-11.516,14.597c-0.258,0.326-0.4,0.954-0.972,0.771c-0.588-0.188-0.47-0.795-0.508-1.282
			c-0.648-8.379-1.299-16.759-1.95-25.149c-0.495-0.089-0.599,0.345-0.798,0.598c-2.822,3.593-5.634,7.195-8.445,10.796
			c-1.444,1.85-1.416,2.485,0.168,4.21c0.184,0.2,0.397,0.376,0.56,0.59c0.215,0.283,0.234,0.589-0.052,0.849
			c-0.261,0.237-0.505,0.107-0.72-0.078c-2.128-1.83-4.318-3.578-6.698-5.076c-0.305-0.192-0.462-0.462-0.231-0.795
			c0.228-0.329,0.536-0.215,0.851-0.102c3.29,1.181,3.281,1.17,5.51-1.572c2.883-3.545,5.79-7.071,8.675-10.615
			c1.361-1.672,1.332-2.388-0.097-4.003c-0.24-0.271-0.51-0.516-0.734-0.798c-0.194-0.243-0.147-0.496,0.065-0.729
			c0.245-0.268,0.501-0.191,0.709,0.005c1.321,1.246,2.751,2.343,4.301,3.29c0.367,0.224,0.266,0.646,0.295,0.994
			c0.443,5.225,0.88,10.45,1.316,15.675C114.962,379.331,115.165,381.836,115.399,384.685z"/>
		<path fill="#1F82C3" d="M356.885,345.167c6.622,0.016,12.543,5.909,12.534,12.474c-0.01,6.703-6.28,12.963-12.988,12.967
			c-6.475,0.004-12.549-6.24-12.444-12.792C344.095,351.066,350.127,345.151,356.885,345.167z M354.286,347.583
			c-4.354-0.011-7.821,3.472-7.798,7.837c0.028,5.354,5.682,11.832,10.99,12.589c4.556,0.65,8.44-2.012,9.371-6.43
			c0.247-1.173,0.124-2.333-0.134-3.493C365.519,352.727,359.457,347.597,354.286,347.583z"/>
		<path fill="#70B970" d="M283.57,48.773c-0.011,6.21-4.349,10.827-10.135,10.785c-6.305-0.046-11.114-4.483-11.105-10.246
			c0.009-6.13,4.656-11.045,10.392-10.992C279.015,38.378,283.581,42.778,283.57,48.773z M279.324,46.762
			c-0.046-0.569-0.035-1.349-0.185-2.096c-0.418-2.077-1.447-3.71-3.597-4.354c-2.07-0.619-3.903-0.063-5.302,1.509
			c-2.833,3.182-3.883,7.003-3.432,11.182c0.259,2.397,1.586,4.081,4.072,4.664c2.453,0.576,4.22-0.501,5.62-2.351
			C278.36,52.856,279.057,49.98,279.324,46.762z"/>
		<path fill="#70B970" d="M344.32,97.034c0.018-2.6,1.132-4.719,2.917-6.514c2.84-2.856,5.713-5.68,8.566-8.524
			c1.527-1.522,1.589-2.199,0.399-4.009c-0.174-0.264-0.382-0.507-0.547-0.776c-0.193-0.315-0.143-0.616,0.17-0.827
			c0.27-0.182,0.528-0.081,0.727,0.133c0.462,0.496,0.926,0.992,1.36,1.512c1.716,2.057,3.733,3.812,5.649,5.669
			c0.296,0.287,1.02,0.551,0.462,1.171c-0.455,0.506-0.804-0.001-1.155-0.237c-2.377-1.595-2.746-1.564-4.737,0.412
			c-2.57,2.551-5.143,5.098-7.707,7.656c-0.48,0.479-0.948,0.975-1.371,1.503c-2.899,3.624-2.653,6.746,0.762,9.877
			c2.356,2.161,4.904,2.458,7.724,0.902c0.957-0.528,1.834-1.172,2.612-1.932c2.883-2.813,5.742-5.65,8.62-8.467
			c1.022-1.001,1.205-2.073,0.383-3.277c-0.255-0.373-0.498-0.755-0.762-1.122c-0.22-0.306-0.454-0.598-0.052-0.929
			c0.379-0.311,0.66-0.108,0.927,0.182c1.103,1.196,2.186,2.412,3.321,3.577c0.693,0.711,1.474,1.337,2.205,2.012
			c0.277,0.256,0.51,0.543,0.179,0.927c-0.34,0.396-0.62,0.132-0.937-0.058c-2.998-1.798-2.987-1.782-5.448,0.641
			c-2.773,2.73-5.51,5.501-8.382,8.123c-2.069,1.889-4.554,3.001-7.449,2.533C348.282,106.469,344.258,101.571,344.32,97.034z"/>
		<path fill="#70B970" d="M254.231,40.87c1.406,0.138,2.25-0.536,2.727-1.785c0.161-0.422,0.337-0.84,0.463-1.272
			c0.106-0.36,0.304-0.558,0.677-0.507c0.416,0.058,0.46,0.375,0.429,0.714c-0.021,0.225-0.037,0.454-0.092,0.671
			c-0.588,2.286-0.888,4.612-1.019,6.966c-0.025,0.445,0.129,1.123-0.654,1.092c-0.668-0.026-0.531-0.61-0.564-1.038
			c-0.226-2.924-0.775-3.506-3.642-3.841c-0.18-0.021-0.362-0.024-0.541-0.046c-2.653-0.33-2.639-0.329-2.986,2.391
			c-0.217,1.704-0.462,3.406-0.728,5.103c-0.34,2.159,0.033,2.802,2.138,3.542c0.255,0.09,0.523,0.144,0.777,0.234
			c0.382,0.135,0.631,0.378,0.488,0.818c-0.131,0.402-0.453,0.357-0.783,0.298c-1.957-0.349-3.911-0.728-5.876-1.023
			c-1.385-0.208-2.787-0.302-4.181-0.443c-0.416-0.042-0.861-0.052-0.801-0.655c0.052-0.519,0.452-0.469,0.817-0.47
			c0.226,0,0.452-0.006,0.678-0.017c2.091-0.104,2.658-0.529,2.968-2.578c0.872-5.766,1.689-11.541,2.518-17.314
			c0.146-1.013-0.268-1.774-1.171-2.237c-0.44-0.225-0.917-0.381-1.382-0.553c-0.441-0.163-1.118-0.142-0.9-0.884
			c0.189-0.644,0.775-0.335,1.156-0.262c3.51,0.672,7.034,1.245,10.581,1.685c1.93,0.239,3.857,0.518,5.793,0.68
			c0.772,0.064,1.115,0.242,1.144,1.083c0.047,1.399,0.237,2.793,0.35,4.19c0.027,0.334,0.18,0.785-0.375,0.847
			c-0.445,0.049-0.623-0.247-0.705-0.654c-0.607-3.007-2.622-4.384-5.512-4.749c-1.076-0.136-2.146-0.332-3.225-0.431
			c-0.991-0.091-1.723,0.395-1.888,1.373c-0.445,2.629-0.791,5.273-1.209,7.907c-0.077,0.488,0.181,0.513,0.51,0.561
			C251.55,40.465,252.89,40.669,254.231,40.87z"/>
		<path fill="#70B970" d="M322.783,58.07c0.236-2.483-0.997-4.113-3.025-5.326c-3.472-2.075-3.486-2.101-5.323,1.44
			c-2.351,4.534-4.671,9.084-6.983,13.637c-1.257,2.476-1.157,2.855,0.992,4.536c0.178,0.139,0.377,0.253,0.543,0.404
			c0.234,0.213,0.235,0.468,0.068,0.731c-0.147,0.231-0.367,0.254-0.592,0.182c-0.213-0.069-0.424-0.162-0.616-0.278
			c-2.752-1.659-5.608-3.112-8.561-4.38c-0.372-0.16-0.987-0.262-0.756-0.906c0.23-0.641,0.706-0.33,1.136-0.211
			c2.788,0.772,3.154,0.637,4.484-1.946c2.648-5.143,5.26-10.305,7.891-15.458c0.303-0.594,0.525-1.135-0.097-1.704
			c-2.05-1.878-6.342-2.544-8.835-1.308c-0.521,0.258-0.988,0.63-1.466,0.968c-0.288,0.204-0.569,0.314-0.847,0.03
			c-0.306-0.312-0.103-0.568,0.133-0.811c1.261-1.297,2.534-2.583,3.77-3.904c0.368-0.394,0.633-0.332,1.04-0.079
			c6.083,3.766,12.439,7.004,19.044,9.751c0.631,0.262,0.667,0.542,0.471,1.125c-0.49,1.454-0.887,2.939-1.36,4.399
			c-0.124,0.381-0.041,1.053-0.702,0.972c-0.739-0.091-0.498-0.718-0.477-1.189C322.727,58.52,322.76,58.296,322.783,58.07z"/>
		<path fill="#70B970" d="M40.012,154.587c0.048-1.828,0.505-3.947,1.438-5.929c0.923-1.962,1.979-3.86,2.944-5.803
			c0.25-0.504,0.524-0.594,1.059-0.449c1.569,0.424,3.157,0.773,4.733,1.171c0.328,0.083,0.767,0.114,0.696,0.646
			c-0.065,0.487-0.439,0.55-0.811,0.503c-5.477-0.683-10.749,6.104-7.369,12.66c2.74,5.313,9.552,8.403,15.297,6.883
			c7.076-1.872,9.577-9.673,4.938-15.343c-0.35-0.428-1.304-0.844-0.689-1.498c0.58-0.617,1.093,0.284,1.58,0.568
			c1.132,0.659,2.198,1.429,3.306,2.13c0.465,0.294,0.708,0.579,0.547,1.203c-0.564,2.186-0.955,4.422-1.604,6.581
			c-1.541,5.122-4.505,9.017-9.986,10.235C47.746,169.999,39.936,163.526,40.012,154.587z"/>
		<path fill="#1F82C3" d="M78.369,356.468c0.069-2.146,1.161-4.222,2.944-5.96c2.657-2.591,5.339-5.157,8.007-7.737
			c1.534-1.483,1.589-1.943,0.467-3.726c-0.145-0.23-0.309-0.447-0.452-0.677c-0.186-0.298-0.225-0.587,0.086-0.841
			c0.353-0.288,0.575-0.031,0.807,0.187c0.066,0.062,0.126,0.13,0.184,0.2c1.903,2.309,3.954,4.475,6.193,6.465
			c0.291,0.259,0.906,0.529,0.511,1.073c-0.46,0.633-0.858,0.073-1.242-0.193c-2.055-1.424-2.485-1.409-4.31,0.345
			c-2.708,2.603-5.393,5.23-8.081,7.854c-0.291,0.283-0.558,0.595-0.806,0.917c-3.273,4.254-0.992,9.96,4.354,10.779
			c1.851,0.284,3.456-0.552,4.898-1.619c2.191-1.62,3.981-3.688,5.99-5.513c1.072-0.974,2.081-2.016,3.122-3.022
			c1.472-1.423,1.552-2.042,0.457-3.767c-0.169-0.267-0.368-0.514-0.546-0.776c-0.219-0.323-0.135-0.604,0.156-0.827
			c0.286-0.22,0.523-0.062,0.701,0.158c1.626,2.011,3.454,3.827,5.353,5.576c0.225,0.207,0.291,0.447,0.039,0.7
			c-0.219,0.221-0.448,0.291-0.718,0.096c-0.147-0.106-0.291-0.215-0.44-0.318c-2.262-1.57-2.588-1.523-4.596,0.434
			c-2.398,2.338-4.8,4.674-7.243,6.964c-2.408,2.257-5.145,3.78-8.588,2.991C81.835,365.366,78.344,360.766,78.369,356.468z"/>
		<path fill="#1F82C3" d="M378.303,347.113c-2.047,0.082-3.798-0.712-5.402-1.881c-2.925-2.132-5.827-4.296-8.745-6.436
			c-1.963-1.439-2.444-1.402-4.212,0.188c-0.325,0.293-0.614,0.999-1.187,0.455c-0.553-0.525,0.09-0.896,0.371-1.232
			c1.86-2.224,3.597-4.536,5.141-6.992c0.245-0.389,0.509-1.034,1.126-0.621c0.532,0.356,0.059,0.823-0.115,1.2
			c-1.081,2.342-1.019,2.629,1.047,4.162c2.543,1.887,5.088,3.773,7.642,5.645c0.984,0.721,1.98,1.428,3.094,1.951
			c2.055,0.966,4.111,1.255,5.997-0.29c2.069-1.695,3.641-3.73,3.21-6.627c-0.36-2.413-2.033-3.984-3.856-5.371
			c-2.736-2.082-5.515-4.108-8.281-6.151c-1.795-1.326-2.448-1.263-4.124,0.262c-0.318,0.289-0.567,1.047-1.163,0.575
			c-0.681-0.54,0.018-0.969,0.328-1.33c1.416-1.653,2.718-3.382,3.835-5.254c0.203-0.34,0.392-0.95,1.003-0.584
			c0.607,0.364,0.139,0.801-0.03,1.17c-1.145,2.498-1.094,2.757,1.095,4.381c2.652,1.968,5.326,3.908,7.971,5.885
			c2.343,1.751,4.3,3.804,4.575,6.901C388.062,342.065,383.309,347.125,378.303,347.113z"/>
		<path fill="#1F82C3" d="M243.038,413.577c-1.15,0.133-1.912,0.239-2.677,0.305c-3.002,0.261-3.003,0.257-3.773,3.092
			c-0.272,1.002-0.57,1.998-0.803,3.008c-0.367,1.594,0.148,2.259,1.795,2.458c0.445,0.054,1.17-0.206,1.183,0.538
			c0.014,0.817-0.75,0.61-1.235,0.628c-2.169,0.078-4.34,0.096-6.473,0.589c-0.337,0.078-0.769,0.18-0.933-0.282
			c-0.162-0.454,0.137-0.662,0.54-0.744c2.152-0.44,2.894-2.116,3.457-3.945c1.796-5.827,3.59-11.655,5.384-17.483
			c0.199-0.647,0.384-1.299,0.592-1.943c0.111-0.343,0.222-0.729,0.65-0.791c0.539-0.078,0.669,0.386,0.834,0.742
			c1.142,2.459,2.268,4.925,3.406,7.387c1.611,3.486,3.273,6.948,4.824,10.46c0.878,1.987,2.143,3.327,4.426,3.43
			c0.385,0.017,0.743,0.082,0.741,0.583c-0.002,0.557-0.443,0.487-0.782,0.503c-2.936,0.136-5.865,0.329-8.774,0.779
			c-0.396,0.061-1.007,0.277-1.103-0.398c-0.097-0.69,0.541-0.577,0.947-0.669c1.917-0.433,2.218-0.957,1.478-2.725
			c-0.558-1.333-1.234-2.62-1.74-3.972C244.573,413.978,244.052,413.173,243.038,413.577z M240.109,404.163
			c-0.797,2.897-1.511,5.476-2.213,8.058c-0.172,0.633,0.256,0.65,0.692,0.614c1.435-0.117,2.87-0.24,4.304-0.363
			c0.553-0.047,0.838-0.229,0.55-0.86C242.364,409.244,241.313,406.862,240.109,404.163z"/>
		<path fill="#1F82C3" d="M326.984,373.023c0.012,6.884,6.128,12.944,12.537,12.421c4.669-0.381,8.417-5.096,7.771-9.728
			c-0.093-0.664-0.625-1.709,0.15-1.942c0.879-0.264,0.822,0.959,1.1,1.532c0.604,1.244,1.832,2.566,1.512,3.777
			c-0.299,1.134-1.807,1.928-2.725,2.925c-2.406,2.612-5.122,4.763-8.673,5.518c-6.536,1.391-12.99-2.892-14.339-9.512
			c-1.128-5.537,1.044-9.809,5.318-13.185c1.818-1.436,3.959-2.363,5.892-3.62c0.425-0.276,0.693-0.247,1.036,0.119
			c1.052,1.124,2.135,2.218,3.204,3.325c0.25,0.259,0.574,0.509,0.223,0.912c-0.278,0.319-0.542,0.144-0.842-0.007
			C332.839,362.38,326.972,365.984,326.984,373.023z"/>
		<path fill="#1F82C3" d="M403.011,295.717c-8.935-0.014-14.661-8.402-11.758-17.229c0.708-2.152,1.856-4.113,2.692-6.209
			c0.208-0.522,0.504-0.628,1.04-0.513c1.455,0.314,2.923,0.572,4.388,0.841c0.362,0.067,0.77,0.076,0.737,0.587
			c-0.033,0.506-0.437,0.505-0.805,0.495c-4.048-0.11-7.844,3.835-7.325,8.784c0.263,2.503,1.508,4.562,3.389,6.15
			c3.852,3.253,8.216,4.55,13.102,2.708c5.909-2.228,7.553-9.537,3.301-14.191c-0.404-0.442-1.463-0.852-0.844-1.562
			c0.524-0.6,1.157,0.304,1.699,0.588c1.198,0.627,2.745,1.094,3.4,2.109c0.677,1.049-0.281,2.57-0.433,3.899
			c-0.407,3.553-1.376,6.909-3.827,9.665C409.434,294.463,406.507,295.734,403.011,295.717z"/>
		<path fill="#1F82C3" d="M292.44,409.297c-0.038,3.003-0.035,3.015-2.961,3.831c-3.396,0.946-6.716,2.115-10.032,3.303
			c-0.421,0.151-0.962,0.659-1.282-0.024c-0.314-0.671,0.41-0.8,0.797-1.029c1.135-0.671,1.5-1.539,1.071-2.846
			c-1.718-5.233-3.39-10.48-5.052-15.731c-0.425-1.342-1.264-1.906-2.65-1.707c-0.472,0.068-1.087,0.277-1.186-0.463
			c-0.092-0.692,0.603-0.58,0.969-0.678c3.929-1.053,7.793-2.306,11.592-3.751c0.671-0.255,1.023-0.294,1.356,0.461
			c0.509,1.154,1.16,2.245,1.751,3.363c0.165,0.312,0.476,0.659,0.073,0.958c-0.469,0.348-0.622-0.169-0.806-0.426
			c-0.561-0.782-1.176-1.493-2.059-1.925c-1.238-0.605-5.214,0.08-6.172,1.061c-0.477,0.488-0.455,1.092-0.283,1.656
			c0.697,2.289,1.45,4.561,2.156,6.847c0.164,0.532,0.419,0.608,0.9,0.409c0.415-0.172,0.865-0.257,1.294-0.398
			c2.861-0.942,2.966-1.1,2.602-4.051c-0.045-0.363-0.228-0.755,0.312-0.852c0.44-0.079,0.503,0.31,0.571,0.605
			c0.561,2.426,1.375,4.771,2.273,7.088c0.099,0.255,0.247,0.534-0.061,0.72c-0.372,0.225-0.559-0.062-0.754-0.332
			c-2.103-2.918-2.092-2.878-5.477-1.801c-0.922,0.293-1.049,0.646-0.749,1.505c0.759,2.173,1.412,4.383,2.135,6.569
			c0.556,1.68,1.111,1.829,2.843,1.421c3.429-0.809,5.478-2.788,5.902-6.343c0.036-0.304,0.074-0.701,0.525-0.626
			c0.386,0.064,0.412,0.406,0.407,0.744C292.433,407.668,292.44,408.482,292.44,409.297z"/>
		<path fill="#1F82C3" d="M150.705,408.485c1.319,0.284,2.117-0.369,2.56-1.589c1.878-5.178,3.744-10.36,5.635-15.532
			c0.48-1.313,0.189-2.287-1.057-2.967c-0.381-0.208-0.911-0.407-0.637-1.004c0.323-0.7,0.8-0.167,1.139-0.025
			c3.755,1.574,7.57,2.981,11.467,4.156c0.76,0.229,1.024,0.481,0.804,1.32c-0.321,1.218-0.474,2.481-0.686,3.728
			c-0.054,0.316-0.053,0.715-0.459,0.711c-0.438-0.004-0.398-0.418-0.388-0.726c0.022-0.635-0.013-1.257-0.14-1.887
			c-0.286-1.413-1.112-2.348-2.414-2.884c-0.793-0.326-1.614-0.586-2.408-0.908c-1.101-0.447-1.885-0.078-2.291,0.969
			c-0.849,2.189-1.624,4.407-2.447,6.607c-0.203,0.542-0.057,0.855,0.484,1.023c0.345,0.107,0.683,0.238,1.023,0.36
			c2.994,1.079,2.993,1.079,4.725-1.578c0.162-0.249,0.262-0.642,0.689-0.482c0.416,0.156,0.315,0.461,0.179,0.782
			c-0.991,2.329-1.896,4.689-2.576,7.131c-0.081,0.29-0.204,0.668-0.635,0.515c-0.403-0.144-0.301-0.473-0.214-0.799
			c0.093-0.348,0.122-0.713,0.186-1.069c0.304-1.705-0.028-2.315-1.602-2.933c-2.907-1.142-2.904-1.141-3.962,1.796
			c-0.597,1.657-1.237,3.299-1.796,4.969c-0.468,1.401-0.112,1.863,1.223,2.513c3.259,1.587,6.187,1.346,8.791-1.304
			c0.217-0.22,0.452-0.515,0.785-0.158c0.313,0.336,0.01,0.597-0.164,0.826c-0.958,1.261-1.948,2.498-2.9,3.763
			c-0.34,0.452-0.676,0.457-1.166,0.253c-4.047-1.689-8.152-3.22-12.35-4.497c-0.355-0.108-0.91-0.153-0.716-0.754
			C149.621,408.07,150.223,408.564,150.705,408.485z"/>
		<path fill="#1F82C3" d="M48.561,310.554c-2.821-0.13-4.816-1.877-6.079-4.648c-0.893-1.96-0.874-4.155-1.602-6.157
			c-0.171-0.47,0.188-0.625,0.518-0.801c1.358-0.721,2.711-1.451,4.067-2.176c0.269-0.144,0.549-0.402,0.806,0.014
			c0.201,0.325,0.103,0.61-0.155,0.849c-0.766,0.707-1.518,1.426-2.125,2.282c-1.602,2.259-1.132,5.743,1.014,7.484
			c2.009,1.629,5.299,0.673,6.452-1.899c0.733-1.636,0.793-3.421,1.054-5.16c0.188-1.251,0.335-2.513,0.618-3.743
			c0.552-2.396,1.941-4.119,4.425-4.613c2.595-0.516,4.81,0.292,6.572,2.314c1.689,1.937,1.882,4.457,2.696,6.736
			c0.151,0.424-0.168,0.548-0.444,0.706c-1.218,0.695-2.434,1.391-3.65,2.089c-0.275,0.158-0.552,0.375-0.818-0.003
			c-0.266-0.379-0.13-0.671,0.209-0.923c0.842-0.627,1.591-1.344,2.119-2.265c0.893-1.556,0.573-3.628-0.792-5.146
			c-1.138-1.265-2.784-1.571-4.469-0.849c-1.192,0.511-1.774,1.497-2.106,2.671c-0.643,2.275-0.696,4.646-1.109,6.96
			C55.003,308.52,52.798,310.551,48.561,310.554z"/>
		<path fill="#1F82C3" d="M252.302,401.11c0.06-0.988-0.213-2.209,0.271-2.901c0.513-0.734,1.842-0.32,2.807-0.48
			c4.416-0.733,8.801-1.588,13.077-2.925c0.62-0.194,0.872-0.137,1.078,0.495c0.476,1.459,1.018,2.897,1.543,4.339
			c0.11,0.302,0.295,0.626-0.073,0.838c-0.502,0.29-0.593-0.199-0.77-0.481c-1.927-3.08-3.142-3.563-6.52-2.656
			c-0.862,0.231-1.175,0.639-0.981,1.563c1.181,5.613,2.307,11.237,3.479,16.851c0.357,1.712,0.799,2.033,2.723,2.21
			c0.395,0.036,0.914-0.071,0.923,0.515c0.008,0.549-0.503,0.558-0.9,0.601c-2.252,0.243-4.452,0.718-6.63,1.339
			c-0.335,0.096-0.882,0.564-1.163-0.122c-0.263-0.642,0.313-0.731,0.694-0.934c1.635-0.869,1.904-1.318,1.53-3.15
			c-1.127-5.532-2.326-11.05-3.434-16.585c-0.211-1.057-0.686-1.337-1.677-1.18c-2.814,0.446-4.649,2.18-5.184,4.975
			c-0.066,0.346-0.006,0.876-0.467,0.843c-0.599-0.043-0.351-0.617-0.36-0.984c-0.019-0.723-0.006-1.448-0.006-2.172
			C252.276,401.111,252.289,401.111,252.302,401.11z"/>
		<path fill="#1F82C3" d="M56.618,278.784c-0.052-0.357-0.116-0.713-0.152-1.072c-0.045-0.45-0.477-1.067,0.234-1.269
			c0.849-0.241,0.752,0.629,0.895,1.055c0.46,1.369,0.774,2.787,1.239,4.153c0.479,1.409,1.071,2.781,1.61,4.17
			c0.142,0.366,0.433,0.774-0.117,1.047c-0.561,0.279-0.682-0.219-0.885-0.551c-1.508-2.459-1.717-2.519-4.459-1.576
			c-4.612,1.585-9.233,3.145-13.849,4.719c-2.123,0.724-2.483,1.33-2.093,3.535c0.084,0.476,0.388,1.056-0.319,1.241
			c-0.687,0.18-0.653-0.517-0.752-0.888c-0.768-2.886-1.744-5.697-2.883-8.455c-0.145-0.35-0.489-0.796,0.005-1.08
			c0.549-0.316,0.767,0.166,1.012,0.569c1.46,2.395,1.654,2.465,4.358,1.545c4.746-1.615,9.486-3.247,14.233-4.858
			C55.807,280.69,56.674,280.146,56.618,278.784z"/>
		<path fill="#1F82C3" d="M398.465,257.014c-0.007,2.098,0.333,2.553,2.395,2.991c5.21,1.107,10.428,2.175,15.639,3.279
			c1.203,0.255,2.032-0.168,2.557-1.24c0.218-0.445,0.388-0.912,0.58-1.37c0.133-0.319,0.319-0.565,0.713-0.415
			c0.376,0.142,0.397,0.424,0.3,0.776c-0.192,0.696-0.325,1.41-0.537,2.099c-0.695,2.255-0.958,4.593-1.379,6.901
			c-0.075,0.409,0.062,1.167-0.739,1.021c-0.629-0.114-0.421-0.703-0.414-1.126c0.036-2.454-0.295-2.846-2.708-3.345
			c-4.864-1.006-9.725-2.025-14.584-3.056c-2.184-0.464-2.766-0.166-3.638,1.918c-0.172,0.411-0.122,1.165-0.842,0.977
			c-0.864-0.225-0.337-0.951-0.225-1.36c0.728-2.662,1.304-5.348,1.711-8.078c0.071-0.478-0.17-1.438,0.701-1.366
			C398.885,255.693,398.328,256.568,398.465,257.014z"/>
		<path fill="#1F82C3" d="M51.05,247.625c0.071,0.341,0.048,0.657-0.354,0.755c-0.476,0.116-0.621-0.204-0.728-0.59
			c-0.132-0.478-0.286-0.951-0.456-1.417c-0.395-1.087-1.19-1.555-2.326-1.44c-5.355,0.54-10.711,1.069-16.062,1.638
			c-1.952,0.207-2.444,0.8-2.558,2.813c-0.008,0.136-0.01,0.272-0.004,0.408c0.02,0.451-0.081,0.863-0.612,0.872
			c-0.52,0.008-0.437-0.451-0.495-0.798c-0.323-1.924-0.083-3.89-0.463-5.812c-0.227-1.152-0.377-2.32-0.53-3.485
			c-0.042-0.323-0.2-0.772,0.354-0.862c0.442-0.072,0.657,0.16,0.731,0.593c0.053,0.31,0.167,0.61,0.27,0.909
			c0.54,1.569,1.078,1.984,2.708,1.828c5.312-0.51,10.623-1.039,15.928-1.614c1.912-0.207,2.355-0.764,2.507-2.699
			c0.014-0.18,0.019-0.362,0.016-0.543c-0.009-0.445,0.066-0.873,0.625-0.828c0.487,0.039,0.439,0.482,0.469,0.842
			c0.185,2.161,0.16,4.339,0.53,6.487C50.768,245.657,50.901,246.643,51.05,247.625z"/>
		<path fill="#1F82C3" d="M421.597,244.078c0.039-1.796-0.664-2.917-1.816-3.757c-0.801-0.584-1.679-1.061-2.52-1.59
			c-0.228-0.144-0.49-0.294-0.363-0.627c0.12-0.316,0.412-0.348,0.683-0.274c1.829,0.496,3.655,1.006,5.481,1.516
			c0.502,0.14,0.388,0.515,0.326,0.88c-0.739,4.373-1.135,8.785-1.485,13.202c-0.028,0.359,0.133,0.92-0.523,0.89
			c-0.555-0.025-0.53-0.496-0.589-0.905c-0.264-1.831-0.63-2.272-2.451-2.481c-5.21-0.6-10.424-1.169-15.643-1.686
			c-2.231-0.221-2.281-0.12-3.228,1.976c-0.143,0.316-0.209,0.76-0.719,0.633c-0.568-0.141-0.446-0.564-0.366-0.98
			c0.436-2.267,0.742-4.547,0.738-6.864c-0.001-0.404-0.088-1.018,0.609-0.991c0.55,0.021,0.52,0.517,0.587,0.918
			c0.327,1.965,0.441,2.151,2.46,2.389c5.387,0.638,10.78,1.235,16.176,1.794c1.834,0.19,2.232-0.224,2.409-2.056
			C421.436,245.3,421.542,244.538,421.597,244.078z"/>
		<path fill="#70B970" d="M284.619,31.687c0.004,0.663-0.266,1.101-0.942,1.297c-2.599,0.754-5.188,1.541-7.788,2.288
			c-0.459,0.132-1.037,0.299-1.285-0.342c-0.226-0.585,0.155-0.915,0.636-1.17c2.351-1.247,4.687-2.525,7.053-3.743
			C283.45,29.422,284.589,30.273,284.619,31.687z"/>
		<path fill="#70B970" d="M288.699,54.426c0.102,0.033,0.189,0.056,0.272,0.089c2.755,1.114,5.509,2.23,8.265,3.342
			c0.671,0.271,0.488,0.778,0.328,1.245c-0.169,0.492-0.422,0.953-1.077,0.691c-2.758-1.105-5.513-2.219-8.266-3.336
			c-0.552-0.224-0.534-0.654-0.368-1.127C288.004,54.897,288.155,54.47,288.699,54.426z"/>
	</g>
</g>
</svg>
