<?xml version="1.0" encoding="utf-8"?>
<!-- Generator: Adobe Illustrator 17.0.2, SVG Export Plug-In . SVG Version: 6.00 Build 0)  -->
<!DOCTYPE svg PUBLIC "-//W3C//DTD SVG 1.1//EN" "http://www.w3.org/Graphics/SVG/1.1/DTD/svg11.dtd">
<svg version="1.1" id="Layer_1" xmlns="http://www.w3.org/2000/svg" xmlns:xlink="http://www.w3.org/1999/xlink" x="0px" y="0px"
	 width="168.552px" height="174.212px" viewBox="0 0 168.552 174.212" enable-background="new 0 0 168.552 174.212"
	 xml:space="preserve">
<path fill="#1A80C3" d="M92.004,113.777c-0.005,1.426-0.617,3.204,0.245,4.165c0.697,0.777,2.479,0.168,3.779,0.21
	c0.675,0.022,1.352-0.024,2.028-0.039c10.141,0.015,20.282,0.023,30.423,0.062c0.82,0.003,0.948-0.36,0.999-1.053
	c0.425-5.701,1.551-11.264,3.241-16.727c1.543-4.988,3.712-9.694,6.167-14.282c1.742-2.475,1.742-2.475-0.945-3.792
	c-2.19-1.074-4.369-2.17-6.575-3.21c-0.732-0.345-0.998-0.563-0.305-1.298c7.792-8.255,17.095-13.69,28.455-15.256
	c2.639-0.364,5.3-0.514,7.981-0.209c1.087,0.124,1.271,0.333,0.829,1.35c-1.843,4.237-3.179,8.639-4.025,13.182
	c-1.32,7.09-1.464,14.176,0.1,21.303c-0.846-1.387-1.68-2.781-2.541-4.159c-0.841-1.347-1.799-2.605-2.963-3.694
	c-1.68-1.571-3.208-1.741-5.309-0.597c-1.847,0.695-2.943,2.201-3.97,3.749c-1.946,2.931-3.108,6.215-4.081,9.56
	c-2.907,9.987-4.05,20.26-4.788,30.586c-0.088,1.227-0.46,1.441-1.583,1.438c-13.123-0.039-26.246-0.026-39.369-0.022
	c-0.541,0-1.082,0.044-1.623,0.067c-1.811-0.02-3.621-0.027-5.432-0.068c-0.588-0.013-0.829,0.217-0.79,0.795
	c0.021,0.316,0.002,0.634,0.002,0.951c0,12.003-0.017,24.007,0.026,36.01c0.004,1.148-0.328,1.437-1.439,1.413
	c-3.576-0.079-7.155-0.099-10.731-0.034c-1.117,0.021-1.332-0.348-1.329-1.378c0.033-12.049,0-24.098,0.051-36.146
	c0.006-1.318-0.348-1.741-1.657-1.629c-1.484,0.126-2.985,0.059-4.479,0.076c-0.588-0.02-1.175-0.057-1.763-0.057
	c-13.725-0.003-27.45-0.004-41.174,0c-0.728,0-1.331,0.134-1.403-1.026c-0.49-7.903-1.362-15.767-2.964-23.529
	c-1.125-5.452-2.454-10.855-5.17-15.787c-0.94-1.708-2.011-3.337-3.724-4.407c-2.287-1.692-3.985-1.675-6.099,0.132
	c-2.169,1.854-3.629,4.255-5.034,6.691c-0.237,0.41-0.47,0.822-0.767,1.213C7.115,85.914,4.898,74.101,0,62.363
	c15.652-1.059,28.014,5.043,38.468,16.226c-2.709,1.338-5.267,2.631-7.851,3.872c-2.453,1.178-2.464,1.155-0.833,3.424
	c0.806,1.561,1.654,3.102,2.41,4.687c4.027,8.441,6.438,17.319,7.107,26.656c0.047,0.655,0.218,0.948,0.951,0.946
	c10.718-0.036,21.437-0.044,32.156-0.059c1.747,0.014,3.494,0.011,5.24,0.053c0.63,0.015,0.89-0.193,0.863-0.843
	c-0.048-1.163-0.04-2.328-0.056-3.492c0.225-0.378,0.134-0.795,0.134-1.196c0.004-21.467,0.004-42.935-0.001-64.402
	c0-0.445,0.098-0.908-0.14-1.332c0.176-2.705,0.176-2.706-2.48-2.706c-4.02,0-8.04,0-12.282,0C70.881,29.453,78.001,14.863,85.254,0
	c1.102,2.221,2.095,4.2,3.07,6.188c5.923,12.085,11.842,24.172,17.76,36.259c0.688,1.406,0.681,1.41-0.958,1.411
	c-3.847,0.001-7.694,0.054-11.539-0.03c-1.271-0.028-1.87,0.252-1.643,1.611c0.081,0.486,0.042,0.992,0.057,1.489
	c-0.018,0.361-0.053,0.722-0.053,1.083c-0.003,21.561-0.003,43.122-0.001,64.683C91.947,113.055,91.984,113.416,92.004,113.777z
	 M70.039,40.699c3.262,0,6.248,0.052,9.231-0.027c1.119-0.03,1.437,0.262,1.436,1.411c-0.034,25.81-0.034,51.619,0.002,77.429
	c0.002,1.175-0.367,1.393-1.455,1.389c-12.271-0.038-24.542-0.024-36.813-0.024c-2.627,0-2.543-0.005-2.402,2.54
	c0.071,1.278,0.559,1.526,1.734,1.523c13.403-0.026,26.805-0.015,40.208,0.039c1.202,0.005,1.58-0.251,1.578-1.535
	c-0.038-36.903-0.031-73.806-0.034-110.71c0-0.354-0.041-0.709-0.088-1.462C78.883,21.273,74.508,30.883,70.039,40.699z
	 M159.81,66.846c-8.981,0.487-16.43,4.292-22.873,10.325c-0.599,0.561-0.239,0.777,0.25,1.075c2.203,1.341,4.374,2.734,6.594,4.045
	c0.641,0.378,0.654,0.672,0.304,1.258c-0.742,1.241-1.452,2.505-2.102,3.797c-5.076,10.086-7.996,20.802-9.228,31.994
	c-0.142,1.288-0.547,1.688-1.901,1.679c-12.093-0.085-24.186-0.081-36.279-0.102c-2.629-0.004-2.542,0.003-2.658,2.621
	c-0.058,1.298,0.427,1.441,1.536,1.439c12.411-0.024,24.822,0.002,37.232,0.012c1.311,0.001,2.623-0.035,3.934-0.025
	c0.748,0.006,1.096-0.206,1.152-1.07c0.261-4.065,0.828-8.096,1.63-12.088c2.645-13.154,7.594-25.336,15.405-36.304
	C154.956,72.485,157.342,69.668,159.81,66.846z M8.894,88.296c0.738-0.454,1.34-0.842,1.958-1.203
	c2.405-1.405,4.66-1.375,6.874,0.509c2.211,1.881,3.936,4.113,5.284,6.652c4.049,7.625,5.732,15.938,7.012,24.36
	c0.591,3.891,1.026,7.801,1.18,11.736c0.037,0.94,0.41,1.294,1.325,1.17c0.356-0.048,0.726-0.036,1.085-0.002
	c0.718,0.067,0.859-0.18,0.834-0.926c-0.165-4.935-0.679-9.832-1.421-14.71c-1.596-10.485-4.49-20.563-9.599-29.909
	c-3.951-7.228-8.919-13.618-15.819-18.317c-0.442-0.301-0.924-0.545-1.721-1.009C9.011,73.817,10.253,80.824,8.894,88.296z
	 M83.462,153.654c0-5.789-0.045-11.578,0.034-17.365c0.018-1.318-0.593-1.275-1.542-1.309c-1.039-0.037-1.371,0.234-1.366,1.335
	c0.043,11.532,0.045,23.064-0.002,34.596c-0.005,1.141,0.391,1.329,1.395,1.327c1.015-0.001,1.528-0.1,1.512-1.355
	C83.421,165.141,83.461,159.397,83.462,153.654z"/>
<path fill="#6DB86E" d="M98.174,135.109c0.541-0.023,1.082-0.067,1.623-0.067c13.123-0.004,26.246-0.017,39.369,0.022
	c1.123,0.003,1.495-0.211,1.583-1.438c0.738-10.326,1.881-20.599,4.788-30.586c0.974-3.345,2.136-6.629,4.081-9.56
	c1.027-1.547,2.124-3.054,3.97-3.749c5.285,4.27,8.94,9.695,11.023,16.116c2.419,7.457,0.987,14.108-4.749,19.627
	c-0.864,0.831-0.92,1.245-0.005,2.125c5.806,5.583,7.261,12.321,4.8,19.875c-1.867,5.73-5.028,10.729-9.542,14.755
	c-6.168,5.502-13.247,6.399-20.882,3.696c-5.031-1.781-9.233-4.814-13.035-8.56c-7.153-7.048-14.463-13.936-21.704-20.894
	C99.039,136.035,98.614,135.565,98.174,135.109z"/>
<path fill="#6DB86E" d="M16.2,90.293c1.714,1.069,2.784,2.699,3.724,4.407c2.716,4.932,4.045,10.335,5.17,15.787
	c1.602,7.762,2.474,15.626,2.964,23.529c0.072,1.16,0.675,1.026,1.403,1.026c13.725-0.003,27.45-0.003,41.174,0
	c0.588,0,1.175,0.037,1.763,0.057c-8.575,8.243-17.055,16.589-25.765,24.688c-4.56,4.24-10.095,6.849-16.372,7.503
	c-4.565,0.475-8.878-0.538-12.585-3.274C10.889,159.006,6.584,152.291,5.007,144c-1.241-6.524,0.992-12.021,5.746-16.532
	c0.689-0.654,0.89-0.973,0.085-1.742c-6.264-5.986-7.548-13.125-4.565-21.094C8.367,99.039,11.614,94.189,16.2,90.293z"/>
<path fill="#6DB86E" d="M92.004,113.777c-0.02-0.361-0.057-0.722-0.057-1.083c-0.002-21.561-0.002-43.122,0.001-64.683
	c0-0.361,0.035-0.722,0.053-1.083c5.566-2.503,11.09-2.035,16.552,0.309c4.191,1.798,7.977,4.229,11.237,7.452
	c6.33,6.258,7.759,13.637,4.945,21.923c-1.731,5.099-4.782,9.355-8.544,13.198c-7.531,7.693-14.948,15.499-22.384,23.285
	C93.265,113.664,92.704,113.811,92.004,113.777z"/>
<path fill="#6DB86E" d="M78.448,46.903c0.238,0.423,0.14,0.886,0.14,1.332c0.005,21.467,0.005,42.935,0.001,64.402
	c0,0.401,0.091,0.818-0.134,1.196c-0.556,0.012-1.024-0.097-1.452-0.545c-8.193-8.562-16.489-17.028-24.572-25.692
	c-4.181-4.482-6.87-9.874-7.659-16.025c-0.777-6.056,1.04-11.401,5.21-15.82c4.692-4.973,10.348-8.427,17.071-9.974
	C70.97,44.875,74.772,45.297,78.448,46.903z"/>
<path fill="#6DB86E" d="M72.408,118.114c-10.719,0.015-21.437,0.023-32.156,0.059c-0.733,0.002-0.904-0.291-0.951-0.946
	c-0.669-9.337-3.08-18.215-7.107-26.656c-0.756-1.585-1.604-3.126-2.41-4.687c6.524,0.506,12.202,3.175,16.905,7.516
	c8.538,7.881,16.805,16.055,25.183,24.11C72.066,117.696,72.23,117.912,72.408,118.114z"/>
<path fill="#6DB86E" d="M138.888,86.113c-2.455,4.588-4.624,9.294-6.167,14.282c-1.69,5.463-2.816,11.026-3.241,16.727
	c-0.052,0.693-0.179,1.056-0.999,1.053c-10.141-0.039-20.282-0.046-30.423-0.062c3.86-3.737,7.714-7.48,11.582-11.21
	c4.455-4.296,8.867-8.638,13.399-12.851C127.528,89.879,132.755,87.064,138.888,86.113z"/>
</svg>
