<?xml version="1.0" encoding="utf-8"?>
<!-- Generator: Adobe Illustrator 17.0.2, SVG Export Plug-In . SVG Version: 6.00 Build 0)  -->
<!DOCTYPE svg PUBLIC "-//W3C//DTD SVG 1.1//EN" "http://www.w3.org/Graphics/SVG/1.1/DTD/svg11.dtd">
<svg version="1.1" id="Layer_1" xmlns="http://www.w3.org/2000/svg" xmlns:xlink="http://www.w3.org/1999/xlink" x="0px" y="0px"
	 width="305.228px" height="305.228px" viewBox="0 0 305.228 305.228" enable-background="new 0 0 305.228 305.228"
	 xml:space="preserve">
<g>
	<circle fill="none" stroke="#000000" stroke-width="4" cx="152.614" cy="152.614" r="150.614"/>
	<path fill="none" stroke="#000000" stroke-width="4" d="M152.614,152.614"/>
</g>
<g>
	<path d="M221.009,260.616c-0.29,0.358-0.592,0.712-0.924,1.08c0.36,0.81,0.54,1.98,0,2.7c-0.27-0.09,0,0.36-0.27,0.45
		c-0.9,0.54-1.62,1.35-1.98,2.25c0.18,1.44,0.09,2.88-1.17,3.87c-0.99,0.63-1.8,1.8-3.06,1.35l-0.09,0.18
		c-2.34-0.09-4.59-1.62-6.03-3.42c-0.81-0.36-0.99,0.9-1.53,1.26c-1.8,1.53-3.96,2.7-6.21,3.51c-0.72,1.08-2.07,1.44-3.06,2.25
		c-1.62,0.99-2.88,2.25-4.5,3.06l-0.27-0.18c-0.27,0.54-0.99,0.63-1.44,0.99l-0.18-0.27l-0.18,0.09l0.09,0.18
		c-1.44,0.45-3.06,0.54-4.41,0.27c-1.44,0.99-2.16,2.88-3.51,4.05c-0.36,0.81-1.35,1.26-1.98,1.89c-0.36-0.09-0.54,0.45-0.99,0.54
		c-2.34,0.72-3.87,2.43-6.39,2.7c-1.8,0.81-3.78,1.62-5.85,0.99c-1.17-0.63-2.61-0.63-3.42-1.8c-0.81-0.63-0.99-1.71-0.63-2.61
		c0.63-1.35,1.98-2.16,3.51-2.07c1.98,0.63,3.6-0.36,5.4-0.54c0.9,0,1.89-0.09,2.52-0.72c0.36-0.45,0.18-1.26,0.18-1.62
		c-2.16-0.36-4.23,0.99-6.66,0.72c-1.17,0.27-2.61,0-3.78,0.45c-0.36-0.18-0.18-0.18-0.54,0c-1.71-0.36-3.42,0.54-4.86,0.27
		c-0.18,0.09-0.54-0.36-0.54,0.09c-0.63-0.09-1.17,0.63-1.62,0.18c-0.72,0-1.26,0.54-2.07,0.27c-0.63-0.09-0.99,0.27-1.62,0.36
		c-1.62-0.09-3.06,0.36-4.68,0.27c-1.35,0.18-2.79,0-4.05-0.09c-1.53-0.18-3.06,0.09-4.41-0.63c-0.9,0.27-1.62-0.63-2.43-0.81
		c-8.64-6.66-17.1-12.96-26.82-18c-0.27,0-0.63,0.18-0.81-0.18c-1.71-0.72-3.51-1.17-5.31-1.17c-1.8-0.63-3.6,0.09-5.22,0.27
		c-1.89,0.54-4.41,0.99-6.57,1.71c-1.17,0.54-2.61,0.36-3.78,0.99c-1.62-0.09-3.06,1.08-4.68,0.9c-1.44,0.36-2.97,0.72-4.5,0.9
		c-0.63-0.27-1.17,0.27-1.8,0.09c-0.72,0.54-1.71,0.09-2.52,0.54c-0.54-0.36-0.99,0.36-1.62,0.18l-3.06,0.36
		c-0.63-0.09-1.08-0.81-1.62-1.26c0.63-1.35,1.8-2.61,2.43-4.05c0.079-0.941,0.157-1.95,0.593-2.79h54.399
		c0.702,0.073,1.393,0.18,2.068,0.36c0.45,0.72,1.44,0.27,2.07,0.72c2.43,0.9,4.86,1.89,7.29,2.97c0.72-0.18,1.17,0.54,1.89,0.45
		c2.97-0.54,5.76-1.17,8.91-1.35c1.44,0.09,3.06,0.18,4.5,0.09c0.99,0.18,1.98,0,2.97-0.09c1.26-0.72,2.7-0.45,3.87-1.35
		c0.99,0.09,0.72,1.26,1.35,1.71c0.36,0.63,1.35,1.26,0.9,1.89c-1.08,0.9-1.62,2.16-2.7,2.88c-2.88,0.81-6.12,0.81-8.64,2.43
		c-0.99-0.27-1.53,0.81-2.43,0.99c-2.7,1.17-5.76,0.27-8.01-1.44c-1.62-0.63-2.7-2.16-4.23-2.7c-1.08-1.26-2.7-1.26-3.96-2.16
		c-0.63,0.09-1.08-0.45-1.71-0.45c-1.71-0.27-3.24-1.17-4.95-1.35c-1.26-0.81-2.97-0.54-4.23-1.44c-1.53-0.27-2.79-1.17-4.14-2.07
		c-0.18,0-0.27,0.18-0.36,0.36c1.89,1.8,4.32,3.42,6.84,3.78c2.16,1.08,4.68,1.26,6.93,2.16c1.35-0.09,2.25,1.08,3.51,1.44
		c1.8,1.53,4.05,2.25,5.67,3.78c2.43,1.17,5.22,2.97,8.1,1.62c1.26-0.45,2.7-0.63,3.78-1.35c0.81,0.18,1.35-0.54,2.07-0.63
		c2.16-0.72,4.68-0.81,6.75-1.62c1.44-1.53,2.16-4.23,4.59-4.59c0.99-0.36,2.25-0.36,3.24-0.99c0.45,0.09,1.08,0,1.53-0.09
		c1.44,0.27,2.43,1.71,3.78,1.89c0.54-0.9-0.81-1.44-1.26-2.07c-0.45-0.54-0.63-1.17-0.45-1.8c0.09-0.18,0.45-0.36,0.45-0.63
		l-0.27-0.09c-1.98,0.9-4.14,1.53-6.12,2.43c-0.9,0-2.07,0.9-2.79-0.18l-0.09-0.27c-0.947-0.906-1.536-2.038-1.982-3.24h56.707
		c0.064,0.198,0.243,0.329,0.535,0.27c0.125-0.087,0.248-0.177,0.37-0.27H221.009z"/>
	<path d="M72.089,260.616c0.064-0.123,0.136-0.244,0.217-0.36c1.98-0.18,3.96,0.18,5.94,0c1.08,0.09,2.52,0.27,3.51-0.36l-0.27-0.36
		c-3.42-1.8-7.74-2.07-10.53-5.13c-0.09-1.35,1.62-0.9,2.34-1.44c2.43-0.45,3.78-3.42,6.39-3.15c3.78,1.8,7.56,3.51,11.52,4.59
		c3.24,1.44,6.84,1.26,10.26,0.27c2.97-1.08,6.39-3.51,9.54-1.35c0.63,0.45,0.81,1.44,1.62,1.53c1.98-0.18,4.23-0.81,5.85,0.9
		c1.53,1.08-0.36,3.24,1.62,4.05c2.092,0.675,4.286,0.591,6.392,0.81H72.089z"/>
	<path d="M161.223,260.616c-0.53-1.426-0.859-2.953-1.348-4.32c-0.18-1.35-0.9-2.43-0.36-3.78c1.26-0.63,2.61-1.17,4.05-1.26
		c1.08-0.63,2.34-1.53,3.6-0.9c2.52-0.63,5.04-1.44,7.2-2.79c0.81,0.18,1.26-0.54,1.89-0.72c1.71-0.09,2.97-1.17,4.59-1.53
		c4.23-1.44,8.28-3.96,12.96-3.96c1.26-0.09,1.89,1.17,3.06,1.17c0.81-0.45,1.98-0.09,2.43-1.08c0-0.81-0.09-1.98,0.81-2.43
		c0.54,0.18,0.81-0.36,1.17-0.54l0.09-0.27c-1.17-2.25-2.97-4.05-3.78-6.3c0.09-0.63,0.54-0.99,1.17-1.08
		c1.17-0.27,1.89,1.08,2.61,1.89c1.26,2.43,2.97,4.05,4.68,6.3c0.99,0.99,1.08,2.34,2.16,3.15c0.9-0.09,1.44-0.27,2.16-0.81
		c1.35-0.09,3.06-0.81,4.41,0.09c1.71-0.18,3.24,1.08,4.5,2.16c2.07,1.8,2.97,4.32,3.42,6.93c0.63,0.36,1.26,0.63,1.44,1.44
		c-0.45,0.72-1.26,0.99-1.71,1.71c-0.72,2.16-2.25,3.87-3.69,5.67c-0.54,0-0.45,0.63-0.81,0.9c-0.032,0.126-0.03,0.253,0.005,0.36
		H161.223z"/>
	<path d="M218.835,260.616c2.503-1.903,4.271-4.813,5.3-7.56c0.54,0.36,0.81,1.08,0.72,1.8c-0.99,1.26-1.08,3.24-2.61,4.14
		c-0.425,0.584-0.818,1.105-1.236,1.62H218.835z"/>
	<path fill="none" stroke="#000000" stroke-width="0" stroke-linecap="square" stroke-miterlimit="2" d="M201.365,232.716
		c1.26,2.43,2.97,4.05,4.68,6.3c0.99,0.99,1.08,2.34,2.16,3.15c0.9-0.09,1.44-0.27,2.16-0.81c1.35-0.09,3.06-0.81,4.41,0.09
		c1.71-0.18,3.24,1.08,4.5,2.16c2.07,1.8,2.97,4.32,3.42,6.93c0.63,0.36,1.26,0.63,1.44,1.44c-0.45,0.72-1.26,0.99-1.71,1.71
		c-0.72,2.16-2.25,3.87-3.69,5.67c-0.54,0-0.45,0.63-0.81,0.9c-0.09,0.36,0.09,0.72,0.54,0.63c2.7-1.89,4.59-4.95,5.67-7.83
		c0.54,0.36,0.81,1.08,0.72,1.8c-0.99,1.26-1.08,3.24-2.61,4.14c-0.72,0.99-1.35,1.8-2.16,2.7c0.36,0.81,0.54,1.98,0,2.7
		c-0.27-0.09,0,0.36-0.27,0.45c-0.9,0.54-1.62,1.35-1.98,2.25c0.18,1.44,0.09,2.88-1.17,3.87c-0.99,0.63-1.8,1.8-3.06,1.35
		l-0.09,0.18c-2.34-0.09-4.59-1.62-6.03-3.42c-0.81-0.36-0.99,0.9-1.53,1.26c-1.8,1.53-3.96,2.7-6.21,3.51
		c-0.72,1.08-2.07,1.44-3.06,2.25c-1.62,0.99-2.88,2.25-4.5,3.06l-0.27-0.18c-0.27,0.54-0.99,0.63-1.44,0.99l-0.18-0.27l-0.18,0.09
		l0.09,0.18c-1.44,0.45-3.06,0.54-4.41,0.27c-1.44,0.99-2.16,2.88-3.51,4.05c-0.36,0.81-1.35,1.26-1.98,1.89
		c-0.36-0.09-0.54,0.45-0.99,0.54c-2.34,0.72-3.87,2.43-6.39,2.7c-1.8,0.81-3.78,1.62-5.85,0.99c-1.17-0.63-2.61-0.63-3.42-1.8
		c-0.81-0.63-0.99-1.71-0.63-2.61c0.63-1.35,1.98-2.16,3.51-2.07c1.98,0.63,3.6-0.36,5.4-0.54c0.9,0,1.89-0.09,2.52-0.72
		c0.36-0.45,0.18-1.26,0.18-1.62c-2.16-0.36-4.23,0.99-6.66,0.72c-1.17,0.27-2.61,0-3.78,0.45c-0.36-0.18-0.18-0.18-0.54,0
		c-1.71-0.36-3.42,0.54-4.86,0.27c-0.18,0.09-0.54-0.36-0.54,0.09c-0.63-0.09-1.17,0.63-1.62,0.18c-0.72,0-1.26,0.54-2.07,0.27
		c-0.63-0.09-0.99,0.27-1.62,0.36c-1.62-0.09-3.06,0.36-4.68,0.27c-1.35,0.18-2.79,0-4.05-0.09c-1.53-0.18-3.06,0.09-4.41-0.63
		c-0.9,0.27-1.62-0.63-2.43-0.81c-8.64-6.66-17.1-12.96-26.82-18c-0.27,0-0.63,0.18-0.81-0.18c-1.71-0.72-3.51-1.17-5.31-1.17
		c-1.8-0.63-3.6,0.09-5.22,0.27c-1.89,0.54-4.41,0.99-6.57,1.71c-1.17,0.54-2.61,0.36-3.78,0.99c-1.62-0.09-3.06,1.08-4.68,0.9
		c-1.44,0.36-2.97,0.72-4.5,0.9c-0.63-0.27-1.17,0.27-1.8,0.09c-0.72,0.54-1.71,0.09-2.52,0.54c-0.54-0.36-0.99,0.36-1.62,0.18
		l-3.06,0.36c-0.63-0.09-1.08-0.81-1.62-1.26c0.63-1.35,1.8-2.61,2.43-4.05c0.09-1.08,0.18-2.25,0.81-3.15
		c1.98-0.18,3.96,0.18,5.94,0c1.08,0.09,2.52,0.27,3.51-0.36l-0.27-0.36c-3.42-1.8-7.74-2.07-10.53-5.13
		c-0.09-1.35,1.62-0.9,2.34-1.44c2.43-0.45,3.78-3.42,6.39-3.15c3.78,1.8,7.56,3.51,11.52,4.59c3.24,1.44,6.84,1.26,10.26,0.27
		c2.97-1.08,6.39-3.51,9.54-1.35c0.63,0.45,0.81,1.44,1.62,1.53c1.98-0.18,4.23-0.81,5.85,0.9c1.53,1.08-0.36,3.24,1.62,4.05
		c2.79,0.9,5.76,0.45,8.459,1.17c0.45,0.72,1.44,0.27,2.07,0.72c2.43,0.9,4.86,1.89,7.29,2.97c0.72-0.18,1.17,0.54,1.89,0.45
		c2.97-0.54,5.76-1.17,8.91-1.35c1.44,0.09,3.06,0.18,4.5,0.09c0.99,0.18,1.98,0,2.97-0.09c1.26-0.72,2.7-0.45,3.87-1.35
		c0.99,0.09,0.72,1.26,1.35,1.71c0.36,0.63,1.35,1.26,0.9,1.89c-1.08,0.9-1.62,2.16-2.7,2.88c-2.88,0.81-6.12,0.81-8.64,2.43
		c-0.99-0.27-1.53,0.81-2.43,0.99c-2.7,1.17-5.76,0.27-8.01-1.44c-1.62-0.63-2.7-2.16-4.23-2.7c-1.08-1.26-2.7-1.26-3.96-2.16
		c-0.63,0.09-1.08-0.45-1.71-0.45c-1.71-0.27-3.24-1.17-4.95-1.35c-1.26-0.81-2.97-0.54-4.23-1.44c-1.53-0.27-2.79-1.17-4.14-2.07
		c-0.18,0-0.27,0.18-0.36,0.36c1.89,1.8,4.32,3.42,6.84,3.78c2.16,1.08,4.68,1.26,6.93,2.16c1.35-0.09,2.25,1.08,3.51,1.44
		c1.8,1.53,4.05,2.25,5.67,3.78c2.43,1.17,5.22,2.97,8.1,1.62c1.26-0.45,2.7-0.63,3.78-1.35c0.81,0.18,1.35-0.54,2.07-0.63
		c2.16-0.72,4.68-0.81,6.75-1.62c1.44-1.53,2.16-4.23,4.59-4.59c0.99-0.36,2.25-0.36,3.24-0.99c0.45,0.09,1.08,0,1.53-0.09
		c1.44,0.27,2.43,1.71,3.78,1.89c0.54-0.9-0.81-1.44-1.26-2.07c-0.45-0.54-0.63-1.17-0.45-1.8c0.09-0.18,0.45-0.36,0.45-0.63
		l-0.27-0.09c-1.98,0.9-4.14,1.53-6.12,2.43c-0.9,0-2.07,0.9-2.79-0.18l-0.09-0.27c-2.07-1.98-2.43-5.04-3.33-7.56
		c-0.18-1.35-0.9-2.43-0.36-3.78c1.26-0.63,2.61-1.17,4.05-1.26c1.08-0.63,2.34-1.53,3.6-0.9c2.52-0.63,5.04-1.44,7.2-2.79
		c0.81,0.18,1.26-0.54,1.89-0.72c1.71-0.09,2.97-1.17,4.59-1.53c4.23-1.44,8.28-3.96,12.96-3.96c1.26-0.09,1.89,1.17,3.06,1.17
		c0.81-0.45,1.98-0.09,2.43-1.08c0-0.81-0.09-1.98,0.81-2.43c0.54,0.18,0.81-0.36,1.17-0.54l0.09-0.27
		c-1.17-2.25-2.97-4.05-3.78-6.3c0.09-0.63,0.54-0.99,1.17-1.08C199.925,230.557,200.645,231.906,201.365,232.716z"/>
	<path fill="#FFFFFF" stroke="#FFFFFF" stroke-width="0" stroke-linecap="square" stroke-miterlimit="2" d="M201.186,234.517
		c-0.18,0.18-0.45,0.45-0.63,0.18c-0.72-0.63-1.08-1.26-1.26-2.16c0.36-0.36,0.72,0.27,1.08,0.36
		C200.735,233.437,201.275,233.796,201.186,234.517z"/>
	<path fill="#FFFFFF" stroke="#FFFFFF" stroke-width="0" stroke-linecap="square" stroke-miterlimit="2" d="M201.905,240.097
		c-0.09,0.45-0.54,0.63-0.9,0.81c-0.27,0.09-0.54,0-0.63-0.27c0-0.45,0.45-0.63,0.63-0.9
		C201.365,239.646,201.726,239.736,201.905,240.097z"/>
	<path fill="#FFFFFF" stroke="#FFFFFF" stroke-width="0" stroke-linecap="square" stroke-miterlimit="2" d="M203.525,242.707
		c-0.18,0.45,0.36,0.81,0,1.17l-0.81-0.54c-0.99,0.27,0.63,1.89-0.81,1.35c-0.63-0.54-0.63-1.44-0.72-2.07
		c0.18-0.54,0.9-0.63,1.35-0.63C202.895,242.166,203.525,242.166,203.525,242.707z"/>
	<path fill="#FFFFFF" stroke="#FFFFFF" stroke-width="0" stroke-linecap="square" stroke-miterlimit="2" d="M200.555,244.597
		c0.36,0.27,0.63,0.72,0.63,1.17c-0.72-0.09-0.81-1.17-1.17-1.71c0-0.45-0.45-0.9,0-1.17
		C200.735,243.156,200.195,244.146,200.555,244.597z"/>
	<path fill="#FFFFFF" stroke="#FFFFFF" stroke-width="0" stroke-linecap="square" stroke-miterlimit="2" d="M197.405,244.327
		c0.54,0.99,0.99,1.98,1.26,3.06c-0.54,1.62-1.35,3.06-2.7,4.05c-4.68,2.34-9.81,3.69-14.49,5.94c-0.72-0.09-1.71,0.9-1.98-0.27
		c0.18-0.45,0.45-1.17,0-1.62l-1.35-0.63c-0.54-0.9-0.45-1.8-0.81-2.7c-0.09-0.81-0.72-1.44-0.54-2.43
		c2.07-0.72,4.05-1.35,6.03-2.25c1.44,0.09,3.06,0.99,4.59,0.09h0.45c0.9-0.9,2.34-1.89,2.97-3.15c0.9-0.09,1.26-0.99,2.16-0.9
		c0.63-0.27,1.35-0.09,1.89,0C195.695,243.787,196.416,244.416,197.405,244.327z"/>
	<path fill="#FFFFFF" stroke="#FFFFFF" stroke-width="0" stroke-linecap="square" stroke-miterlimit="2" d="M199.746,246.306
		c-0.18,0.27-0.45-0.09-0.45-0.27c-0.27-0.81-0.63-1.62-0.72-2.43C199.385,244.146,199.655,245.316,199.746,246.306z"/>
	<path fill="#FFFFFF" stroke="#FFFFFF" stroke-width="0" stroke-linecap="square" stroke-miterlimit="2" d="M189.306,244.146
		c-0.18,0.99-1.08,1.62-1.8,2.16c-0.45,0.27-0.99-0.27-0.99-0.63c-0.27-0.63,0.18-1.17,0.72-1.35c0.54-0.27,1.26-0.27,1.89-0.45
		L189.306,244.146z"/>
	<path fill="#FFFFFF" stroke="#FFFFFF" stroke-width="0" stroke-linecap="square" stroke-miterlimit="2" d="M209.376,248.736
		c-1.44-0.18-1.62-1.98-2.34-2.97c0-0.45,0.09-0.9,0.63-0.99C208.925,245.497,209.555,247.207,209.376,248.736z"/>
	<path fill="#FFFFFF" stroke="#FFFFFF" stroke-width="0" stroke-linecap="square" stroke-miterlimit="2" d="M206.855,247.026
		c0.63,1.71,1.98,2.79,3.6,3.51c1.62,0.99,3.06,2.25,4.499,3.329c0.81,0.9,1.98,1.171,2.43,2.16c-0.09,0.63-0.54,1.26-1.17,1.44
		c-0.63-0.36,0.18-0.9-0.27-1.44c-1.89-1.89-4.23-3.15-6.48-4.68c-0.63-0.36-0.81-1.17-1.62-1.08c-0.45,0.63,0,1.26-0.18,2.07
		c-0.27,1.98-1.17,3.78-1.26,5.85c0.9,1.08,0.09,2.25,0.36,3.51c-0.54,0.09-0.45-0.72-0.63-1.08c-0.54-1.35-0.09-2.88-0.18-4.32
		c-1.08-2.07,0.81-3.69,0.54-5.85c0.18-1.53-0.18-2.79-0.54-4.23l0.18-0.45C206.585,245.946,206.496,246.666,206.855,247.026z"/>
	<path fill="#FFFFFF" stroke="#FFFFFF" stroke-width="0" stroke-linecap="square" stroke-miterlimit="2" d="M220.805,249.187
		c-0.99,0.09-0.99-1.08-1.53-1.53c-0.27-0.54-0.54-1.44,0-1.89C220.355,246.577,220.895,247.926,220.805,249.187z"/>
	<path fill="#FFFFFF" stroke="#FFFFFF" stroke-width="0" stroke-linecap="square" stroke-miterlimit="2" d="M204.695,246.306
		c0,0.36-0.27,0.54-0.54,0.72c-0.45,0.09-0.81,0.09-1.17,0c-0.27-0.18-0.09-0.45,0-0.54
		C203.436,246.037,204.425,245.406,204.695,246.306z"/>
	<path fill="#FFFFFF" stroke="#FFFFFF" stroke-width="0" stroke-linecap="square" stroke-miterlimit="2" d="M205.235,249.997
		c0.36,1.26-0.54,2.52-1.62,3.24c-0.45,0.36-1.17,0.18-1.62-0.18c-0.72-1.35-2.88-2.88-1.44-4.5
		C202.175,247.207,204.605,248.287,205.235,249.997z"/>
	<path fill="#FFFFFF" stroke="#FFFFFF" stroke-width="0" stroke-linecap="square" stroke-miterlimit="2" d="M175.446,252.787
		c-0.18,1.17,1.08,1.89,0.81,2.97c-0.54,0.45-0.63,1.08-0.54,1.62c0.18,0.99,2.25,0.27,1.35,1.53c-2.16,0.27-4.5,3.15-6.48,0.9
		c-0.99-1.98-1.98-3.96-2.07-6.3c0.54-1.53,2.16-1.35,3.33-2.07c0.63-0.63,1.98-0.54,2.25-1.71
		C174.996,250.446,174.726,251.977,175.446,252.787z"/>
	<path fill="#FFFFFF" stroke="#FFFFFF" stroke-width="0" stroke-linecap="square" stroke-miterlimit="2" d="M217.565,252.426
		c-0.18,0.72-1.17,0.63-1.62,1.17c-0.27,0.09-0.27-0.09-0.45-0.27c0-0.45,0.45-0.9,0.9-1.08
		C216.845,252.517,217.295,251.886,217.565,252.426z"/>
	<path fill="#FFFFFF" stroke="#FFFFFF" stroke-width="0" stroke-linecap="square" stroke-miterlimit="2" d="M199.025,252.426
		c0.9,0,1.89,0.36,2.25,1.26c0.63,0.63-0.09,1.35-0.36,2.07c-0.63,1.17-1.98,0.81-2.79,1.71c-3.51,0.36-4.86,5.04-8.55,4.5
		c-1.08-0.81-2.88-0.54-3.15-2.25c-0.54-1.08,0.72-1.53,1.17-2.34c1.35-0.36,2.52-1.71,3.96-2.25c1.98-0.99,3.87-2.07,6.12-2.52
		C197.765,252.156,198.666,252.606,199.025,252.426z"/>
	<path fill="#FFFFFF" stroke="#FFFFFF" stroke-width="0" stroke-linecap="square" stroke-miterlimit="2" d="M213.876,255.576
		c-0.18,0.9-0.81,1.71-1.08,2.61c-0.63-0.72-0.09-2.07,0-2.88C213.155,254.946,213.785,255.126,213.876,255.576z"/>
	<path fill="#FFFFFF" stroke="#FFFFFF" stroke-width="0" stroke-linecap="square" stroke-miterlimit="2" d="M219.095,255.666
		c0,0.99-0.99,1.35-1.44,2.07c0.27-0.72,0.72-1.62,0.99-2.43C218.915,255.216,219.005,255.576,219.095,255.666z"/>
	<path fill="#FFFFFF" stroke="#FFFFFF" stroke-width="0" stroke-linecap="square" stroke-miterlimit="2" d="M117.396,256.296
		c0.45,0.63,0.72,1.44,0.45,2.16c-0.54,1.62-2.43,1.62-3.78,2.07c-1.44,0.36-2.43,0.72-3.96,0.72c-1.08,0.18-2.25,0-3.15,0.72
		c-0.81-0.09-1.8,0.18-2.07-0.63c1.35-1.8,3.69-1.26,5.49-1.89l4.14-0.99c0.18-0.09,0.36-0.36,0.27-0.63
		c-1.08-0.09-2.16,0.18-3.24,0.36c-3.51,0.72-7.29,1.08-10.8,1.53c-1.35-0.09-2.79,0.36-4.23,0.09c-3.15,0.27-6.3-0.18-9.36-0.09
		c-3.33-0.72-6.66-1.53-9.72-2.88c-0.63,0-1.44-0.27-2.07-0.63c0.54-0.45,1.08,0.54,1.8,0c2.16,0.72,4.5,1.53,6.75,1.44
		c0.36,0.54,0.81,0,1.26,0.27c5.58,0.81,11.7,0.27,17.28-0.54c2.25-0.72,4.41-0.9,6.84-1.26c0.36-0.18,1.17,0,1.62-0.09
		c0.81-0.27,1.89,0.09,2.7-0.36C114.876,256.116,116.496,254.946,117.396,256.296z"/>
	<path fill="#FFFFFF" stroke="#FFFFFF" stroke-width="0" stroke-linecap="square" stroke-miterlimit="2" d="M203.345,259.176
		c0.09,1.89-1.8,2.79-2.97,4.14c-2.43,1.71-4.68,3.06-7.29,4.32c-1.98,0.09-3.15,1.44-4.59,2.61c-1.26,0.99-1.71,2.52-2.7,3.78
		c-2.97,2.79-4.77,6.48-8.1,8.82c-0.54,0.36-1.08-0.27-1.53-0.63c-0.27-0.18-0.27-0.72,0-0.9c3.15-2.07,4.59-5.58,6.57-8.55
		c1.35-4.5,6.48-5.67,9.27-9c0.99-1.08,2.34-1.8,3.51-2.789c0.36,0.18,0.36-0.271,0.54-0.45c1.44-0.9,2.97-1.62,4.59-2.07
		c0.72,0.18,1.44-0.81,2.16-0.27L203.345,259.176z"/>
	<path fill="#FFFFFF" stroke="#FFFFFF" stroke-width="0" stroke-linecap="square" stroke-miterlimit="2" d="M204.785,261.066
		c0,1.53-1.62,1.71-2.52,2.7c-1.98,1.62-4.23,2.97-6.3,4.59c-1.26,0.63-2.7,1.26-4.23,1.35c-0.45,0.54-1.08,0.81-1.26,1.44
		c-1.8,0.18-1.8,2.25-3.06,3.24c-1.98,2.43-4.05,4.5-6.21,6.84h-0.09c0.18-1.26,1.98-1.98,2.249-3.42c0.9-0.27,1.17-1.08,1.62-1.71
		c1.17-1.17,1.98-2.43,2.97-3.87c0.36-1.62,2.43-1.26,2.88-2.79c1.35-0.54,2.7-0.99,4.05-1.53c2.61-1.53,5.04-3.15,7.47-4.95
		c0.81-0.81,1.35-1.62,2.07-2.52C204.695,260.436,204.876,260.886,204.785,261.066z"/>
	<path fill="#FFFFFF" stroke="#FFFFFF" stroke-width="0" stroke-linecap="square" stroke-miterlimit="2" d="M99.126,261.607
		c-3.15,0.72-6.21,1.62-9.27,2.7c-1.53,0.27-2.97,0.81-4.41,0.9l-0.09-0.09c-1.17,0.81-3.06,0.63-4.41,1.17
		c-2.61,0.72-5.49,0.9-8.1,1.35c-0.18-0.09-0.18-0.27-0.18-0.36c1.44-0.72,3.33-0.72,4.86-1.08c0.99,0.09,1.89-0.45,2.79-0.27
		c0.63,0,1.08-1.08,1.62-0.27c3.42-0.81,6.66-1.89,9.81-3.42c0.72,0.09,1.17-0.36,1.8-0.63
		C95.256,261.156,97.686,260.167,99.126,261.607z"/>
	<path fill="#FFFFFF" stroke="#FFFFFF" stroke-width="0" stroke-linecap="square" stroke-miterlimit="2" d="M189.036,264.216
		c0.18,0.27,0.63,0.18,0.63,0.45l-0.18,0.45c-1.44,0.9-2.7,1.98-4.23,2.7c-0.99-0.81-1.89-2.07-1.8-3.42
		c0.45-0.63,0.45-1.62-0.45-1.89c-0.27,0-0.36-0.63,0-0.63C184.985,262.776,186.965,263.946,189.036,264.216z"/>
	<path fill="#FFFFFF" stroke="#FFFFFF" stroke-width="0" stroke-linecap="square" stroke-miterlimit="2" d="M113.976,263.496
		c3.24,2.61,7.11,4.23,10.98,5.58c2.61,0.99,5.31,1.89,7.56,3.87c3.06,2.52,6.66,4.05,10.26,5.49c1.53,0,3.24,0.63,4.86,0.09
		c4.05,0.18,7.65-0.9,11.43-1.44c2.43,0,4.95-0.81,7.47-0.9c0.45,0.18,0.99,0,1.35-0.27c1.08-0.36,2.25-0.09,3.33-0.63l0.36,0.18
		c0.99-0.36,2.07-1.17,3.15-0.81c0.27,0.99-1.17,1.08-1.71,1.53c-5.22,0.81-10.17,1.89-15.57,2.43l-0.18-0.18
		c-2.79,0.63-5.4,1.26-8.28,1.26c-0.63,0.27-1.08-0.18-1.62,0.18c-0.9,0.09-1.71-0.36-2.7-0.09c-2.34-0.54-4.86-0.72-6.93-1.89
		c-1.26-0.99-2.79-1.71-4.14-2.52c-0.09-0.54-0.54-0.63-0.9-0.99c-4.05-2.61-8.37-4.59-12.78-6.3c-3.15-1.44-6.21-3.69-9-5.76
		c0.09-0.54,0.72-0.27,0.99-0.27L113.976,263.496z"/>
	<path fill="#FFFFFF" stroke="#FFFFFF" stroke-width="0" stroke-linecap="square" stroke-miterlimit="2" d="M218.195,263.316
		c0.18,0.72-0.72,0.72-0.81,1.17C217.025,263.946,217.835,263.496,218.195,263.316z"/>
	<path fill="#FFFFFF" stroke="#FFFFFF" stroke-width="0" stroke-linecap="square" stroke-miterlimit="2" d="M209.825,263.766
		c1.71,0.9,2.7,2.97,4.77,3.51c0.63,0.09,1.62-1.08,2.07,0c0.18,1.71-0.99,2.88-2.34,3.78c-0.63,0.18-1.08-0.09-1.62,0.09
		c-1.979-0.54-3.6-1.89-4.86-3.51c-0.09-0.9-0.72-1.8-0.18-2.7C208.476,264.486,208.746,263.316,209.825,263.766z"/>
	<path fill="#FFFFFF" stroke="#FFFFFF" stroke-width="0" stroke-linecap="square" stroke-miterlimit="2" d="M205.505,264.756
		c-1.44,3.06-4.95,4.14-7.56,5.76c-2.88,1.62-6.3,2.61-8.28,5.67c-0.45,0.72-1.26,1.44-1.98,1.98l0.09-0.63
		c1.53-2.16,2.97-3.87,5.04-5.31c3.42-1.35,6.57-3.15,9.63-5.13c1.08-0.81,1.71-2.16,2.97-2.7L205.505,264.756z"/>
	<path fill="#FFFFFF" stroke="#FFFFFF" stroke-width="0" stroke-linecap="square" stroke-miterlimit="2" d="M182.645,268.626
		c0.27,0.99-0.36,1.8-0.99,2.52c-0.63,0.36-1.26-0.54-1.62-0.99c-0.54-1.35-2.16-2.52-1.53-4.14c0.72-0.54,1.71-0.54,2.43-0.18
		C181.835,266.646,181.925,267.726,182.645,268.626z"/>
	<path fill="#FFFFFF" stroke="#FFFFFF" stroke-width="0" stroke-linecap="square" stroke-miterlimit="2" d="M181.746,272.676
		c-0.27,1.89-2.61,0.63-3.42,1.71c-0.54,1.26,0.45,2.25,0.54,3.33c-0.45,0.27-0.99,0.9-1.53,0.45c-1.26-1.35-0.81-3.51-0.63-5.13
		c1.44-0.99,3.24-0.81,4.95-0.81L181.746,272.676z"/>
	<path fill="#FFFFFF" stroke="#FFFFFF" stroke-width="0" stroke-linecap="square" stroke-miterlimit="2" d="M179.946,282.396
		c-0.36,0.45-0.54,1.17-1.26,1.26C178.956,283.206,179.226,282.306,179.946,282.396z"/>
	<path fill="#FFFFFF" stroke="#FFFFFF" stroke-width="0" stroke-linecap="square" stroke-miterlimit="2" d="M177.426,284.646
		c0.63,1.53-0.99,2.07-1.89,2.61c-2.52,0.81-4.77,2.43-7.56,2.07c-0.18-0.18-0.27,0-0.45,0c-1.17-0.27-2.16-0.99-3.059-1.71
		c-0.36-0.81-0.09-1.62,0.45-2.16c0.81-0.36,1.89-0.27,2.7-0.09c0.63,0.09,1.35-0.09,2.07,0c0.99-0.45,1.98-0.9,3.15-0.81
		c0.27-0.09,0.27-0.27,0.54-0.09C174.726,284.376,176.616,282.306,177.426,284.646z"/>
	<polygon fill="#FFFFFF" stroke="#FFFFFF" stroke-width="0" stroke-linecap="square" stroke-miterlimit="2" points="
		164.736,285.006 164.736,285.006 164.826,285.366 164.736,285.366 	"/>
</g>
<g>
	<path d="M178.534,132.814c1.372,9.519,3.485,19.38,4.98,28.7c0.4,0.2,0.1,0.5,0.1,0.7c2.1,11.1,3.7,21.6,6.1,32.6
		c0.1,0.3,0.3,0.9,0.3,1.2c0.4,1.2,0.2,2.7,0.6,4.1c0,0.7,0,1.4-0.1,2.2l-0.6,4.4c-0.5,0.4-0.3,1.2-0.4,1.6
		c-0.6,1.1-1.1,2.3-1.4,3.4c-1.6,1.5-2,3.8-3.8,5c0.2,0.4-0.4,0.4-0.5,0.7c0.1,0.5-0.5,0.1-0.8,0.5l-0.4,0.8c-0.4-0.3-0.7,0.1-1,0.3
		c-0.1,0.4-0.5,0.4-0.8,0.4c-1.3,1.3-2.9,2.3-4.7,3c0,0.5-0.4,0-0.6,0.1c-1.7,0.9-4,0.5-5.8,1.2c-2.8-0.2-6.3-0.1-9.3-0.7
		c-3-0.8-5.9-1.8-8.4-3.5c-1.9-2.1-4.9-3.4-5.8-6.1c-2.2-2.4-1.9-6.2-3.1-9.3c0.1-1.1-0.1-2.1,0.2-3c-0.5-0.9,0.5-1.4,0.1-2.4
		c0.6-0.7,0.1-2,0.9-2.9c1-2.8,3.3-4.2,5.2-6.5c0.7-0.2,1.5-0.5,2-1c1.2,0,2.2-0.8,3.4-0.9c0.8,0.6,1.7-0.7,2.3,0.1
		c0.6-0.2,1.5,0,2.1,0.4c0.4-0.3,0.6,0.1,0.8,0.4c0.5,0,0.9-0.7,1.2,0c0.2,0.4,0.4,0.5,0,0.9c-0.5,0.1-0.9-0.5-1.4-0.1
		c-1.2,0.8-1.7,1.9-2.5,3.1c0.1,0.6-0.1,1.7,0.4,2.3c0.3,0.7,0.5,1.3,1.2,1.8c0.3,0.5,1.3,0.3,1.7,0.8c1.2,0.5,2.4-0.1,3.5-0.4
		c0.4-0.4,0.9-0.7,1-1.2h0.3c0.6-1,1-2.2,1.2-3.3c0-2.7-0.9-5.8-3.6-6.9c-0.9-1-2.4-1.5-3.7-2.1c-0.6,0.2-1.2-0.5-2-0.3l-0.1-0.2
		c-0.3,0.5-0.8-0.2-1.3,0.3c-0.9,0-1.9-0.1-2.7,0.4c-0.8-0.2-1.2,0.2-2,0.4c-4.4,2-7.7,5.7-10.6,9.3c-0.4,1.1-1.3,2.2-1.9,3.2
		c-2.3,2.4-2.9,5.1-5,7.6c-1.3,1.9-2.2,4.1-3.9,5.9c0.3,0.6-0.3,0.5-0.4,0.9c-1.9,2.1-3.7,4.3-5.9,6.3c-0.6,0.3-1.1,0.7-1.6,1.2
		c-1.2-0.1-2,1.4-3.1,1.2c-1.1,0.3-2.2,0.7-3.2,1.3c-1.5-0.3-3.1,0.8-4.4,0c-1.8,0-3.3-0.6-4.9-1.2c-0.4-0.1-1-1.1-1.6-0.7
		c-1.3-1.1-2.9-2.8-3.2-4.4c0-0.7-1.1-0.7-0.8-1.5l-0.1-0.1c-0.162-2.19,9.673-58.25,13.664-80H178.534z"/>
	<path d="M114.378,132.814c0.93-5.068,1.636-8.924,1.636-8.924s-13.3,0.124-13.9-0.076c0.1-0.3,0.017-35.7,0.017-35.7l15.466-0.1
		l-0.017-30l30.834-16.1l31.259,16.1c0,0-0.159,29.3,0.042,29.8c0.4,0,14.659,0.076,14.659,0.076s0.341,34.624-0.059,35.224
		c0,0.1,0.2,0.2,0.1,0.3c-1.1,0.1-14.4-0.1-17.1,0c0.2,1.5,0.2,3.8,0.7,5.5c0.157,1.292,0.331,2.593,0.52,3.9H114.378z"/>
	<path fill="#FFFFFF" stroke="#FFFFFF" stroke-width="0" stroke-linecap="square" stroke-miterlimit="2" d="M166.314,123.88
		l5,24.334l1.4,6.5l1.7,10.2c0,0,2.3,12.4,3.7,18.9c-0.2,0.6,0.3,1.3,0,2c0.8,1.7,0.9,3.4,1.2,5.2c0,0.6,0.5,1.4,0.5,2.1
		c0.5,1.6,0.5,3.5,0.9,5.2c-0.2,1.2,0.7,2.5,0.1,3.7c0.1,1.1-0.5,1.8-0.5,3c-0.4,3-2.1,5.4-4.5,7.2c-2,1.2-3.7,2.1-5.9,3
		c-2.1,0.7-4.8,0-7-0.6c-0.6,0-1.1-0.6-1.7-0.7c-1.6-0.9-3.8-1.4-4.9-3.2c-0.6-2.1-2-3.6-1.4-5.7c1,0.7,2.1,1.4,3.1,1.9l2.1,0.2
		c0.9,0.5,2.2,0.3,3.2,0.4c0.5-0.4,0.8-0.1,1.4-0.2c0.7,0,1.4-0.5,2-0.4c3.3-0.6,5.6-3.3,7.7-6c0.7-0.9,1.1-1.9,1.7-3
		c0.1,0,0.2,0,0.3-0.1c-0.6-0.5,0.2-1,0-1.5l0.2-0.2c0.2-1.4,0.7-2.8,0.4-4.4c0.5-1.2,0.1-2.6-0.4-3.7c0-0.7,0-1.6-0.6-2.1
		c-0.7-1-0.2-2.5-1.2-3.4c-0.5-1.9-2.2-2.9-3.2-4.4c-2.4-2.8-5.5-4.1-8.8-5.2c-0.8,0.2-1.7-0.6-2.5-0.3c-0.9-0.7-2.1,0-3-0.6
		c-1.2,0.1-2.5,0-3.7,0.2l-0.3-0.3c-1.5,0.2-3,0.4-4.3,1c-0.6-0.2-1,0.5-1.7,0.4c-2,1.3-4.6,1.4-6.1,3.3l0,0
		c-1.1,0.5-2.1,1.6-2.9,2.6c-1,0.4-1.5,1.4-2,2.2c-0.6,0.6-1.4,0.9-1.5,1.8c-0.5,0.1-0.5,1.3-1.1,0.7c0.3,0.5-0.3,0.8-0.5,1.3
		c-0.9,0-0.2,1-1,1.2c-0.9,1.5-1.6,2.8-2.6,4.4c-0.6,1.2-1.4,2.2-1.9,3.5c-0.5,0-0.2,0.6-0.3,0.8c-0.6,0.9-1.3,1.7-1.7,2.7
		c-0.8,0.5-1,1.7-1.6,2.3c0.2,0.2,0,0.4-0.2,0.6l-0.6,0.4c0.3,0.7-0.5,1.4-0.7,2.1c-0.8,0.8-1.3,2.1-2.2,2.8c-1.1,1.2-2.5,2.4-4.3,2
		c-0.7,0.3-1.1-0.7-1.8-0.3c-0.6-0.9-1.8,0-1.9-1.2c-0.6-0.5-0.3-1.1-0.5-1.7c0.3-2.3,13.7-81,13.7-81L166.314,123.88z"/>
	<path stroke="#000000" stroke-width="0" stroke-linecap="square" stroke-miterlimit="2" d="M139.414,206.314
		c-1,0.5,0.3,1.7-0.3,2.3c0.1,0.5-0.1,1.1,0,1.7c0.7,0.6,0.3,1.6,0.4,2.3c0.8,2.7,2.4,4.9,3.4,7.4c1.1,0.7,1.3,2.5,2.6,2.8
		c0.5,1.1,1.9,1,2.4,2c1.4,0.7,2.5,1.1,3.8,2.1c1.2,0.3,2.4,0.9,3.4,1.6c0.2-0.2,0.3,0.2,0.5,0.3c3,0.4,5.5,1.3,8.4,1.3
		c0.5-0.2,0.8-0.2,1.3-0.1c0.7,0.2,1.7,0.1,2.4-0.2c1.6,0.4,3.2-0.1,4.8-0.5c0.6-0.4,1.6-0.1,2-0.7c0.9,0.3,1.6-0.9,2.6-0.8
		c-0.1-0.7,0.6-0.2,0.8-0.5c1.6-0.6,3.1-1.7,4.6-2.5c1.3-0.8,2.6-1.7,3.4-3c1.9-1.4,3.2-3.8,4.9-5.7c0.6-1.3,1.1-2.9,2.1-3.8
		c0.8,0.4,1.3,1.4,2.2,1.8c1.8,1.2,3.9,2,6,2.4c0.4,0.4,0.9,0.1,1.4,0.3c2,0,4.4,0.8,6.4,0.6c0.9,0.6,2,0,2.8,0.3
		c1.1-0.1,2.1,0.2,3-0.3c0.5,0.2,0.9,0,1.4-0.1c0.3-0.2,0.4-0.3,0.8-0.2c2.3-0.4,4.6-1.6,6.4-3.2c-0.2-0.4,1.2-0.9,0.7-1.6
		c0.1-0.1,0.4-0.6,0.7-0.6c0.9,0.3,0.5,1.3,0.9,2.1c0.2,1.3-0.3,2.1,0,3.3c-0.3,1.2-0.1,2.4,0,3.6c0,0.3-0.1,0.8-0.1,1.3
		c0.1,1,0.2,2-0.6,2.7c0.2,0.5-0.3,0.2-0.5,0.5c-0.3,0.3-0.4,1-0.9,0.7c-2.1,0.7-4.1,2.3-6.4,1.9c-0.6,0.1-1.3,0.2-2,0.3
		c-0.3-0.3-0.7,0.1-1,0.1c-2.3-0.2-4.8,0.3-7.1-0.1c-1.4,0.1-3.2,0-4.6-0.6c-0.2,0.4-0.6,0-0.9,0c-1.5,0-3-0.6-4.5-1.1
		c-0.2-0.5-0.8-0.3-1.2-0.4c-0.1,0.4-0.5,0.4-0.6,0.9l0.1,0.1c-0.8,0.8-1.7,1.8-2.4,2.7l0.2,0.2c-1.5,0.3-2.1,2.4-3.8,2.8
		c-0.8,1.3-2.7,1.5-3.8,2.8c-1.9,1.2-4.1,1.8-6.1,2.5l-0.6,0.4c-2,0.2-3.7,0.9-5.8,1.2c-1.2-0.2-2.3,0.4-3.6,0.5l-3.8-0.1l-0.1,0.2
		c-1.5-0.5-2.5-0.1-4.1-0.4c-0.5,0-1,0.2-1.5-0.2c-0.1,0.3-0.3-0.1-0.5-0.2c-2.1-0.2-4-0.7-6-1.3c-0.5,0.6-1-0.3-1.6-0.1
		c-0.3-0.5-0.9-0.1-1.3-0.5c-1.2-0.5-2.4-1.1-3.5-1.9c-2-0.5-3.7-1.6-5.4-2.7l-5.2-5.6c-2.3,2.3-4.6,5.1-7.7,6.3
		c-1.9,1-4.1,2-6.2,2.3c-0.1,0.4-0.8,0.2-1,0.6c-1.3,0.5-2.6-0.1-3.9,0.6c-0.7-0.1-1.5,0.1-2.4,0.1c-3,0.1-5.9-0.1-9.1-0.6
		c-4.8-1.2-9.8-2.9-13.8-6l-1.8-1.7l-0.1,0.1c0-0.3-0.5-0.6-0.8-0.5c0.1-0.5-0.6-0.7-0.7-1c-0.7,0.6-1.8,0.7-2.6,1.3
		c-0.6,0-1.4-0.2-1.7,0.5c-1.8,0-3.7,1.1-5.6,0.8c-1.1,0.2-2,0.3-3,0.1c-2,0.2-4.3-0.2-6.1-0.1c0-0.3-0.4-0.2-0.5-0.1
		c-0.4-0.2-0.6-0.8-1.3-0.4c-2.3-0.9-4.5-2-6.2-4c-0.3-2.9,0.5-6.2,0-9.1c-0.3-1.4-0.1-2.6,0.3-3.9c0.2-0.2,0.4,0,0.6,0.1
		c0,1.3,1.4,1.9,2.2,2.7c0.2,0.6,1,0.9,1.6,1.2c0.4,0.3,1.1,0.3,1.4,0.8c1,0,1.7,1.1,2.7,1c0.9,0.2,1.9,0.5,2.8,0.8
		c1.9,0,3.8,0.9,5.8,0.2c1.9,0.2,4.2-0.4,6.1-0.5c1.7-0.3,3.3-0.9,4.9-1.7c1.1-0.1,2.1-1,2.8-2c1,0.3-0.1,1.6,1.1,1.8
		c1.4,1.8,2.3,3.6,4.3,4.5c1.4,0.7,2.4,1.9,3.9,2.2c1.1,1,2.9,1.2,4.3,1.8c2.6,1.1,5.5,1.8,8.4,1.1c1,0.3,2.1-0.3,3.3-0.2
		c2.6-1.2,5.4-1.9,7.9-3.5c0.3-0.6,1.3-0.8,1.5-1.5c1.4-0.6,2.1-2.4,3.6-2.9c0.3-0.5,1.2-0.7,1.4-1.5c2.2-1.9,2.7-4.9,4.3-7.2
		c0.7-1,0.8-2.4,0.6-3.6C138.114,206.214,138.914,205.714,139.414,206.314z"/>
	<rect x="114.214" y="98.614" fill="#FFFFFF" width="69" height="13.9"/>
	<rect x="126.914" y="63.614" fill="#FFFFFF" width="42.9" height="24.2"/>
</g>
<path d="M43.256,222.964c-0.625-0.905-0.838-1.895-0.642-2.966c0.197-1.071,0.748-1.919,1.653-2.544
	c0.906-0.625,1.9-0.838,2.983-0.639c1.083,0.2,1.932,0.745,2.547,1.636c0.625,0.906,0.838,1.9,0.64,2.983
	c-0.198,1.083-0.75,1.937-1.657,2.561c-0.905,0.624-1.894,0.839-2.965,0.643C44.744,224.442,43.891,223.884,43.256,222.964z"/>
<path d="M39.24,167.603l1.621-0.508c0.516,1.817,0.978,3.378,1.387,4.682c0.315,1.006,0.645,1.968,0.986,2.884
	c-0.536,0.51-1.092,1.216-1.669,2.12l-3.035,4.943c-2.381,3.763-3.631,5.759-3.751,5.987c-0.364,0.62-0.568,1.079-0.611,1.379
	c-0.032,0.201-0.029,0.364,0.01,0.488c0.031,0.1,0.083,0.179,0.156,0.237c0.057,0.051,0.113,0.077,0.168,0.081
	c0.056,0.003,0.202-0.033,0.438-0.107l4.193-1.315l3.672-1.213c0.978-0.32,1.561-0.592,1.75-0.816
	c0.11-0.13,0.169-0.332,0.178-0.608c0.01-0.275-0.178-1.111-0.561-2.505l1.621-0.509c0.565,2.061,1.202,4.222,1.911,6.483
	c0.631,2.013,1.232,3.796,1.801,5.351l-1.622,0.509c-0.467-1.272-0.815-2.078-1.044-2.416c-0.092-0.121-0.209-0.21-0.351-0.269
	c-0.141-0.058-0.335-0.079-0.583-0.063c-0.247,0.016-0.755,0.124-1.525,0.325c-1.874,0.465-3.221,0.826-4.041,1.083l-6.765,2.122
	l-5.736,1.943c-1.409,0.469-2.329,0.819-2.762,1.051c-0.253,0.148-0.411,0.276-0.473,0.384c-0.061,0.108-0.089,0.257-0.085,0.446
	c0.011,0.297,0.196,1.146,0.554,2.548l-1.64,0.515c-0.42-1.601-0.948-3.414-1.584-5.439c-0.709-2.261-1.419-4.392-2.128-6.394
	l1.64-0.515c0.489,1.43,0.863,2.274,1.122,2.534c0.17,0.151,0.448,0.207,0.831,0.169c0.854-0.104,2.413-0.511,4.673-1.221
	l5.143-1.613l0.037-0.339c-1.298-0.875-3.316-2.002-6.055-3.381l-3.532-1.799c-1.151-0.581-1.973-0.984-2.468-1.211l-2.434-1.038
	c-0.265,0.07-0.744,0.24-1.436,0.512c-0.369-1.262-0.622-2.111-0.758-2.546l-1.411-4.368l1.509-0.474
	c0.388,1.148,0.741,1.958,1.059,2.431c0.319,0.473,0.904,1,1.754,1.579c0.851,0.579,2.725,1.724,5.622,3.435l4.651,2.43
	c0.559-0.83,1.342-2.052,2.351-3.665l3.509-5.584c1.62-2.582,2.684-4.322,3.194-5.218c0.511-0.897,0.782-1.521,0.815-1.873
	C39.574,168.897,39.474,168.349,39.24,167.603z"/>
<path d="M12.879,154.562l1.711-0.163c0.164,1.306,0.287,2.079,0.369,2.319c0.082,0.241,0.17,0.409,0.264,0.504
	c0.094,0.096,0.208,0.157,0.341,0.184c0.229,0.07,0.656,0.094,1.282,0.073c0.34-0.006,0.977-0.047,1.911-0.124
	c3.193-0.253,4.913-0.392,5.16-0.415l7.835-0.75l3.553-0.398c1.336-0.128,2.197-0.275,2.586-0.444
	c0.177-0.069,0.308-0.17,0.393-0.302c0.086-0.132,0.145-0.334,0.177-0.605c0.033-0.271,0.002-1.043-0.094-2.316l1.711-0.164
	c0.125,2.121,0.301,4.38,0.53,6.777c0.2,2.087,0.417,3.943,0.65,5.569l-1.711,0.163c-0.18-1.343-0.3-2.116-0.359-2.32
	c-0.078-0.268-0.166-0.445-0.267-0.534c-0.1-0.089-0.21-0.14-0.329-0.155c-0.159-0.024-0.773-0.018-1.843,0.02
	c-1.565,0.045-3.009,0.131-4.331,0.257l-8.127,0.777c-2.579,0.247-4.237,0.419-4.974,0.515c-1.64,0.222-2.663,0.398-3.069,0.529
	c-0.164,0.055-0.288,0.129-0.371,0.222c-0.083,0.093-0.142,0.256-0.179,0.488c-0.037,0.233-0.013,1.058,0.07,2.475l-1.711,0.163
	c-0.079-1.641-0.219-3.517-0.421-5.63C13.412,158.906,13.159,156.667,12.879,154.562z"/>
<path d="M21.13,128.566l-0.136,1.635c-1.507-0.1-2.577-0.123-3.208-0.072c-0.604,0.355-1.168,1.01-1.693,1.966
	c-0.524,0.956-0.837,2.051-0.94,3.283c-0.147,1.765,0.184,3.168,0.992,4.208c0.808,1.042,1.809,1.611,3.002,1.711
	c0.858,0.059,1.565-0.026,2.119-0.254c0.555-0.228,1.009-0.582,1.362-1.062c0.354-0.48,0.702-1.202,1.043-2.167
	c0.218-0.74,0.5-1.771,0.846-3.095c0.346-1.324,0.581-2.182,0.705-2.577c0.36-1.028,0.759-1.851,1.196-2.468
	c0.438-0.617,0.921-1.096,1.453-1.437c0.532-0.341,1.187-0.603,1.967-0.786c0.78-0.183,1.643-0.235,2.59-0.156
	c1.661,0.138,3.092,0.605,4.293,1.397c0.904,0.599,1.71,1.391,2.418,2.377c0.708,0.987,1.216,1.983,1.524,2.989
	c0.493,1.609,0.648,3.504,0.466,5.684c-0.133,1.596-0.401,3.004-0.803,4.225c-0.402,1.221-1.028,2.547-1.88,3.979
	c-1.446-0.526-3.679-0.921-6.702-1.187l0.136-1.635c0.932,0.104,2.1,0.13,3.502,0.077c0.846-0.425,1.624-1.21,2.333-2.353
	c0.71-1.143,1.124-2.421,1.241-3.836c0.103-1.232-0.022-2.35-0.376-3.354c-0.354-1.003-0.896-1.753-1.625-2.252
	c-0.729-0.498-1.581-0.789-2.554-0.87c-0.817-0.068-1.531,0.026-2.14,0.282c-0.609,0.257-1.116,0.695-1.521,1.314
	c-0.404,0.62-0.863,1.731-1.375,3.334c-0.689,2.308-1.175,3.822-1.458,4.543c-0.43,1.088-0.992,1.946-1.685,2.574
	c-0.692,0.628-1.504,1.074-2.434,1.335c-0.929,0.263-1.914,0.35-2.952,0.263c-1.453-0.121-2.768-0.538-3.943-1.25
	c-1.175-0.712-2.058-1.596-2.65-2.651c-0.591-1.055-0.981-2.225-1.167-3.508c-0.187-1.283-0.225-2.586-0.115-3.91
	c0.115-1.375,0.35-2.698,0.704-3.969c0.354-1.27,0.804-2.36,1.351-3.268l0.48-0.117c0.828,0.252,1.644,0.454,2.448,0.606
	C18.749,128.266,19.81,128.416,21.13,128.566z"/>
<path d="M41.466,124.664l-1.622-0.571c0.387-1.175,0.601-1.901,0.642-2.176c0.042-0.275,0.038-0.49-0.011-0.646
	c-0.049-0.155-0.15-0.287-0.305-0.397c-0.325-0.252-1.155-0.62-2.489-1.105l-3.64-1.364l-8.622-3.036l-3.655-1.204
	c-1.368-0.467-2.257-0.705-2.669-0.712c-0.189-0.011-0.351,0.025-0.483,0.109c-0.133,0.084-0.273,0.246-0.419,0.484
	c-0.146,0.238-0.439,0.943-0.879,2.113l-1.621-0.571c0.783-1.988,1.568-4.1,2.355-6.336c0.705-2.002,1.293-3.789,1.764-5.363
	l1.622,0.571c-0.414,1.332-0.634,2.124-0.661,2.377c-0.027,0.253,0.004,0.45,0.092,0.591c0.088,0.142,0.492,0.367,1.211,0.675
	c1.214,0.551,3,1.243,5.358,2.073l2.119,0.746c0.385-0.858,1.075-2.7,2.07-5.525c1.254-3.561,1.991-5.773,2.211-6.634l-2.119-0.746
	c-1.903-0.67-3.13-1.088-3.679-1.254c-1.668-0.477-2.615-0.727-2.841-0.752c-0.16-0.015-0.294,0.004-0.402,0.055
	c-0.108,0.052-0.227,0.175-0.358,0.371c-0.131,0.196-0.454,0.948-0.971,2.257l-1.621-0.571c0.618-1.521,1.28-3.283,1.985-5.285
	c0.787-2.235,1.499-4.373,2.134-6.413l1.621,0.571c-0.386,1.176-0.6,1.901-0.642,2.176c-0.041,0.275-0.038,0.491,0.011,0.646
	c0.049,0.156,0.151,0.288,0.306,0.397c0.337,0.258,1.167,0.625,2.489,1.104l3.659,1.371l8.622,3.036l3.637,1.198
	c1.38,0.472,2.268,0.716,2.663,0.731c0.193-0.001,0.36-0.042,0.5-0.125c0.139-0.082,0.279-0.243,0.419-0.484
	c0.141-0.241,0.431-0.946,0.87-2.117l1.621,0.571c-0.783,1.988-1.568,4.1-2.355,6.335c-0.705,2.002-1.293,3.79-1.764,5.363
	l-1.621-0.571c0.413-1.331,0.634-2.123,0.661-2.377c0.027-0.252-0.003-0.45-0.092-0.591c-0.088-0.141-0.492-0.366-1.212-0.675
	c-1.218-0.539-3.006-1.224-5.364-2.054l-3.85-1.356c-0.302,0.584-0.975,2.356-2.017,5.315c-0.999,2.837-1.652,4.733-1.961,5.687
	c-0.122,0.386-0.223,0.771-0.304,1.156l3.851,1.356c1.916,0.675,3.145,1.087,3.686,1.236c1.668,0.477,2.621,0.73,2.859,0.758
	c0.148,0.011,0.276-0.009,0.384-0.062c0.108-0.051,0.227-0.175,0.358-0.371c0.131-0.195,0.455-0.948,0.971-2.257l1.621,0.571
	c-0.619,1.521-1.28,3.283-1.985,5.285C42.813,120.487,42.102,122.624,41.466,124.664z"/>
<path d="M55.276,57.214l-1.043,1.266c-1.182-0.94-2.048-1.569-2.596-1.887c-0.699-0.052-1.535,0.165-2.511,0.652
	c-0.975,0.487-1.856,1.208-2.643,2.162c-1.127,1.367-1.654,2.708-1.582,4.024c0.071,1.316,0.569,2.355,1.494,3.116
	c0.671,0.537,1.3,0.869,1.886,0.998c0.586,0.129,1.161,0.096,1.725-0.097c0.564-0.193,1.262-0.588,2.092-1.187
	c0.601-0.483,1.42-1.171,2.458-2.062c1.038-0.891,1.72-1.463,2.047-1.717c0.882-0.64,1.678-1.089,2.388-1.347
	c0.71-0.258,1.381-0.376,2.013-0.354c0.631,0.023,1.319,0.181,2.064,0.474c0.745,0.294,1.484,0.743,2.218,1.347
	c1.287,1.06,2.197,2.258,2.733,3.594c0.402,1.007,0.614,2.117,0.633,3.331c0.02,1.215-0.13,2.323-0.449,3.325
	c-0.512,1.603-1.463,3.248-2.854,4.936c-1.019,1.236-2.042,2.241-3.067,3.015c-1.025,0.774-2.296,1.508-3.811,2.199
	c-0.889-1.255-2.5-2.853-4.833-4.793l1.043-1.266c0.707,0.616,1.652,1.303,2.834,2.057c0.938,0.132,2.024-0.07,3.258-0.605
	c1.234-0.535,2.302-1.35,3.205-2.446c0.787-0.954,1.32-1.944,1.601-2.971c0.28-1.026,0.263-1.951-0.053-2.777
	c-0.315-0.825-0.85-1.548-1.604-2.169c-0.633-0.522-1.273-0.851-1.92-0.987c-0.647-0.136-1.313-0.065-1.998,0.213
	c-0.686,0.279-1.695,0.931-3.03,1.957c-1.88,1.505-3.142,2.472-3.785,2.904c-0.973,0.649-1.923,1.034-2.851,1.156
	c-0.927,0.122-1.848,0.026-2.761-0.289c-0.914-0.314-1.773-0.802-2.577-1.465c-1.125-0.927-1.968-2.019-2.528-3.274
	c-0.561-1.254-0.783-2.484-0.668-3.689c0.115-1.204,0.461-2.387,1.039-3.548c0.577-1.161,1.288-2.254,2.133-3.279
	c0.877-1.065,1.824-2.019,2.839-2.861c1.015-0.842,2.005-1.481,2.972-1.916l0.461,0.177c0.537,0.679,1.093,1.31,1.667,1.893
	C53.489,55.611,54.276,56.339,55.276,57.214z"/>
<path d="M61.071,43.847l-2.203,1.291l-0.965-1.303l5.172-3.682l2.096-1.6l2.084-1.615l0.569-0.446l0.964,1.303
	c-1.13,0.837-1.774,1.467-1.93,1.89c-0.087,0.211-0.057,0.472,0.093,0.782c0.334,0.758,1.318,2.24,2.952,4.449l2.695,3.642
	l1.375,1.825c1.417,1.915,2.313,3.083,2.689,3.502c0.822,0.914,1.655,1.525,2.498,1.832c0.843,0.308,1.813,0.343,2.909,0.106
	c1.097-0.236,2.278-0.823,3.545-1.76c1.455-1.077,2.431-2.183,2.926-3.319c0.496-1.136,0.632-2.237,0.41-3.304
	c-0.223-1.066-1.158-2.714-2.808-4.944l-2.371-3.203c-2.045-2.763-3.297-4.444-3.757-5.043c-1.007-1.296-1.669-2.036-1.986-2.224
	c-0.197-0.113-0.411-0.149-0.64-0.109c-0.477,0.078-1.308,0.531-2.493,1.359l-0.964-1.303c1.949-1.328,3.1-2.125,3.457-2.388
	c0.094-0.07,0.232-0.179,0.412-0.33l3.416-2.673l0.964,1.303c-0.973,0.72-1.527,1.252-1.663,1.595
	c-0.063,0.177-0.047,0.412,0.048,0.705c0.096,0.293,0.804,1.409,2.126,3.348c1.32,1.938,2.384,3.452,3.189,4.54l2.73,3.689
	c0.697,0.942,1.349,1.966,1.957,3.071c0.607,1.106,0.968,2.167,1.081,3.185c0.113,1.018,0.006,2.093-0.322,3.227
	c-0.327,1.134-0.901,2.23-1.72,3.289c-0.819,1.06-1.91,2.094-3.27,3.1c-1.591,1.178-3.236,2.063-4.935,2.657
	c-1.237,0.43-2.371,0.617-3.4,0.56c-1.03-0.056-1.954-0.287-2.773-0.694c-0.819-0.406-1.49-0.885-2.013-1.439
	c-0.331-0.338-1.108-1.334-2.333-2.987l-2.215-3.026l-2.951-3.988c-1.084-1.465-2.092-2.76-3.022-3.887
	c-0.372-0.437-0.683-0.725-0.932-0.865C61.628,43.889,61.396,43.85,61.071,43.847z"/>
<path d="M99.937,24.008c-0.445-1.14-0.806-2.16-1.083-3.059c0.601-0.354,1.295-0.689,2.08-1.005
	c1.087-0.438,1.955-0.635,2.603-0.594c0.648,0.041,1.264,0.299,1.848,0.772c0.583,0.474,1.05,1.146,1.4,2.016
	c0.345,0.858,0.502,1.676,0.471,2.453c-0.031,0.778-0.197,1.42-0.499,1.927c-0.301,0.507-0.775,0.969-1.422,1.383
	c-0.648,0.415-1.382,0.788-2.203,1.118l-1.058,0.405l-1.043-2.591L99.937,24.008z M104.996,45.425l6.132-2.341
	c1.631-0.656,2.909-1.405,3.833-2.247c0.924-0.842,1.667-1.776,2.23-2.803c0.562-1.026,0.914-2.132,1.055-3.319
	c0.14-1.186-0.03-2.377-0.511-3.573c-0.457-1.135-1.131-2.061-2.022-2.776c-0.892-0.715-1.856-1.116-2.895-1.204
	c-1.039-0.087-2.711,0.179-5.016,0.797c1.631-1.246,2.653-2.126,3.063-2.643c0.694-0.854,1.149-1.844,1.363-2.97
	c0.214-1.124,0.112-2.206-0.306-3.245c-0.389-0.966-0.991-1.738-1.805-2.316c-0.815-0.577-1.846-0.854-3.092-0.83
	c-1.246,0.024-2.866,0.437-4.859,1.239c-0.532,0.214-1.652,0.707-3.363,1.479c-0.679,0.301-1.623,0.695-2.83,1.181
	c-1.22,0.491-2.244,0.896-3.07,1.214l-2.53,0.934c-0.294,0.105-0.575,0.21-0.841,0.317l0.605,1.504
	c1.597-0.53,2.557-0.761,2.878-0.695c0.15,0.024,0.292,0.114,0.425,0.271c0.213,0.251,0.746,1.384,1.599,3.399
	c1.12,2.609,1.93,4.536,2.431,5.78c1.871,4.651,3.137,7.868,3.798,9.651c0.321,0.868,0.564,1.612,0.73,2.233
	c-0.272,0.545-0.653,1.133-1.143,1.765l0.342,0.852C102.751,46.371,104.017,45.819,104.996,45.425z M107.096,41.801l-0.904-2.142
	l-3.324-8.263c0.416-0.223,0.871-0.434,1.366-0.634c1.401-0.564,2.567-0.839,3.498-0.828c0.931,0.012,1.801,0.325,2.61,0.94
	c0.809,0.615,1.476,1.575,2.001,2.879c0.739,1.836,0.844,3.433,0.316,4.789c-0.528,1.356-1.541,2.336-3.039,2.938
	c-1.1,0.443-1.865,0.702-2.298,0.777C107.195,42.014,107.12,41.862,107.096,41.801z"/>
<path d="M151,24.608c-1.184,0.075-2.523,0.136-4.02,0.182c-1.549,0.048-2.936,0.071-4.16,0.069l3.693-10.196L151,24.608z
	 M143.515,35.409l-0.05-1.62c-1.55-0.004-2.484-0.093-2.802-0.266c-0.212-0.123-0.323-0.342-0.333-0.654
	c-0.014-0.442,0.277-1.572,0.873-3.388l0.787-2.369l10.035-0.308l1.81,4.243c0.322,0.733,0.488,1.262,0.498,1.587
	c0.008,0.261-0.087,0.449-0.285,0.566c-0.199,0.117-1.085,0.232-2.657,0.345l0.049,1.62l6.849-0.327l5.431-0.049l-0.05-1.62
	c-0.379-0.028-0.666-0.051-0.862-0.071c-0.613-0.021-0.996-0.054-1.146-0.102c-0.152-0.047-0.287-0.121-0.407-0.222
	c-0.121-0.1-0.249-0.266-0.387-0.496l-0.836-1.772l-1.292-2.637l-9.351-20.114l-2.772,0.085l-1.582,4.484l-4.71,12.728
	c-0.891,2.411-1.493,4.026-1.806,4.843c-0.689,1.74-1.105,2.747-1.246,3.018c-0.142,0.272-0.283,0.472-0.421,0.599
	c-0.14,0.128-0.31,0.225-0.509,0.289c-0.2,0.065-0.826,0.152-1.877,0.263l0.05,1.62l4.486-0.255L143.515,35.409z"/>
<path d="M177.466,18.043c0.726-1.293,1.535-2.282,2.429-2.969c0.894-0.686,1.824-1.134,2.792-1.344
	c1.293-0.275,2.69-0.222,4.192,0.161c1.666,0.424,2.943,1.066,3.833,1.924c0.89,0.858,1.538,1.927,1.944,3.206
	c0.406,1.279,0.584,2.702,0.535,4.268c-0.05,1.566-0.279,3.151-0.688,4.753c-0.652,2.562-1.559,4.628-2.718,6.2
	c-1.161,1.572-2.467,2.573-3.919,3.002c-1.454,0.43-2.95,0.448-4.489,0.056c-2.89-0.737-4.8-2.416-5.73-5.038
	c-0.931-2.622-0.909-5.845,0.065-9.668C176.156,20.854,176.74,19.337,177.466,18.043z M169.278,29.017
	c0.249,1.394,0.776,2.754,1.58,4.081c0.804,1.327,1.976,2.529,3.515,3.607c1.54,1.077,3.47,1.911,5.792,2.503
	c4.58,1.167,8.51,0.785,11.79-1.147c3.28-1.932,5.495-5.15,6.643-9.655c0.608-2.385,0.728-4.517,0.361-6.398
	c-0.266-1.384-0.84-2.77-1.722-4.158c-0.883-1.387-2.074-2.58-3.572-3.581c-1.499-1-3.421-1.799-5.768-2.397
	c-2.486-0.634-4.791-0.844-6.913-0.633c-1.574,0.163-3.15,0.679-4.728,1.546c-1.579,0.868-2.928,2.062-4.047,3.584
	c-1.121,1.522-1.97,3.418-2.548,5.689C169.024,24.559,168.896,26.878,169.278,29.017z M174.352,41.617
	c0.376-0.052,0.747-0.032,1.113,0.062c0.429,0.109,1.234,0.456,2.416,1.039c0.866,0.449,2.46,1.365,4.781,2.75
	c1.713,1.027,3.178,1.817,4.395,2.369c0.929,0.411,1.539,0.654,1.83,0.728c0.332-0.144,0.807-0.318,1.424-0.524
	c1.59-0.495,2.667-0.819,3.23-0.971l0.367-1.438l-1.721,0.267c-0.208,0.027-0.425,0.033-0.649,0.016
	c-0.332-0.018-0.668-0.069-1.008-0.156c-0.328-0.084-0.721-0.231-1.178-0.441c-0.649-0.3-1.317-0.658-2.003-1.075
	c-0.312-0.2-1.342-0.88-3.089-2.037c-2.538-1.695-4.497-2.839-5.877-3.433c-0.777,0.097-1.419,0.216-1.925,0.356
	c-0.506,0.139-1.62,0.528-3.34,1.164c-0.889,0.324-1.544,0.601-1.965,0.83l0.103,1.336C172.801,41.98,173.833,41.699,174.352,41.617
	z"/>
<path d="M212.245,22.716l-2.048-1.525l0.823-1.397l5.409,3.324l2.292,1.305l2.301,1.288l0.632,0.35l-0.823,1.397
	c-1.211-0.714-2.043-1.061-2.494-1.039c-0.228,0.002-0.456,0.132-0.684,0.391c-0.567,0.603-1.548,2.088-2.943,4.455l-2.301,3.904
	l-1.143,1.979c-1.21,2.053-1.935,3.333-2.174,3.842c-0.52,1.114-0.758,2.119-0.711,3.015c0.045,0.896,0.392,1.803,1.038,2.72
	c0.646,0.917,1.647,1.776,3.005,2.576c1.559,0.919,2.958,1.385,4.198,1.398c1.239,0.013,2.307-0.291,3.202-0.913
	c0.895-0.621,2.046-2.126,3.455-4.515l2.023-3.433c1.746-2.961,2.804-4.77,3.177-5.428c0.799-1.433,1.223-2.332,1.272-2.696
	c0.027-0.226-0.023-0.436-0.149-0.632c-0.258-0.408-0.999-0.997-2.225-1.765l0.823-1.396c1.984,1.276,3.167,2.025,3.548,2.25
	c0.101,0.06,0.255,0.143,0.464,0.251l3.795,2.101l-0.823,1.396c-1.043-0.615-1.749-0.917-2.118-0.908
	c-0.188,0.011-0.398,0.117-0.63,0.32c-0.233,0.203-0.984,1.291-2.252,3.264c-1.269,1.972-2.247,3.543-2.934,4.709l-2.331,3.954
	c-0.595,1.009-1.283,2.01-2.064,3.001c-0.781,0.991-1.618,1.737-2.51,2.239c-0.893,0.502-1.925,0.823-3.096,0.964
	c-1.171,0.141-2.405,0.042-3.7-0.3c-1.295-0.341-2.672-0.94-4.131-1.8c-1.705-1.005-3.162-2.174-4.372-3.506
	c-0.878-0.971-1.493-1.942-1.843-2.912c-0.351-0.97-0.499-1.911-0.444-2.824c0.054-0.912,0.234-1.717,0.539-2.414
	c0.182-0.437,0.795-1.542,1.84-3.314l1.921-3.221l2.52-4.274c0.925-1.57,1.725-3.003,2.398-4.3c0.257-0.513,0.401-0.912,0.433-1.196
	C212.424,23.245,212.37,23.017,212.245,22.716z"/>
<path d="M242.767,63.915c-0.85-0.827-1.794-1.779-2.833-2.858c-1.075-1.117-2.023-2.129-2.843-3.038l10.037-4.105L242.767,63.915z
	 M229.736,65.616l1.168-1.124c-1.037-1.152-1.599-1.904-1.684-2.256c-0.051-0.241,0.037-0.469,0.262-0.686
	c0.319-0.307,1.351-0.849,3.097-1.626l2.285-1.006l6.962,7.232l-1.93,4.19c-0.328,0.73-0.608,1.209-0.842,1.435
	c-0.188,0.181-0.392,0.236-0.611,0.168c-0.22-0.069-0.9-0.648-2.039-1.738l-1.168,1.124l4.839,4.857l3.682,3.993l1.168-1.124
	c-0.234-0.299-0.409-0.528-0.526-0.687c-0.396-0.468-0.628-0.774-0.694-0.918c-0.067-0.144-0.103-0.294-0.109-0.451
	c-0.007-0.156,0.03-0.363,0.108-0.619l0.752-1.809l1.088-2.728l8.634-20.431l-1.923-1.998l-4.386,1.837L235.272,56.3
	c-2.385,0.958-3.986,1.596-4.802,1.912c-1.753,0.657-2.778,1.025-3.074,1.102c-0.297,0.077-0.539,0.107-0.727,0.09
	c-0.189-0.018-0.374-0.079-0.556-0.183c-0.183-0.105-0.667-0.51-1.455-1.215l-1.168,1.125l3.2,3.155L229.736,65.616z"/>
<path d="M264.725,113.57l-0.22,0.626l-2.168-0.046c-1.432-1.156-2.551-2.267-3.355-3.331c-0.804-1.065-1.59-2.488-2.356-4.27
	c-1.09-2.536-1.653-4.952-1.691-7.245c-0.012-1.809,0.285-3.475,0.892-4.997c0.607-1.522,1.409-2.838,2.407-3.947
	c1.502-1.681,3.354-2.994,5.556-3.94c3.768-1.62,7.399-1.654,10.894-0.102c3.495,1.552,6.253,4.679,8.273,9.38
	c0.694,1.615,1.198,3.117,1.512,4.506c0.313,1.389,0.53,3.063,0.65,5.024l-0.194,0.19c-0.645,0.05-1.415,0.204-2.31,0.462
	c-1.429,0.402-2.728,0.825-3.897,1.271l-0.602-1.4c1.305-0.59,2.332-1.102,3.081-1.537c0.493-1.162,0.731-2.33,0.714-3.507
	c-0.017-1.176-0.359-2.542-1.028-4.097c-1.208-2.812-3.064-4.678-5.565-5.601c-2.502-0.923-5.343-0.701-8.525,0.667
	c-1.926,0.828-3.485,1.834-4.676,3.02c-1.191,1.185-2.054,2.452-2.586,3.801c-0.533,1.349-0.809,2.594-0.828,3.736
	c-0.014,1.551,0.378,3.253,1.175,5.107c0.524,1.22,1.158,2.315,1.901,3.286C262.523,111.597,263.505,112.578,264.725,113.57z"/>
<path d="M261.84,119.195l0.982-0.167c0.198,0.309,0.528,0.735,0.991,1.278c0.2,0.243,0.357,0.395,0.473,0.454
	c0.073,0.04,0.149,0.06,0.229,0.06c0.331,0.009,1.487-0.128,3.466-0.412c1.979-0.285,4.348-0.661,7.108-1.132
	c4.056-0.691,6.557-1.131,7.502-1.318c2.404-0.463,3.77-0.781,4.097-0.955c0.145-0.078,0.244-0.194,0.297-0.348
	c0.142-0.328,0.103-1.332-0.117-3.011l1.694-0.289c0.201,1.643,0.479,3.511,0.835,5.603c0.398,2.336,0.813,4.543,1.247,6.623
	l-1.694,0.289c-0.311-1.44-0.578-2.306-0.799-2.598c-0.101-0.128-0.244-0.21-0.428-0.244c-0.185-0.035-0.988,0.039-2.409,0.222
	c-1.422,0.183-3.211,0.458-5.367,0.825c-0.231,0.039-2.085,0.361-5.561,0.967c-1.834,0.325-3.651,0.645-5.454,0.959
	c-1.803,0.313-2.895,0.509-3.278,0.588c0.225,1.785,0.392,2.998,0.501,3.639c0.332,1.951,0.738,3.632,1.216,5.043
	c0.167,0.513,0.303,0.814,0.411,0.901c0.107,0.087,0.363,0.156,0.768,0.206c1.019,0.09,2.178,0.15,3.478,0.18l0.272,1.598
	c-0.366,0.023-0.581,0.039-0.645,0.05l-3.971,0.181c-1.237,0.105-1.979,0.172-2.225,0.201c-0.166-0.355-0.3-0.715-0.402-1.081
	c-0.198-0.772-0.436-1.98-0.716-3.622c-0.039-0.231-0.264-1.745-0.674-4.541c-0.31-2.127-0.535-3.608-0.677-4.442
	C262.777,123.645,262.393,121.742,261.84,119.195z"/>
<path d="M290.976,146.088l0.462-2.512l1.617,0.121l-0.59,6.321l-0.157,2.632l-0.138,2.633l-0.035,0.723l-1.616-0.121
	c0.104-1.402,0.047-2.301-0.171-2.696c-0.103-0.204-0.32-0.351-0.653-0.44c-0.791-0.242-2.557-0.465-5.297-0.67l-4.519-0.337
	l-2.28-0.15c-2.376-0.178-3.846-0.262-4.408-0.251c-1.229,0.026-2.236,0.257-3.019,0.695c-0.784,0.437-1.444,1.148-1.98,2.134
	c-0.538,0.984-0.865,2.262-0.982,3.834c-0.135,1.805,0.066,3.266,0.603,4.383c0.537,1.117,1.281,1.939,2.234,2.468
	c0.953,0.528,2.812,0.895,5.578,1.102l3.973,0.297c3.428,0.256,5.519,0.405,6.273,0.449c1.639,0.083,2.632,0.065,2.98-0.052
	c0.215-0.076,0.381-0.213,0.501-0.413c0.253-0.412,0.453-1.337,0.599-2.775l1.617,0.121c-0.267,2.343-0.416,3.735-0.449,4.178
	c-0.009,0.117-0.016,0.292-0.02,0.527l-0.206,4.333l-1.617-0.121c0.09-1.208,0.049-1.974-0.122-2.3
	c-0.092-0.163-0.281-0.305-0.565-0.424c-0.285-0.119-1.593-0.311-3.923-0.577c-2.33-0.266-4.171-0.449-5.521-0.55l-4.577-0.342
	c-1.168-0.087-2.37-0.262-3.604-0.523c-1.234-0.262-2.273-0.683-3.118-1.261c-0.845-0.579-1.589-1.362-2.233-2.351
	c-0.645-0.988-1.101-2.139-1.368-3.451c-0.267-1.312-0.338-2.813-0.212-4.501c0.147-1.974,0.551-3.797,1.211-5.472
	c0.482-1.218,1.081-2.198,1.796-2.941c0.715-0.744,1.493-1.292,2.336-1.647c0.842-0.355,1.643-0.55,2.404-0.585
	c0.472-0.03,1.734,0.032,3.786,0.185l3.738,0.299l4.947,0.37c1.817,0.136,3.456,0.219,4.917,0.25
	c0.574,0.004,0.996-0.043,1.264-0.141C290.581,146.483,290.762,146.333,290.976,146.088z"/>
<path d="M280.643,188.383c1.154,0.407,2.162,0.8,3.024,1.177c-0.124,0.686-0.323,1.43-0.597,2.231
	c-0.378,1.109-0.795,1.896-1.249,2.36c-0.454,0.464-1.051,0.762-1.792,0.895c-0.74,0.132-1.554,0.048-2.441-0.255
	c-0.875-0.299-1.597-0.714-2.165-1.245c-0.569-0.531-0.947-1.077-1.134-1.636c-0.188-0.559-0.228-1.22-0.119-1.98
	c0.108-0.761,0.306-1.561,0.591-2.398l0.384-1.066l2.644,0.902L280.643,188.383z M261.117,178.232l-2.23,6.173
	c-0.568,1.664-0.834,3.121-0.8,4.371c0.034,1.249,0.256,2.423,0.667,3.519c0.41,1.096,1.019,2.084,1.826,2.965
	c0.807,0.88,1.821,1.529,3.041,1.946c1.158,0.395,2.299,0.488,3.423,0.28c1.124-0.208,2.058-0.677,2.802-1.407
	c0.745-0.73,1.634-2.17,2.671-4.32c-0.122,2.049-0.122,3.398,0.002,4.045c0.194,1.084,0.647,2.074,1.359,2.971
	c0.712,0.896,1.598,1.526,2.658,1.888c0.985,0.336,1.963,0.384,2.933,0.144c0.969-0.24,1.851-0.84,2.647-1.8
	c0.795-0.96,1.54-2.457,2.234-4.49c0.185-0.542,0.543-1.713,1.075-3.513c0.215-0.711,0.533-1.683,0.954-2.915
	c0.425-1.245,0.786-2.284,1.085-3.117l0.944-2.526c0.113-0.292,0.216-0.573,0.309-0.844l-1.534-0.523
	c-0.641,1.556-1.092,2.434-1.353,2.634c-0.116,0.098-0.276,0.146-0.482,0.145c-0.33-0.002-1.536-0.338-3.619-1.008
	c-2.708-0.855-4.696-1.499-5.965-1.932c-4.745-1.619-8.008-2.761-9.79-3.424c-0.867-0.323-1.589-0.625-2.168-0.905
	c-0.235-0.562-0.432-1.234-0.591-2.018l-0.869-0.296C261.867,175.915,261.458,177.234,261.117,178.232z M262.491,182.189
	l2.212,0.714l8.429,2.876c-0.102,0.46-0.239,0.943-0.412,1.448c-0.488,1.429-1.04,2.493-1.656,3.191
	c-0.617,0.697-1.422,1.151-2.415,1.363c-0.994,0.211-2.156,0.089-3.487-0.365c-1.873-0.639-3.151-1.602-3.833-2.887
	c-0.683-1.286-0.763-2.692-0.242-4.22c0.383-1.122,0.686-1.871,0.912-2.248C262.265,182.125,262.429,182.168,262.491,182.189z"/>
<path d="M261.915,223.045c-0.626,0.905-1.475,1.455-2.546,1.651c-1.071,0.195-2.06-0.021-2.964-0.646
	c-0.905-0.626-1.456-1.48-1.654-2.564c-0.196-1.083,0.012-2.07,0.628-2.961c0.626-0.905,1.481-1.456,2.563-1.654
	c1.083-0.198,2.077,0.017,2.982,0.642c0.904,0.626,1.455,1.474,1.65,2.546C262.77,221.131,262.55,222.126,261.915,223.045z"/>
<path d="M152.614,147.614"/>
</svg>
