<?xml version="1.0" encoding="utf-8"?>
<!-- Generator: Adobe Illustrator 17.0.2, SVG Export Plug-In . SVG Version: 6.00 Build 0)  -->
<!DOCTYPE svg PUBLIC "-//W3C//DTD SVG 1.1//EN" "http://www.w3.org/Graphics/SVG/1.1/DTD/svg11.dtd">
<svg version="1.1" id="Layer_1" xmlns="http://www.w3.org/2000/svg" xmlns:xlink="http://www.w3.org/1999/xlink" x="0px" y="0px"
	 width="163.893px" height="198.3px" viewBox="0 0 163.893 198.3" enable-background="new 0 0 163.893 198.3" xml:space="preserve">
<g>
	<path d="M116.764,90.9c1.372,9.519,3.485,19.38,4.98,28.7c0.4,0.2,0.1,0.5,0.1,0.7c2.1,11.1,3.7,21.6,6.1,32.6
		c0.1,0.3,0.3,0.9,0.3,1.2c0.4,1.2,0.2,2.7,0.6,4.1c0,0.7,0,1.4-0.1,2.2l-0.6,4.4c-0.5,0.4-0.3,1.2-0.4,1.6
		c-0.6,1.1-1.1,2.3-1.4,3.4c-1.6,1.5-2,3.8-3.8,5c0.2,0.4-0.4,0.4-0.5,0.7c0.1,0.5-0.5,0.1-0.8,0.5l-0.4,0.8c-0.4-0.3-0.7,0.1-1,0.3
		c-0.1,0.4-0.5,0.4-0.8,0.4c-1.3,1.3-2.9,2.3-4.7,3c0,0.5-0.4,0-0.6,0.1c-1.7,0.9-4,0.5-5.8,1.2c-2.8-0.2-6.3-0.1-9.3-0.7
		c-3-0.8-5.9-1.8-8.4-3.5c-1.9-2.1-4.9-3.4-5.8-6.1c-2.2-2.4-1.9-6.2-3.1-9.3c0.1-1.1-0.1-2.1,0.2-3c-0.5-0.9,0.5-1.4,0.1-2.4
		c0.6-0.7,0.1-2,0.9-2.9c1-2.8,3.3-4.2,5.2-6.5c0.7-0.2,1.5-0.5,2-1c1.2,0,2.2-0.8,3.4-0.9c0.8,0.6,1.7-0.7,2.3,0.1
		c0.6-0.2,1.5,0,2.1,0.4c0.4-0.3,0.6,0.1,0.8,0.4c0.5,0,0.9-0.7,1.2,0c0.2,0.4,0.4,0.5,0,0.9c-0.5,0.1-0.9-0.5-1.4-0.1
		c-1.2,0.8-1.7,1.9-2.5,3.1c0.1,0.6-0.1,1.7,0.4,2.3c0.3,0.7,0.5,1.3,1.2,1.8c0.3,0.5,1.3,0.3,1.7,0.8c1.2,0.5,2.4-0.1,3.5-0.4
		c0.4-0.4,0.9-0.7,1-1.2h0.3c0.6-1,1-2.2,1.2-3.3c0-2.7-0.9-5.8-3.6-6.9c-0.9-1-2.4-1.5-3.7-2.1c-0.6,0.2-1.2-0.5-2-0.3l-0.1-0.2
		c-0.3,0.5-0.8-0.2-1.3,0.3c-0.9,0-1.9-0.1-2.7,0.4c-0.8-0.2-1.2,0.2-2,0.4c-4.4,2-7.7,5.7-10.6,9.3c-0.4,1.1-1.3,2.2-1.9,3.2
		c-2.3,2.4-2.9,5.1-5,7.6c-1.3,1.9-2.2,4.1-3.9,5.9c0.3,0.6-0.3,0.5-0.4,0.9c-1.9,2.1-3.7,4.3-5.9,6.3c-0.6,0.3-1.1,0.7-1.6,1.2
		c-1.2-0.1-2,1.4-3.1,1.2c-1.1,0.3-2.2,0.7-3.2,1.3c-1.5-0.3-3.1,0.8-4.4,0c-1.8,0-3.3-0.6-4.9-1.2c-0.4-0.1-1-1.1-1.6-0.7
		c-1.3-1.1-2.9-2.8-3.2-4.4c0-0.7-1.1-0.7-0.8-1.5l-0.1-0.1c-0.162-2.19,9.673-58.25,13.664-80H116.764z"/>
	<path d="M52.608,90.9c0.93-5.068,1.636-8.924,1.636-8.924s-13.3,0.124-13.9-0.076c0.1-0.3,0.017-35.7,0.017-35.7l15.466-0.1
		l-0.017-30L86.644,0l31.259,16.1c0,0-0.159,29.3,0.041,29.8c0.4,0,14.659,0.076,14.659,0.076s0.341,34.624-0.059,35.224
		c0,0.1,0.2,0.2,0.1,0.3c-1.1,0.1-14.4-0.1-17.1,0c0.2,1.5,0.2,3.8,0.7,5.5c0.157,1.292,0.331,2.593,0.52,3.9H52.608z"/>
	<path fill="#FFFFFF" stroke="#FFFFFF" stroke-width="0" stroke-linecap="square" stroke-miterlimit="2" d="M104.545,81.966
		l5,24.334l1.4,6.5l1.7,10.2c0,0,2.3,12.4,3.7,18.9c-0.2,0.6,0.3,1.3,0,2c0.8,1.7,0.9,3.4,1.2,5.2c0,0.6,0.5,1.4,0.5,2.1
		c0.5,1.6,0.5,3.5,0.9,5.2c-0.2,1.2,0.7,2.5,0.1,3.7c0.1,1.1-0.5,1.8-0.5,3c-0.4,3-2.1,5.4-4.5,7.2c-2,1.2-3.7,2.1-5.9,3
		c-2.1,0.7-4.8,0-7-0.6c-0.6,0-1.1-0.6-1.7-0.7c-1.6-0.9-3.8-1.4-4.9-3.2c-0.6-2.1-2-3.6-1.4-5.7c1,0.7,2.1,1.4,3.1,1.9l2.1,0.2
		c0.9,0.5,2.2,0.3,3.2,0.4c0.5-0.4,0.8-0.1,1.4-0.2c0.7,0,1.4-0.5,2-0.4c3.3-0.6,5.6-3.3,7.7-6c0.7-0.9,1.1-1.9,1.7-3
		c0.1,0,0.2,0,0.3-0.1c-0.6-0.5,0.2-1,0-1.5l0.2-0.2c0.2-1.4,0.7-2.8,0.4-4.4c0.5-1.2,0.1-2.6-0.4-3.7c0-0.7,0-1.6-0.6-2.1
		c-0.7-1-0.2-2.5-1.2-3.4c-0.5-1.9-2.2-2.9-3.2-4.4c-2.4-2.8-5.5-4.1-8.8-5.2c-0.8,0.2-1.7-0.6-2.5-0.3c-0.9-0.7-2.1,0-3-0.6
		c-1.2,0.1-2.5,0-3.7,0.2l-0.3-0.3c-1.5,0.2-3,0.4-4.3,1c-0.6-0.2-1,0.5-1.7,0.4c-2,1.3-4.6,1.4-6.1,3.3l0,0
		c-1.1,0.5-2.1,1.6-2.9,2.6c-1,0.4-1.5,1.4-2,2.2c-0.6,0.6-1.4,0.9-1.5,1.8c-0.5,0.1-0.5,1.3-1.1,0.7c0.3,0.5-0.3,0.8-0.5,1.3
		c-0.9,0-0.2,1-1,1.2c-0.9,1.5-1.6,2.8-2.6,4.4c-0.6,1.2-1.4,2.2-1.9,3.5c-0.5,0-0.2,0.6-0.3,0.8c-0.6,0.9-1.3,1.7-1.7,2.7
		c-0.8,0.5-1,1.7-1.6,2.3c0.2,0.2,0,0.4-0.2,0.6l-0.6,0.4c0.3,0.7-0.5,1.4-0.7,2.1c-0.8,0.8-1.3,2.1-2.2,2.8c-1.1,1.2-2.5,2.4-4.3,2
		c-0.7,0.3-1.1-0.7-1.8-0.3c-0.6-0.9-1.8,0-1.9-1.2c-0.6-0.5-0.3-1.1-0.5-1.7c0.3-2.3,13.7-81,13.7-81L104.545,81.966z"/>
	<path stroke="#000000" stroke-width="0" stroke-linecap="square" stroke-miterlimit="2" d="M77.644,164.4c-1,0.5,0.3,1.7-0.3,2.3
		c0.1,0.5-0.1,1.1,0,1.7c0.7,0.6,0.3,1.6,0.4,2.3c0.8,2.7,2.4,4.9,3.4,7.4c1.1,0.7,1.3,2.5,2.6,2.8c0.5,1.1,1.9,1,2.4,2
		c1.4,0.7,2.5,1.1,3.8,2.1c1.2,0.3,2.4,0.9,3.4,1.6c0.2-0.2,0.3,0.2,0.5,0.3c3,0.4,5.5,1.3,8.4,1.3c0.5-0.2,0.8-0.2,1.3-0.1
		c0.7,0.2,1.7,0.1,2.4-0.2c1.6,0.4,3.2-0.1,4.8-0.5c0.6-0.4,1.6-0.1,2-0.7c0.9,0.3,1.6-0.9,2.6-0.8c-0.1-0.7,0.6-0.2,0.8-0.5
		c1.6-0.6,3.1-1.7,4.6-2.5c1.3-0.8,2.6-1.7,3.4-3c1.9-1.4,3.2-3.8,4.9-5.7c0.6-1.3,1.1-2.9,2.1-3.8c0.8,0.4,1.3,1.4,2.2,1.8
		c1.8,1.2,3.9,2,6,2.4c0.4,0.4,0.9,0.1,1.4,0.3c2,0,4.4,0.8,6.4,0.6c0.9,0.6,2,0,2.8,0.3c1.1-0.1,2.1,0.2,3-0.3
		c0.5,0.2,0.9,0,1.4-0.1c0.3-0.2,0.4-0.3,0.8-0.2c2.3-0.4,4.6-1.6,6.4-3.2c-0.2-0.4,1.2-0.9,0.7-1.6c0.1-0.1,0.4-0.6,0.7-0.6
		c0.9,0.3,0.5,1.3,0.9,2.1c0.2,1.3-0.3,2.1,0,3.3c-0.3,1.2-0.1,2.4,0,3.6c0,0.3-0.1,0.8-0.1,1.3c0.1,1,0.2,2-0.6,2.7
		c0.2,0.5-0.3,0.2-0.5,0.5c-0.3,0.3-0.4,1-0.9,0.7c-2.1,0.7-4.1,2.3-6.4,1.9c-0.6,0.1-1.3,0.2-2,0.3c-0.3-0.3-0.7,0.1-1,0.1
		c-2.3-0.2-4.8,0.3-7.1-0.1c-1.4,0.1-3.2,0-4.6-0.6c-0.2,0.4-0.6,0-0.9,0c-1.5,0-3-0.6-4.5-1.1c-0.2-0.5-0.8-0.3-1.2-0.4
		c-0.1,0.4-0.5,0.4-0.6,0.9l0.1,0.1c-0.8,0.8-1.7,1.8-2.4,2.7l0.2,0.2c-1.5,0.3-2.1,2.4-3.8,2.8c-0.8,1.3-2.7,1.5-3.8,2.8
		c-1.9,1.2-4.1,1.8-6.1,2.5l-0.6,0.4c-2,0.2-3.7,0.9-5.8,1.2c-1.2-0.2-2.3,0.4-3.6,0.5l-3.8-0.1l-0.1,0.2c-1.5-0.5-2.5-0.1-4.1-0.4
		c-0.5,0-1,0.2-1.5-0.2c-0.1,0.3-0.3-0.1-0.5-0.2c-2.1-0.2-4-0.7-6-1.3c-0.5,0.6-1-0.3-1.6-0.1c-0.3-0.5-0.9-0.1-1.3-0.5
		c-1.2-0.5-2.4-1.1-3.5-1.9c-2-0.5-3.7-1.6-5.4-2.7l-5.2-5.6c-2.3,2.3-4.6,5.1-7.7,6.3c-1.9,1-4.1,2-6.2,2.3c-0.1,0.4-0.8,0.2-1,0.6
		c-1.3,0.5-2.6-0.1-3.9,0.6c-0.7-0.1-1.5,0.1-2.4,0.1c-3,0.1-5.9-0.1-9.1-0.6c-4.8-1.2-9.8-2.9-13.8-6l-1.8-1.7l-0.1,0.1
		c0-0.3-0.5-0.6-0.8-0.5c0.1-0.5-0.6-0.7-0.7-1c-0.7,0.6-1.8,0.7-2.6,1.3c-0.6,0-1.4-0.2-1.7,0.5c-1.8,0-3.7,1.1-5.6,0.8
		c-1.1,0.2-2,0.3-3,0.1c-2,0.2-4.3-0.2-6.1-0.1c0-0.3-0.4-0.2-0.5-0.1c-0.4-0.2-0.6-0.8-1.3-0.4c-2.3-0.9-4.5-2-6.2-4
		c-0.3-2.9,0.5-6.2,0-9.1c-0.3-1.4-0.1-2.6,0.3-3.9c0.2-0.2,0.4,0,0.6,0.1c0,1.3,1.4,1.9,2.2,2.7c0.2,0.6,1,0.9,1.6,1.2
		c0.4,0.3,1.1,0.3,1.4,0.8c1,0,1.7,1.1,2.7,1c0.9,0.2,1.9,0.5,2.8,0.8c1.9,0,3.8,0.9,5.8,0.2c1.9,0.2,4.2-0.4,6.1-0.5
		c1.7-0.3,3.3-0.9,4.9-1.7c1.1-0.1,2.1-1,2.8-2c1,0.3-0.1,1.6,1.1,1.8c1.4,1.8,2.3,3.6,4.3,4.5c1.4,0.7,2.4,1.9,3.9,2.2
		c1.1,1,2.9,1.2,4.3,1.8c2.6,1.1,5.5,1.8,8.4,1.1c1,0.3,2.1-0.3,3.3-0.2c2.6-1.2,5.4-1.9,7.9-3.5c0.3-0.6,1.3-0.8,1.5-1.5
		c1.4-0.6,2.1-2.4,3.6-2.9c0.3-0.5,1.2-0.7,1.4-1.5c2.2-1.9,2.7-4.9,4.3-7.2c0.7-1,0.8-2.4,0.6-3.6
		C76.344,164.3,77.144,163.8,77.644,164.4z"/>
	<rect x="52.445" y="56.7" fill="#FFFFFF" width="69" height="13.9"/>
	<rect x="65.144" y="21.7" fill="#FFFFFF" width="42.9" height="24.2"/>
</g>
</svg>
