<?xml version="1.0" encoding="utf-8"?>
<!-- Generator: Adobe Illustrator 17.0.2, SVG Export Plug-In . SVG Version: 6.00 Build 0)  -->
<!DOCTYPE svg PUBLIC "-//W3C//DTD SVG 1.1//EN" "http://www.w3.org/Graphics/SVG/1.1/DTD/svg11.dtd">
<svg version="1.1" id="Layer_1" xmlns="http://www.w3.org/2000/svg" xmlns:xlink="http://www.w3.org/1999/xlink" x="0px" y="0px"
	 width="450px" height="273.119px" viewBox="0 0 450 273.119" enable-background="new 0 0 450 273.119" xml:space="preserve">
<g>
	<path d="M450,13.119c-0.599,7.929-1.197,15.858-1.798,23.787c-0.088,1.16-0.186,2.318-0.337,4.18c-1.586,0-3.176,0.051-4.762-0.007
		c-32.092-1.18-64.179-2.493-96.275-3.521c-21.455-0.687-42.946-1.809-64.378-1.212c-24.012,0.669-46.531,8.374-68.208,18.429
		c-4.169,1.934-8.173,4.224-12.253,6.349c-2.791,1.614-5.581,3.228-8.372,4.843c-1.378,0.504-3.027,0.682-4.088,1.567
		c-5.536,4.614-11.895,5.154-18.725,4.578c-11.906-1.005-23.837-1.708-35.675-2.532c-1.313-7.743,1.301-12.314,8.295-16.084
		c27.342-14.738,54.39-30.006,83.648-40.792C254.746,2.5,283.099-1.587,312.714,0.551c30.051,2.169,60.236,2.459,90.361,3.616
		C418.719,4.768,434.359,5.465,450,6.119C450,8.452,450,10.785,450,13.119z M174.518,47.792c0.42,0.611,0.841,1.222,1.261,1.834
		c33.005-15.536,66.209-30.518,103.899-36.404c-4.837-3.495-4.827-3.445-13.214-1.652c-30.887,6.601-59.824,18.425-87.809,32.781
		C177.098,45.15,175.889,46.629,174.518,47.792z M420.149,34.754c6.034,0,11.726,0,17.858,0c0-8.281,0-16.313,0-24.362
		c-5.589,0-10.996,0-16.68,0C420.932,18.568,420.551,26.46,420.149,34.754z M401.576,17.325c0.216-0.684,0.432-1.367,0.648-2.051
		c-2.052-0.598-4.083-1.628-6.159-1.726c-19.454-0.916-38.914-1.704-58.376-2.414c-1.522-0.056-3.075,0.754-4.614,1.161
		c0.07,0.499,0.139,0.997,0.209,1.496C356.049,14.97,378.812,16.148,401.576,17.325z M406.008,18.538
		c2.897-0.585,5.373-1.084,7.849-1.584c-0.66-0.919-1.272-2.573-1.99-2.621C409.535,14.18,406.329,13.141,406.008,18.538z"/>
	<path d="M0,217.119c5.104-17.115,10.738-34.097,15.078-51.403c2.027-8.083,6.83-10.81,13.855-11.421
		c11.842-1.032,22.257,2.589,31.256,10.417c2.964,2.578,3.741,5.099,2.46,9.089c-4.612,14.367-8.734,28.89-13.097,43.338
		c-0.924,3.061-1.55,5.778,2.137,7.649c0.817,0.415,1.203,2.187,1.326,3.382c1.403,13.548,7.694,24.578,17.369,33.846
		c1.61,1.542,3.578,2.709,5.381,4.05c0.333-0.356,0.666-0.712,0.999-1.069c-1.076-0.958-2.15-1.918-3.227-2.875
		c-12.303-10.918-18.594-24.963-18.118-41.038c0.219-7.387,4.126-14.879,7.394-21.838c1.028-2.19,5.316-3.533,8.294-3.943
		c3.386-0.466,4.489,2.587,5.055,5.621c0.167,0.897,1.218,2.107,2.076,2.319c4.278,1.057,3.813,3.669,2.71,6.831
		c-1.467,4.205-2.723,8.485-4.15,12.988c-3.253-0.425-6.307-0.824-9.817-1.283c-0.446,12.573,5.296,21.737,14.018,30.604
		c1.002-3.319,1.74-5.762,2.631-8.711c5.638,0.792,11.186,1.571,17.222,2.418c-0.11,1.66-0.006,3.127-0.338,4.488
		c-0.697,2.852-0.371,4.713,2.518,6.586c4.82,3.125,3.842,9.278-1.664,11.904c-6.222,2.967-12.429,1.593-18.272-1.13
		c-2.997-1.396-5.311-1.197-8.236,0.134c-4.461,2.03-9.222,3.398-13.856,5.046c-4.667,0-9.333,0-14,0
		c-0.889-0.343-1.75-0.814-2.67-1.008c-11.445-2.422-21.625-7.203-29.91-15.678C6.902,248.742,3.016,239.168,0,229.119
		C0,225.119,0,221.119,0,217.119z M22.937,215.11c-1.713,1.695-3.149,2.439-3.352,3.435c-0.844,4.136,2.562,10.616,5.535,10.493
		c4.852-0.201,4.632-5.107,4.399-7.481C29.306,219.393,25.622,217.57,22.937,215.11z M30.119,180.053
		c3.692,0.689,7.056,1.317,10.766,2.009c0.655-2.295,1.259-4.413,2.041-7.157c-3.806-0.817-7.11-1.526-10.626-2.28
		C31.476,175.429,30.846,177.577,30.119,180.053z M33.099,209.386c-3.449-1.145-6.759-2.245-10.374-3.446
		c-0.687,2.325-1.175,3.978-1.719,5.818c3.689,1.03,7.074,1.976,10.501,2.933C32.099,212.717,32.517,211.326,33.099,209.386z
		 M43.859,171.333c0.486-1.587,0.889-2.901,1.277-4.166c-9.215-3.949-10.645-3.757-10.939,1.33
		C37.149,169.363,40.125,170.237,43.859,171.333z M53.101,264.152c4.38,0.37,8.761,0.74,13.985,1.181
		C62.574,259.148,60.51,258.942,53.101,264.152z M36.135,196.101c0.485-0.367,0.97-0.733,1.455-1.1
		c-0.95-1.046-1.711-2.593-2.888-3.04c-2.987-1.134-6.309-2.5-9.105,1.775C29.532,194.62,32.833,195.361,36.135,196.101z
		 M75.642,205.039c-1.416,4.071-2.514,7.08-3.469,10.134c-0.147,0.469,0.209,1.392,0.62,1.654c0.418,0.267,1.315,0.182,1.788-0.104
		C76.338,215.658,77.545,208.231,75.642,205.039z M84.525,252.102c-0.074,0.804-0.149,1.607-0.223,2.411
		c4.13,0.314,8.259,0.628,12.389,0.941c0.039-0.661,0.079-1.322,0.118-1.983C92.714,253.015,88.619,252.558,84.525,252.102z
		 M29.065,183.905c-0.129,0.573-0.257,1.145-0.386,1.718c3.265,0.809,6.527,1.63,9.802,2.395c0.178,0.042,0.466-0.383,1.949-1.684
		C35.951,185.376,32.508,184.64,29.065,183.905z"/>
	<path d="M71.222,136.503c1.256-15.416,2.31-30.853,3.831-46.243c1.271-12.866,9.313-20.253,22.32-19.986
		c15.806,0.325,31.599,1.387,47.392,2.239c21.443,1.156,42.88,2.446,64.322,3.622c25.429,1.395,50.878,2.486,76.288,4.176
		c16.675,1.109,22.887,8.084,23.765,24.688c1.114,21.062-1.067,41.843-5.24,62.437c-2.879,14.207-12.128,21.67-28.847,22.413
		c-14.357,0.638-28.652-0.221-41.306-8.517c-1.045-0.685-2.485-1.132-3.724-1.095c-7.822,0.229-15.645,0.533-23.451,1.064
		c-1.223,0.083-2.61,1.236-3.497,2.261c-10.202,11.795-28.753,10.706-35.801-1.972c-0.647-1.164-2.504-2.184-3.894-2.322
		c-8.441-0.84-16.909-1.873-25.369-1.882c-4.857-0.005-9.708,1.835-14.575,2.783c-16.074,3.131-30.322-1.142-42.805-11.266
		c-5.632-4.567-8.623-10.89-8.634-18.356c-0.007-4.664-0.001-9.327-0.001-13.991C71.738,136.538,71.48,136.521,71.222,136.503z
		 M295.343,120.129c-0.44-0.057-0.88-0.114-1.319-0.171c0-5.659-0.166-11.325,0.052-16.975c0.176-4.56-1.596-6.686-6.254-6.985
		c-17.263-1.108-34.499-2.725-51.775-3.439c-4.738-0.196-9.846,1.472-14.306,3.395c-6.133,2.644-9.047,8.822-7.514,15.305
		c3.797,16.055,8.729,31.765,18.942,45.077c4.871,6.349,10.597,12.377,19.348,12.724c8.806,0.349,17.65-0.003,26.469-0.302
		c7.811-0.265,9.62-1.055,11.01-8.757C292.376,146.819,293.622,133.431,295.343,120.129z M105.188,85.16
		c-2.159-0.114-4.321-0.188-6.477-0.349c-6.672-0.499-8.602,0.922-9.74,7.623c-0.666,3.923-1.305,7.88-1.514,11.846
		c-0.751,14.279-1.37,28.565-1.913,42.853c-0.174,4.564,1.816,7.455,6.741,8.254c8.99,1.459,17.985,2.99,26.863,4.997
		c6.338,1.432,11.622,0.599,17.334-2.897c18.001-11.019,29.153-26.789,34.396-46.948c2.903-11.163-5.126-22.69-16.332-23.298
		C138.105,86.347,121.643,85.83,105.188,85.16z M187.283,119.037c-0.605,6.615-1.187,13.215-1.817,19.812
		c-1.183,12.386-2.4,24.769-3.587,37.155c-0.248,2.583,0.383,5.25,3.378,4.714c1.518-0.272,3.619-2.966,3.71-4.659
		c0.973-18.082,1.563-36.185,2.345-54.278C191.451,118.533,190.053,118.054,187.283,119.037z M127.238,171.65
		c17.24,3.419,57.523-44.273,52.807-61.746C169.911,136.9,154.842,159.074,127.238,171.65z M184.159,77.277
		c-0.087,0.798-0.174,1.597-0.26,2.395c21.434,1.324,42.869,2.649,64.303,3.973c0.047-0.692,0.094-1.384,0.141-2.076
		C226.948,80.138,205.553,78.708,184.159,77.277z M203.409,106.963c1.336,20.216,13.656,53.983,23.656,59.36
		c-4.692-8.876-10.477-17.952-14.406-27.771C208.676,128.598,206.527,117.91,203.409,106.963z M301.977,145.085
		c2.863-4.171,3.922-36.447,0-43.233C301.977,116.368,301.977,130.885,301.977,145.085z M203.219,150.387
		c-0.436,0.015-0.873,0.03-1.309,0.045c0.47,8.389,0.94,16.778,1.41,25.167c0.703-0.065,1.406-0.13,2.109-0.195
		C204.692,167.065,203.956,158.726,203.219,150.387z M170.337,169.647c0.443,0.106,0.887,0.213,1.33,0.319
		c2.498-10.384,4.995-20.769,7.493-31.153c-0.351-0.085-0.702-0.169-1.054-0.254C175.516,148.922,172.927,159.285,170.337,169.647z"
		/>
	<path d="M193.617,65.966c2.791-1.614,5.581-3.228,8.372-4.843c10.728,5.501,21.37,2.725,31.948-0.459
		c9.671-2.911,19.168-6.461,28.942-8.945c9.651-2.453,19.427-1.962,28.98,1.347c14.731,5.103,23.449,23.643,16.417,39.248
		c-0.906-1.98-1.182-3.43-2.039-4.32c-7.414-7.699-17.114-11.935-26.686-15.696c-8.391-3.296-17.336-0.302-26.039,1.269
		c-7.601,1.372-15.412,2.52-23.091,2.317c-13.623-0.361-27.217-1.815-40.821-2.845c-0.592-0.045-1.158-0.428-2.819-1.075
		C189.432,69.639,191.524,67.802,193.617,65.966z"/>
	<path d="M71.525,95.151c-0.667,10.692-1.373,20.804-1.899,30.927c-0.285,5.482-0.963,11.077-0.215,16.448
		c1.152,8.27-2.755,15.024-4.816,22.92c-13.116-13.858-28.044-17.741-45.458-10.551C22.749,130.629,40.764,108.791,71.525,95.151z"
		/>
	<path d="M112.206,69.23c4.235-7.559,2.078-13.957-0.625-20.018c-3.912-8.772-8.505-17.238-12.618-25.924
		c-3.56-7.52-2.699-10.533,3.821-15.285c5.172-3.77,8.487-3.878,12.571,1.081c13.4,16.269,20.43,34.672,17.736,56.14
		c-0.406,3.232-1.699,4.193-4.792,4.062C123.329,69.076,118.343,69.23,112.206,69.23z"/>
	<path d="M157.858,43.882c-2.369-4.665-5.064-8.938-6.722-13.581c-1.216-3.406,0.47-7.187,3.959-8.143
		c3.014-0.826,7.222-0.831,9.702,0.72c4.25,2.658,7.563,6.814,11.85,10.893C170.239,37.219,164.609,40.249,157.858,43.882z"/>
	<path d="M86.946,131.768c0.861-10.081,1.683-20.165,2.607-30.24c0.302-3.301,0.851-6.58,1.317-9.864
		c0.46-3.238,2.54-4.437,5.606-4.435c16.778,0.011,33.556,0.005,50.334,0.005c0.15,0.663,0.3,1.325,0.45,1.988
		c-19.672,14.433-39.343,28.866-59.015,43.298C87.813,132.269,87.379,132.018,86.946,131.768z"/>
</g>
</svg>
